<svg width="320" height="320" viewBox="0 0 320 320" fill="none" xmlns="http://www.w3.org/2000/svg">
<rect width="320" height="320" rx="78" fill="#0B0D17"/>
<path d="M44.4453 254.25C42.6875 252.883 41.1738 251.125 39.9043 248.977C38.6348 246.926 38 244.191 38 240.773C38 237.355 38.8301 234.523 40.4902 232.277C42.248 229.934 44.4941 227.639 47.2285 225.393L113.293 168.117L85.3145 113.479C83.3613 109.865 81.7988 107.326 80.627 105.861C78.1855 102.834 75.1582 101.32 71.5449 101.32C67.9316 101.32 64.3184 101.711 60.7051 102.492C57.1895 103.273 53.4785 103.762 49.5723 103.957C45.666 104.152 43.0293 103.225 41.6621 101.174C40.2949 99.0254 39.6113 96.4863 39.6113 93.5566C39.6113 86.623 41.8574 81.6914 46.3496 78.7617C50.9395 75.832 55.1387 73.3906 58.9473 71.4375C62.7559 69.4844 66.9062 67.8242 71.3984 66.457C80.0898 63.8203 91.9062 62.0137 106.848 61.0371C112.902 60.7441 118.664 63.3809 124.133 68.9473C125.598 70.5098 126.721 71.9258 127.502 73.1953L159.729 127.834L227.697 68.9473C244.104 54.9824 256.75 48 265.637 48C271.984 48 278.771 50.5391 285.998 55.6172C293.908 61.1836 297.863 67.1895 297.863 73.6348C297.863 77.7363 296.301 80.7637 293.176 82.7168C292.59 83.0098 291.467 83.7422 289.807 84.9141L254.357 111.281L183.02 167.092C198.449 192.385 207.336 206.496 209.68 209.426C214.855 217.238 222.57 221.145 232.824 221.145C237.512 221.145 241.76 220.412 245.568 218.947C249.377 217.482 252.844 216.75 255.969 216.75C259.094 216.75 261.779 217.531 264.025 219.094C266.271 220.559 267.395 222.512 267.395 224.953C267.395 230.227 262.951 236.33 254.064 243.264C245.568 249.611 230.773 256.643 209.68 264.357C198.547 268.361 190.344 270.51 185.07 270.803C179.797 271.096 175.5 270.461 172.18 268.898C168.859 267.336 165.93 265.236 163.391 262.6C159.094 258.4 154.992 252.15 151.086 243.85L132.482 206.496L78.8691 248.391C75.1582 251.32 71.4961 253.762 67.8828 255.715C64.2695 257.668 60.9004 258.645 57.7754 258.645C54.748 258.645 52.209 258.254 50.1582 257.473C48.2051 256.789 46.3008 255.715 44.4453 254.25Z" fill="#F1F5F9"/>
</svg>
