<svg width="1266" height="904" viewBox="0 0 1266 904" fill="none" xmlns="http://www.w3.org/2000/svg">
<mask id="mask0_403_1045" style="mask-type:alpha" maskUnits="userSpaceOnUse" x="28" y="96" width="1157" height="726">
<path d="M252.558 647.663C263.725 647.756 274.707 650.52 284.588 655.724L576.937 809.683C603.548 823.696 635.052 824.989 662.722 813.204L905.759 709.682L1142 609.815C1178.72 594.296 1195.08 551.302 1177.98 515.301L1096.58 343.957C1086.42 322.583 1068.26 306.069 1046.02 297.988L880.933 238.006C873.847 235.431 867.074 232.063 860.744 227.966L675.082 107.789C641.044 85.7569 595.467 97.161 575.816 132.627L547.02 184.597C531.762 212.134 499.998 226.098 469.392 218.723L302.079 178.406C279.113 172.872 254.904 179.295 237.703 195.487L85.5313 338.722C74.7669 348.855 67.4866 362.135 64.7339 376.659L29.3547 563.331C21.2272 606.215 53.8984 645.998 97.5437 646.364L252.558 647.663Z" fill="#020617"/>
</mask>
<g mask="url(#mask0_403_1045)">
<path d="M252.558 647.663C263.725 647.756 274.707 650.52 284.588 655.724L576.937 809.683C603.548 823.696 635.052 824.989 662.722 813.204L905.759 709.682L1142 609.815C1178.72 594.296 1195.08 551.302 1177.98 515.301L1096.58 343.957C1086.42 322.583 1068.26 306.069 1046.02 297.988L880.933 238.006C873.847 235.431 867.074 232.063 860.744 227.966L675.082 107.789C641.044 85.7569 595.467 97.161 575.816 132.627L547.02 184.597C531.762 212.134 499.998 226.098 469.392 218.723L302.079 178.406C279.113 172.872 254.904 179.295 237.703 195.487L85.5313 338.722C74.7669 348.855 67.4866 362.135 64.7339 376.659L29.3547 563.331C21.2272 606.215 53.8984 645.998 97.5437 646.364L252.558 647.663Z" fill="#020617"/>
<path opacity="0.05" d="M362.501 385.973L427.595 348.412L425.324 348.066L361.823 384.726L362.501 385.973ZM252.313 375.835C250.568 376.832 250.568 378.453 252.313 379.464C253.287 379.96 254.364 380.218 255.457 380.218C256.55 380.218 257.627 379.96 258.601 379.464C260.083 378.605 260.29 377.289 259.224 376.292L293.419 356.556L293.779 356.348V344.174L292.394 344.299V355.517L257.797 375.503C256.908 375.186 255.964 375.053 255.021 375.11C254.079 375.167 253.158 375.414 252.313 375.835ZM123.039 460.318C123.296 460.782 123.681 461.161 124.147 461.413C125.121 461.909 126.198 462.167 127.291 462.167C128.384 462.167 129.461 461.909 130.435 461.413C131.931 460.554 132.125 459.238 131.058 458.241L144.686 450.388L155.129 456.413L155.835 455.18L146.141 449.557L168.799 436.441L179.242 442.48L179.948 441.233L170.253 435.624L195.861 420.833L206.304 426.871L207.01 425.625L197.315 420.016L208.395 413.645L213.381 416.525L214.101 415.279L209.725 412.897L225.403 403.853L224.683 402.607L208.298 412.066L189.283 401.069C190.446 400.072 190.28 398.715 188.742 397.828C187.877 397.392 186.931 397.139 185.964 397.084C184.997 397.03 184.028 397.174 183.119 397.51L181.651 396.665V373.273L174.56 369.187L172.774 369.81L180.211 374.104V395.834L150.309 378.577L148.675 379.284L181.748 398.382C180.779 399.352 181 400.626 182.455 401.457C183.274 401.876 184.169 402.127 185.087 402.196C186.005 402.265 186.928 402.15 187.801 401.859L206.872 412.897L195.792 419.268L136.238 384.92L134.687 385.682L194.241 420.099L168.633 434.876L135.795 415.791L135.629 415.694H106.974C106.71 415.288 106.348 414.955 105.921 414.725C104.286 413.899 102.394 413.74 100.644 414.282L92.9992 409.878L91.6973 410.778L99.1485 415.071C97.9851 416.068 98.1651 417.44 99.6886 418.326C100.662 418.822 101.74 419.081 102.833 419.081C103.925 419.081 105.003 418.822 105.976 418.326C106.491 418.059 106.905 417.631 107.154 417.107H135.269L167.4 435.652L144.686 448.768L123.815 436.732H82.7504L69.0391 428.81L67.9173 429.821L81.13 437.452L40.8687 460.692C40.2455 461.593 39.6223 462.493 39.0406 463.462L82.7504 438.214H123.441L143.246 449.654L129.632 457.521C128.732 457.201 127.777 457.068 126.825 457.13C125.872 457.192 124.942 457.447 124.092 457.881C123.626 458.132 123.241 458.512 122.984 458.975H71.5598L27.9331 484.168C27.6284 484.888 27.3237 485.622 27.0329 486.342L71.9476 460.415L123.039 460.318ZM401.835 345.033L399.411 344.784L396.198 346.64L396.918 347.872L401.835 345.033ZM227.813 375.793L208.423 387.012L239.502 404.947L240.208 403.714L211.29 387.012L229.156 376.694C230.689 377.305 232.385 377.373 233.962 376.888L261.024 392.524L261.745 391.277L235.43 376.112C235.682 375.946 235.888 375.717 236.026 375.449C236.165 375.18 236.232 374.88 236.22 374.578C236.209 374.276 236.121 373.982 235.963 373.724C235.805 373.466 235.583 373.254 235.319 373.107L260.706 358.454L246.773 350.407L244.585 350.795L257.839 358.454L233.754 372.303C232.271 371.894 230.696 371.962 229.253 372.497L206.415 359.298L204.476 359.838L227.91 373.37C227.736 373.517 227.594 373.699 227.495 373.904C227.395 374.109 227.338 374.332 227.329 374.56C227.32 374.788 227.358 375.015 227.442 375.227C227.525 375.44 227.651 375.632 227.813 375.793ZM70.0502 560.826L119.106 532.503L118.4 531.257L69.6762 559.386H48.0845L26.5481 571.85L27.0883 573.235L48.4584 560.895L70.0502 560.826ZM552.506 476.606L552.686 476.509H571.785L667.999 532.046C667.999 531.506 667.999 530.966 667.999 530.412L634.663 511.23L640.507 507.851V491.84L657.404 482.035C657.21 481.592 657.03 481.148 656.822 480.719L639.399 490.788L639.039 490.982V506.964L633.181 510.358L606.866 495.123V483.018L631.976 468.517L632.322 468.31V444.931L632.876 444.627C632.544 444.267 632.225 443.893 631.907 443.532L574.707 476.606L572.339 475.221L572.173 475.124H555.151L624.165 435.306L623.126 434.253L552.368 475.096H516.58L515.195 474.265L559.071 448.906L558.351 447.66L513.768 473.406L491.609 460.637H493.465L553.697 425.86H581.895C582.152 426.323 582.537 426.703 583.003 426.954C583.977 427.45 585.054 427.709 586.147 427.709C587.24 427.709 588.317 427.45 589.291 426.954C590.773 426.096 590.981 424.78 589.914 423.797L602.504 416.525L601.271 415.584L588.488 422.966C587.588 422.649 586.633 422.518 585.681 422.58C584.729 422.642 583.799 422.895 582.948 423.326C582.48 423.581 582.095 423.965 581.84 424.434H553.282L493.063 459.197H489.102L464.172 444.807L533.421 404.836H574.486L580.399 401.415C579.942 401.125 579.499 400.834 579.014 400.557L574.098 403.327H533.061L462.76 443.92L441.791 431.816L529.045 381.444C530.605 381.991 532.304 381.991 533.864 381.444L556.841 394.712L562.755 391.291L561.273 390.502L556.841 393.064L535.235 380.599C535.562 380.322 535.768 379.928 535.81 379.502C535.851 379.075 535.725 378.649 535.457 378.314L531.801 376.888C530.917 376.825 530.029 376.929 529.183 377.192L521.677 372.802C519.073 371.819 516.441 370.849 513.81 369.907L527.66 377.94C527.44 378.095 527.259 378.299 527.131 378.535C527.004 378.772 526.933 379.035 526.925 379.304C526.917 379.573 526.972 379.84 527.085 380.084C527.198 380.328 527.366 380.542 527.577 380.71L440.323 431.082L419.368 418.977L427.886 414.074L428.246 413.866V390.82L481.803 359.894L479.864 359.368L397.998 406.637L392.625 403.534L392.458 403.437H363.789L411.197 376.07H432.789L467.206 356.113L465.183 355.628L432.36 374.575H410.782L361.712 402.953L362.003 403.437H351.394L325.578 388.535L373.484 360.919L373.844 360.725V342.831H372.459V359.963L324.276 387.787L319.706 385.197L318.985 386.444L322.725 388.591L300.081 401.637L295.593 399.047L294.873 400.28L298.613 402.44L274.154 416.553L273.794 416.761V417.675L268.559 414.656L267.838 415.888L273.794 419.323V432.079L261.537 425.002L260.83 426.234L273.794 433.727V435.5L253.615 447.161L235.375 436.621L234.654 437.868L252.188 447.978L232.078 459.584L213.838 449.059L213.132 450.291L230.652 460.415L144.534 510.136H112.278L53.9845 543.805V522.407L342.752 355.684L343.112 355.49V342H341.727V354.728L115.99 484.916H71.2274L19.2216 514.97C19.1523 515.565 19.0692 516.161 19 516.756L71.629 486.384H113.511L52.918 521.368L52.5579 521.576V544.636L23.0857 561.699C23.2242 562.156 23.3765 562.626 23.515 563.084L112.721 511.576H144.963L232.12 461.246L242.092 467.008L217.979 480.941C217.057 480.566 216.066 480.394 215.071 480.437C214.077 480.48 213.104 480.737 212.218 481.19C210.487 482.187 210.487 483.808 212.218 484.819C213.069 485.249 213.999 485.503 214.951 485.565C215.903 485.626 216.858 485.495 217.758 485.179L223.768 488.655L205.902 498.89L205.542 499.098V517.836L107.417 574.537L107.057 574.731V602.361L84.8971 615.117C83.9969 614.801 83.0423 614.67 82.0904 614.732C81.1385 614.794 80.2089 615.048 79.3572 615.477C78.8911 615.73 78.5104 616.116 78.2631 616.585H55.2032L56.5882 617.97H78.3739C78.4915 618.209 78.651 618.425 78.8448 618.607L64.995 626.585L66.0753 627.609L80.2436 619.438C81.1428 619.761 82.0992 619.895 83.0526 619.831C84.0061 619.766 84.9358 619.505 85.7835 619.064C87.2792 618.205 87.487 616.89 86.4206 615.906L108.165 603.359L108.511 603.151V575.562L206.706 518.875L207.052 518.667V499.929L225.14 489.486L259.764 509.513L138.039 579.772L137.678 579.966V610.297L82.9304 641.93L84.1631 642.872L138.8 611.322L139.147 611.114V580.797L261.204 510.33L276.758 519.318L255.429 531.631L255.069 531.838V563.582L108.622 648.135L134.022 662.788C133.757 662.932 133.533 663.143 133.372 663.4C133.212 663.656 133.12 663.949 133.106 664.252C133.092 664.554 133.157 664.854 133.293 665.124C133.429 665.394 133.632 665.625 133.884 665.793L127.125 669.699L128.648 670.474L135.407 666.569C136.98 667.055 138.671 666.986 140.199 666.375L158.079 676.693L150.891 680.848L152.553 681.54L160.932 676.707L141.543 665.489C141.694 665.328 141.813 665.14 141.891 664.933C141.969 664.727 142.005 664.507 141.997 664.287C141.99 664.067 141.938 663.85 141.846 663.65C141.753 663.449 141.622 663.269 141.459 663.12L180.599 640.517L180.959 640.31V624.313L319.803 544.151L338.112 554.718L213.464 626.654L213.104 626.862V648.259L188.022 662.746L187.676 662.954V686.346L178.826 691.457L180.64 692.052L309.194 617.873L309.554 617.665V595.644L359.219 566.961L360.604 567.737V599.481L380.34 610.879L356.075 624.798H339.04L208.298 700.279L210.279 700.792L339.414 626.183H356.463L381.794 611.655L400.076 622.208L357.252 646.958C355.867 647.165 342.558 647.29 335.577 647.276H335.384L233.117 706.179L235.222 706.622L335.771 648.703C338.708 648.703 357.086 648.703 357.931 648.246L401.475 623.108L419.784 633.676L355.687 670.682H329.082L285.829 695.875H274.209L250.665 709.503L252.894 709.863L274.666 697.301H286.231L329.47 672.109H356.034L421.127 634.507L456.32 654.824H410.615L349.566 690.072C348.666 689.755 347.711 689.624 346.759 689.686C345.807 689.748 344.877 690.002 344.026 690.432C342.295 691.443 342.295 693.063 344.026 694.061C345 694.557 346.077 694.815 347.17 694.815C348.263 694.815 349.34 694.557 350.314 694.061C351.809 693.202 352.017 691.886 350.937 690.889L410.948 656.265H497.647L455.198 680.779H410.408L347.447 717.134H350.341L410.795 682.233H452.705L396.572 714.627L400.034 714.281L500.653 656.195H514.433L522.147 660.655L499.143 673.923C498.243 673.607 497.288 673.475 496.336 673.537C495.384 673.599 494.455 673.853 493.603 674.283C491.858 675.294 491.858 676.915 493.603 677.926C494.577 678.422 495.654 678.68 496.747 678.68C497.84 678.68 498.917 678.422 499.891 677.926C501.373 677.053 501.581 675.737 500.514 674.754L523.519 661.472L547.589 675.322L549.154 674.574L514.987 654.852L514.862 654.783L413.095 596.254C414.147 595.257 413.939 593.955 412.457 593.096C411.484 592.6 410.406 592.341 409.314 592.341C408.221 592.341 407.143 592.6 406.17 593.096C404.438 594.093 404.438 595.714 406.17 596.725C407.021 597.154 407.951 597.407 408.903 597.469C409.855 597.531 410.809 597.4 411.71 597.085L511.982 654.755H459.228L361.989 598.622V566.865L360.604 566.103L373.263 558.79L562.381 667.981C562.88 667.718 563.378 667.455 563.863 667.178L374.745 557.959L393.054 547.392L567.561 648.176C568.696 648.827 583.266 648.675 594.429 648.453C595.136 647.969 595.814 647.47 596.507 646.985C584.374 647.221 569.527 647.373 568.281 646.985L394.48 546.561L410.463 537.337C410.681 537.562 410.928 537.758 411.197 537.919C412.049 538.349 412.978 538.603 413.93 538.664C414.882 538.726 415.837 538.595 416.737 538.279L568.876 626.183L569.043 626.266H605.938L615.633 631.806L616.741 630.809L606.52 624.895L606.354 624.798H569.43L432.955 546.007H473.881L554.085 592.306C553.019 593.29 553.212 594.606 554.708 595.464C555.682 595.96 556.759 596.219 557.852 596.219C558.945 596.219 560.022 595.96 560.996 595.464C561.377 595.338 561.709 595.095 561.944 594.769C562.18 594.443 562.306 594.052 562.306 593.65C562.306 593.248 562.18 592.857 561.944 592.531C561.709 592.205 561.377 591.962 560.996 591.836C560.145 591.405 559.215 591.152 558.263 591.09C557.311 591.028 556.356 591.159 555.456 591.476L474.38 544.663L474.213 544.566H430.476L418.108 537.434C419.175 536.45 418.967 535.135 417.485 534.276C417.171 534.094 416.836 533.95 416.488 533.847L462.76 507.131L615.952 595.589V617.61L625.065 622.873C625.411 622.527 625.771 622.18 626.104 621.82L617.378 616.793V594.772L464.006 506.23L463.383 505.136L462.76 505.496L462.123 505.136L461.956 505.039H426.986L462.746 484.389L649.482 592.196L650.216 590.977L465.211 484.168C471.277 483.946 486.969 484.168 497.301 484.445H497.509L499.919 483.06L658.567 574.648C658.761 574.205 658.941 573.762 659.121 573.263L501.345 482.229L513.699 475.096L516.026 476.481L516.151 476.55L633.389 543.971C632.35 544.954 632.558 546.256 634.04 547.115C635.013 547.611 636.091 547.87 637.183 547.87C638.276 547.87 639.354 547.611 640.327 547.115C640.709 546.988 641.041 546.745 641.276 546.419C641.511 546.094 641.638 545.702 641.638 545.3C641.638 544.899 641.511 544.507 641.276 544.181C641.041 543.856 640.709 543.612 640.327 543.486C639.476 543.057 638.546 542.803 637.594 542.741C636.642 542.68 635.688 542.81 634.787 543.126L519.059 476.606H552.451H552.506ZM605.454 494.292L596.382 489.07L605.454 483.835V494.292ZM630.909 445.735V467.465L594.9 488.239L576.078 477.381L630.909 445.735ZM462.76 445.652L486.304 459.21H463.979L462.76 459.917L461.693 459.307L461.527 459.21H439.271L462.76 445.652ZM312.13 479.279L286.425 494.112V490.982L254.473 472.534L293.156 450.194V468.296L312.13 479.279ZM297.726 447.521L332.351 467.534L313.529 478.406L294.541 467.493V449.363L297.726 447.521ZM294.596 447.674V445.721L296.286 446.704L294.596 447.674ZM322.296 502.02C321.617 501.652 320.874 501.417 320.107 501.328V495.995L330.592 489.943L370.756 513.114L353.651 522.988L322.933 505.247C323.944 504.305 323.75 502.92 322.24 502.062L322.296 502.02ZM349.427 477.354L330.55 488.253L314.997 479.279L333.819 468.407L349.427 477.354ZM335.287 467.534L346.366 461.163L370.437 475.013H353.347L350.812 476.606L335.287 467.534ZM329.165 489.07L320.107 494.306V483.835L329.165 489.07ZM332.032 489.07L350.854 478.198L391.018 501.383L372.099 512.269L332.032 489.07ZM352.28 477.381L353.776 476.523H372.875L403.469 494.181L392.389 500.566L352.28 477.381ZM347.765 460.374L364.884 450.485H369.26L410.422 474.251L409.037 475.082H373.207L347.765 460.374ZM372.099 450.499H409.632L412.056 449.114L431.93 460.595L432.096 460.692H433.952L411.793 473.462L372.099 450.499ZM409.258 449.114H369.592L368.457 448.449L389.647 436.22L410.602 448.324L409.258 449.114ZM346.311 459.598L311.687 439.585L335.231 425.985C335.487 426.434 335.867 426.799 336.325 427.037C337.299 427.534 338.376 427.792 339.469 427.792C340.562 427.792 341.639 427.534 342.613 427.037C343.078 426.789 343.459 426.408 343.707 425.943H371.905L388.276 435.389L346.311 459.598ZM344.926 460.429L333.846 466.8L299.222 446.787L310.302 440.402L344.926 460.429ZM286.494 495.815L313.639 480.137L318.695 483.074V495.178L292.38 510.413L286.522 507.02L286.494 495.815ZM318.708 496.84V501.369C317.774 501.413 316.861 501.663 316.036 502.103C315.654 502.229 315.322 502.473 315.087 502.798C314.852 503.124 314.725 503.516 314.725 503.917C314.725 504.319 314.852 504.711 315.087 505.036C315.322 505.362 315.654 505.605 316.036 505.732C316.886 506.165 317.816 506.421 318.768 506.482C319.721 506.544 320.676 506.411 321.575 506.092L352.308 523.833L333.874 534.359L293.71 511.175L318.708 496.84ZM353.679 524.664L371.988 535.232L353.679 545.799L335.37 535.232L353.679 524.664ZM355.064 523.833L372.099 513.917L380.257 518.626L380.963 517.379L373.526 513.1L392.348 502.228L410.657 512.795L373.263 534.359L355.064 523.833ZM393.843 501.438L404.923 495.067L423.233 505.635L412.153 512.006L393.843 501.438ZM404.923 493.419L375.686 476.606H409.314L411.807 475.221L424.16 482.353L404.923 493.419ZM413.233 474.307L436.778 460.72H461.153L461.319 460.817L425.601 481.439L413.233 474.307ZM440.351 432.757L461.319 444.862L436.39 459.252H432.443L413.441 448.297L440.351 432.757ZM438.966 431.94L412.028 447.521L391.073 435.417L417.97 419.822L438.966 431.94ZM426.889 391.651V413.063L418.011 418.187L399.48 407.482L426.889 391.651ZM398.04 408.271L416.585 418.963L389.688 434.502L372.432 424.545L372.265 424.448H370.022L398.04 408.271ZM324.151 389.352L351.006 404.864H392.071L396.572 407.454L368.166 423.852H343.236C343.042 423.658 342.824 423.49 342.585 423.353C341.734 422.923 340.804 422.669 339.852 422.607C338.9 422.546 337.946 422.677 337.046 422.993L301.466 402.468L324.151 389.352ZM275.234 417.606L300.081 403.285L335.661 423.838C335.526 423.958 335.405 424.093 335.3 424.24L310.232 438.713L275.276 418.534L275.234 417.606ZM275.234 420.182L308.764 439.571L297.685 445.942L275.193 432.951L275.234 420.182ZM274.874 436.566L275.234 436.358V434.586L293.156 444.931V448.546L252.991 471.717L244.876 467.022L266.412 454.557L255 447.964L274.874 436.566ZM233.519 460.443L253.615 448.906L263.587 454.668L243.491 466.26L233.519 460.443ZM219.087 484.362C219.278 484.216 219.435 484.032 219.548 483.821C219.661 483.611 219.728 483.378 219.744 483.139C219.759 482.9 219.724 482.661 219.639 482.437C219.555 482.213 219.423 482.01 219.253 481.841L243.491 467.853L251.606 472.534L225.112 487.838L219.087 484.362ZM226.538 488.669L253.033 473.434L284.998 491.84V494.97L261.204 508.709L226.538 488.669ZM262.686 509.513L285.054 496.591V507.795L290.912 511.175L278.253 518.487L262.686 509.513ZM179.851 623.275L179.505 623.482V639.465L140.074 662.192C138.636 661.657 137.066 661.589 135.587 661.998L111.489 648.149L256.135 564.635L256.495 564.427V532.669L278.198 520.135L318.362 543.32L179.851 623.275ZM279.569 519.318L292.228 512.006L332.392 535.19L319.733 542.503L279.569 519.318ZM321.118 543.32L333.777 536.007L352.086 546.588L339.428 553.887L321.118 543.32ZM308.39 594.564L308.03 594.772V616.807L189.006 685.515V663.785L275.414 613.926L274.694 612.693L214.475 647.456V627.693L339.511 555.549L357.793 566.103L308.39 594.564ZM359.233 565.244L340.951 554.691L353.61 547.378L371.892 557.931L359.233 565.244ZM373.318 557.114L355.036 546.561L373.346 535.98L391.627 546.533L373.318 557.114ZM413.621 533.57C412.77 533.632 411.944 533.878 411.197 534.29C410.855 534.445 410.558 534.683 410.333 534.983C410.108 535.284 409.962 535.636 409.909 536.007L393.054 545.702C386.725 542.046 380.589 538.5 374.772 535.149L412.167 513.585L413.662 514.443L413.621 533.57ZM461.07 506.466L415.034 533.043V513.654L413.538 512.795L424.618 506.424H424.701L461.07 506.466ZM424.604 504.776L406.294 494.195L425.601 483.115L427.831 484.403L428.011 484.5H428.205C438.564 484.237 454.325 484.001 460.322 484.209L424.604 504.776ZM497.135 483.004C487.648 482.769 466.818 482.339 462.76 483.004C458.702 482.395 437.83 482.824 428.371 483.004L426.986 482.229L462.718 461.606L498.451 482.229L497.135 483.004ZM499.905 481.398L464.172 460.775L464.352 460.678H488.714L512.259 474.265L499.905 481.398ZM83.9138 587.542L51.0483 606.516H46.741C47.115 606.987 47.4751 607.472 47.8629 607.901H51.4223L84.6616 588.733L83.9138 587.542ZM118.33 549.483L38.819 595.395C39.0683 595.797 39.3314 596.198 39.5946 596.6L119.051 550.73L118.33 549.483Z" fill="white"/>
<path d="M860.736 541.865C860.736 541.865 831.713 473.858 857.55 465.775C884.449 457.346 883.262 502.255 882.221 524.144C880.035 570.915 874.435 579.613 870.25 568.189L860.736 541.865ZM852.012 594.916C859.986 604.516 862.235 594.57 847.848 549.661C841.103 528.54 826.446 485.82 803.961 501.852C782.372 517.212 833.754 572.893 833.754 572.893L852.012 594.916ZM836.606 633.892C844.205 640.113 844.351 632.26 826.3 599.831C817.827 584.644 799.901 553.904 785.224 569.111C771.129 583.779 819.159 619.434 819.159 619.434L836.606 633.892ZM819.95 680.242C827.55 686.482 827.695 678.609 809.645 646.199C801.171 631.012 783.246 600.253 768.568 615.479C754.557 630.186 802.441 665.841 802.441 665.841L819.95 680.242ZM868.043 585.892C855.885 590.269 865.545 595.031 916.323 594.896C940.141 594.896 988.775 593.898 978.407 569.495C968.476 546.051 896.149 575.907 896.149 575.907L868.043 585.892ZM854.198 617.073C841.332 619.127 849.785 625.578 899.584 634.756C922.923 639.076 970.787 647.044 965.894 621.316C961.21 596.509 883.887 612.522 883.887 612.522L854.198 617.073ZM838.709 655.147C827.758 656.606 834.753 662.232 876.621 671.064C896.253 675.211 936.539 682.987 933.041 661.041C929.71 639.921 863.921 651.864 863.921 651.864L838.709 655.147ZM826.946 690.418C816.224 692.933 823.823 697.848 866.503 702.533C886.489 704.722 927.441 708.523 921.466 687.038C915.699 666.417 851.658 684.677 851.658 684.677L826.946 690.418ZM889.695 547.625C883.449 560.528 896.42 558.57 940.515 523.088C961.168 506.441 1002.6 471.612 969.787 454.274C938.288 437.608 904.415 518.019 904.415 518.019L889.695 547.625ZM828.57 736.364C821.97 739.916 828.445 741.298 858.716 735.73C872.915 733.138 901.791 727.378 892.027 716.012C882.575 705.067 843.851 728.108 843.851 728.108L828.57 736.364Z" fill="#0B0F22"/>
<path opacity="0.3" d="M860.736 541.865C860.736 541.865 831.713 473.858 857.55 465.775C884.449 457.346 883.262 502.255 882.221 524.144C880.035 570.915 874.435 579.613 870.25 568.189L860.736 541.865ZM852.012 594.916C859.986 604.516 862.235 594.57 847.848 549.661C841.103 528.54 826.446 485.82 803.961 501.852C782.372 517.212 833.754 572.893 833.754 572.893L852.012 594.916ZM836.606 633.892C844.205 640.113 844.351 632.26 826.3 599.831C817.827 584.644 799.901 553.904 785.224 569.111C771.129 583.779 819.159 619.434 819.159 619.434L836.606 633.892ZM819.95 680.242C827.55 686.482 827.695 678.609 809.645 646.199C801.171 631.012 783.246 600.253 768.568 615.479C754.557 630.186 802.441 665.841 802.441 665.841L819.95 680.242ZM868.043 585.892C855.885 590.269 865.545 595.031 916.323 594.896C940.141 594.896 988.775 593.898 978.407 569.495C968.476 546.051 896.149 575.907 896.149 575.907L868.043 585.892ZM854.198 617.073C841.332 619.127 849.785 625.578 899.584 634.756C922.923 639.076 970.787 647.044 965.894 621.316C961.21 596.509 883.887 612.522 883.887 612.522L854.198 617.073ZM838.709 655.147C827.758 656.606 834.753 662.232 876.621 671.064C896.253 675.211 936.539 682.987 933.041 661.041C929.71 639.921 863.921 651.864 863.921 651.864L838.709 655.147ZM826.946 690.418C816.224 692.933 823.823 697.848 866.503 702.533C886.489 704.722 927.441 708.523 921.466 687.038C915.699 666.417 851.658 684.677 851.658 684.677L826.946 690.418ZM889.695 547.625C883.449 560.528 896.42 558.57 940.515 523.088C961.168 506.441 1002.6 471.612 969.787 454.274C938.288 437.608 904.415 518.019 904.415 518.019L889.695 547.625ZM828.57 736.364C821.97 739.916 828.445 741.298 858.716 735.73C872.915 733.138 901.791 727.378 892.027 716.012C882.575 705.067 843.851 728.108 843.851 728.108L828.57 736.364Z" fill="#1B2037"/>
<path d="M873.54 573.527L868.48 495.9ZM857.529 599.14L825.551 532.381ZM940.057 579.729L863.421 589.866ZM840.957 635.121L799.464 586.026ZM848.244 620.068L905.414 622.718ZM834.711 657.72L878.432 661.714ZM824.156 681.643L802.441 651.518ZM821.658 692.28L873.061 692.722ZM811.248 781.216C811.593 781.191 811.912 781.042 812.139 780.802C812.365 780.561 812.479 780.247 812.456 779.929C809.187 734.655 828.174 660.504 858.633 599.639C878.099 560.739 954.402 484.284 955.214 483.516C955.459 483.289 955.597 482.982 955.597 482.662C955.597 482.341 955.459 482.034 955.214 481.807C955.094 481.696 954.951 481.607 954.794 481.547C954.637 481.487 954.468 481.456 954.298 481.456C954.128 481.456 953.959 481.487 953.802 481.547C953.644 481.607 953.502 481.696 953.382 481.807C952.611 482.575 875.996 559.319 856.364 598.564C825.343 660.907 806.605 733.714 809.936 780.083C809.962 780.389 810.111 780.674 810.354 780.884C810.597 781.094 810.916 781.212 811.248 781.216ZM873.519 574.717C873.863 574.697 874.185 574.553 874.415 574.316C874.645 574.079 874.764 573.768 874.747 573.45L869.771 495.785C869.763 495.627 869.721 495.472 869.648 495.329C869.574 495.186 869.47 495.058 869.342 494.953C869.214 494.847 869.065 494.766 868.902 494.715C868.74 494.663 868.568 494.642 868.397 494.652C868.053 494.672 867.731 494.816 867.501 495.053C867.271 495.291 867.152 495.602 867.169 495.919L872.228 573.546C872.244 573.852 872.387 574.14 872.627 574.351C872.868 574.562 873.187 574.679 873.519 574.679V574.717ZM857.988 600.234C858.299 600.104 858.544 599.866 858.668 599.572C858.793 599.278 858.788 598.951 858.654 598.66L826.654 531.901C826.516 531.61 826.259 531.383 825.939 531.267C825.619 531.152 825.262 531.159 824.947 531.286C824.632 531.414 824.385 531.651 824.261 531.946C824.136 532.242 824.143 532.57 824.281 532.861L856.26 599.62C856.36 599.834 856.525 600.017 856.736 600.147C856.946 600.276 857.193 600.346 857.446 600.35C857.662 600.36 857.876 600.32 858.071 600.234H857.988ZM863.525 591.018L940.12 580.919C940.305 580.915 940.487 580.876 940.654 580.803C940.821 580.73 940.97 580.625 941.09 580.495C941.21 580.366 941.299 580.214 941.351 580.05C941.403 579.886 941.417 579.714 941.392 579.545C941.367 579.376 941.303 579.214 941.206 579.069C941.108 578.925 940.978 578.801 940.824 578.705C940.67 578.61 940.497 578.546 940.314 578.517C940.132 578.489 939.945 578.496 939.766 578.538L863.172 588.637C862.829 588.658 862.51 588.803 862.283 589.04C862.057 589.278 861.942 589.589 861.964 589.905C861.986 590.22 862.143 590.515 862.401 590.724C862.659 590.933 862.996 591.039 863.338 591.018H863.525ZM841.686 636.081C841.958 635.884 842.135 635.596 842.177 635.28C842.22 634.963 842.126 634.644 841.915 634.392L800.401 585.201C800.189 584.946 799.875 584.78 799.53 584.738C799.184 584.697 798.835 584.784 798.559 584.98C798.283 585.176 798.102 585.465 798.057 585.784C798.012 586.102 798.107 586.424 798.319 586.679L839.916 635.947C840.037 636.09 840.192 636.206 840.369 636.286C840.545 636.366 840.74 636.408 840.936 636.408C841.247 636.393 841.542 636.278 841.769 636.081H841.686ZM906.559 622.775C906.57 622.458 906.446 622.149 906.212 621.915C905.978 621.682 905.654 621.542 905.31 621.527L848.244 618.859C847.923 618.879 847.622 619.007 847.397 619.219C847.172 619.431 847.039 619.711 847.024 620.007C847.009 620.303 847.112 620.595 847.313 620.825C847.515 621.056 847.802 621.21 848.119 621.259L905.289 623.927C905.634 623.938 905.969 623.823 906.222 623.607C906.475 623.392 906.626 623.093 906.642 622.775H906.559ZM879.64 661.829C879.66 661.671 879.645 661.511 879.597 661.358C879.549 661.205 879.469 661.063 879.36 660.939C879.251 660.816 879.117 660.714 878.965 660.639C878.812 660.564 878.646 660.518 878.474 660.504L834.753 656.529C834.583 656.514 834.412 656.529 834.249 656.574C834.086 656.62 833.934 656.695 833.802 656.795C833.671 656.895 833.562 657.018 833.482 657.157C833.402 657.296 833.353 657.448 833.337 657.605C833.308 657.92 833.414 658.233 833.632 658.477C833.85 658.721 834.162 658.876 834.503 658.91L878.224 662.904H878.349C878.685 662.925 879.016 662.825 879.273 662.624C879.53 662.423 879.691 662.138 879.723 661.829H879.64ZM824.781 682.642C825.07 682.466 825.271 682.191 825.342 681.878C825.412 681.565 825.345 681.239 825.155 680.971L803.545 650.846C803.347 650.587 803.048 650.408 802.711 650.347C802.373 650.286 802.023 650.348 801.734 650.52C801.445 650.696 801.243 650.971 801.173 651.284C801.102 651.597 801.169 651.923 801.359 652.19L822.969 682.315C823.093 682.48 823.258 682.615 823.45 682.709C823.642 682.802 823.856 682.852 824.073 682.853C824.355 682.867 824.634 682.793 824.864 682.642H824.781ZM874.372 692.722C874.367 692.406 874.23 692.104 873.99 691.879C873.749 691.653 873.424 691.522 873.082 691.512L821.679 691.071C821.336 691.071 821.008 691.196 820.766 691.419C820.524 691.643 820.388 691.945 820.388 692.261C820.382 692.42 820.411 692.578 820.474 692.726C820.537 692.873 820.631 693.008 820.752 693.121C820.873 693.234 821.017 693.324 821.176 693.384C821.336 693.444 821.506 693.473 821.679 693.471L873.082 693.912C873.257 693.92 873.433 693.895 873.598 693.839C873.763 693.783 873.914 693.697 874.042 693.586C874.17 693.475 874.273 693.341 874.344 693.193C874.415 693.044 874.453 692.884 874.456 692.722H874.372ZM805.398 763.609C805.502 763.398 814.267 741.126 840.624 735.807C840.964 735.738 841.26 735.548 841.447 735.278C841.634 735.008 841.698 734.68 841.624 734.367C841.539 734.06 841.33 733.795 841.039 733.627C840.748 733.459 840.398 733.401 840.062 733.465C812.268 739.071 803.045 762.592 802.941 762.822C802.834 763.125 802.859 763.455 803.01 763.742C803.162 764.028 803.428 764.249 803.753 764.358H804.169C804.446 764.38 804.724 764.319 804.96 764.184C805.196 764.049 805.379 763.848 805.481 763.609H805.398ZM811.248 781.216C811.593 781.191 811.912 781.042 812.139 780.802C812.365 780.561 812.479 780.247 812.456 779.929C809.187 734.655 828.174 660.504 858.633 599.639C878.099 560.739 954.402 484.284 955.214 483.516C955.459 483.289 955.597 482.982 955.597 482.662C955.597 482.341 955.459 482.034 955.214 481.807C955.094 481.696 954.951 481.607 954.794 481.547C954.637 481.487 954.468 481.456 954.298 481.456C954.128 481.456 953.959 481.487 953.802 481.547C953.644 481.607 953.502 481.696 953.382 481.807C952.611 482.575 875.996 559.319 856.364 598.564C825.343 660.907 806.605 733.714 809.936 780.083C809.962 780.389 810.111 780.674 810.354 780.884C810.597 781.094 810.916 781.212 811.248 781.216ZM873.519 574.717C873.863 574.697 874.185 574.553 874.415 574.316C874.645 574.079 874.764 573.768 874.747 573.45L869.771 495.785C869.763 495.627 869.721 495.472 869.648 495.329C869.574 495.186 869.47 495.058 869.342 494.953C869.214 494.847 869.065 494.766 868.902 494.715C868.74 494.663 868.568 494.642 868.397 494.652C868.053 494.672 867.731 494.816 867.501 495.053C867.271 495.291 867.152 495.602 867.169 495.919L872.228 573.546C872.244 573.852 872.387 574.14 872.627 574.351C872.868 574.562 873.187 574.679 873.519 574.679V574.717ZM857.988 600.234C858.299 600.104 858.544 599.866 858.668 599.572C858.793 599.278 858.788 598.951 858.654 598.66L826.654 531.901C826.516 531.61 826.259 531.383 825.939 531.267C825.619 531.152 825.262 531.159 824.947 531.286C824.632 531.414 824.385 531.651 824.261 531.946C824.136 532.242 824.143 532.57 824.281 532.861L856.26 599.62C856.36 599.834 856.525 600.017 856.736 600.147C856.946 600.276 857.193 600.346 857.446 600.35C857.662 600.36 857.876 600.32 858.071 600.234H857.988ZM863.525 591.018L940.12 580.919C940.305 580.915 940.487 580.876 940.654 580.803C940.821 580.73 940.97 580.625 941.09 580.495C941.21 580.366 941.299 580.214 941.351 580.05C941.403 579.886 941.417 579.714 941.392 579.545C941.367 579.376 941.303 579.214 941.206 579.069C941.108 578.925 940.978 578.801 940.824 578.705C940.67 578.61 940.497 578.546 940.314 578.517C940.132 578.489 939.945 578.496 939.766 578.538L863.172 588.637C862.829 588.658 862.51 588.803 862.283 589.04C862.057 589.278 861.942 589.589 861.964 589.905C861.986 590.22 862.143 590.515 862.401 590.724C862.659 590.933 862.996 591.039 863.338 591.018H863.525ZM841.686 636.081C841.958 635.884 842.135 635.596 842.177 635.28C842.22 634.963 842.126 634.644 841.915 634.392L800.401 585.201C800.296 585.075 800.165 584.969 800.015 584.889C799.866 584.81 799.701 584.759 799.53 584.738C799.358 584.718 799.185 584.729 799.018 584.77C798.851 584.811 798.695 584.883 798.559 584.98C798.422 585.077 798.307 585.198 798.221 585.336C798.135 585.474 798.08 585.626 798.057 585.784C798.035 585.941 798.047 586.102 798.092 586.255C798.137 586.409 798.214 586.553 798.319 586.679L839.916 635.947C840.037 636.09 840.192 636.206 840.369 636.286C840.545 636.366 840.74 636.408 840.936 636.408C841.247 636.393 841.542 636.278 841.769 636.081H841.686ZM906.559 622.775C906.57 622.458 906.446 622.149 906.212 621.915C905.978 621.682 905.654 621.542 905.31 621.527L848.244 618.859C847.923 618.879 847.622 619.007 847.397 619.219C847.172 619.431 847.039 619.711 847.024 620.007C847.009 620.303 847.112 620.595 847.313 620.825C847.515 621.056 847.802 621.21 848.119 621.259L905.289 623.927C905.634 623.938 905.969 623.823 906.222 623.607C906.475 623.392 906.626 623.093 906.642 622.775H906.559ZM879.64 661.829C879.66 661.671 879.645 661.511 879.597 661.358C879.549 661.205 879.469 661.063 879.36 660.939C879.251 660.816 879.117 660.714 878.965 660.639C878.812 660.564 878.646 660.518 878.474 660.504L834.753 656.529C834.583 656.514 834.412 656.529 834.249 656.574C834.086 656.62 833.934 656.695 833.802 656.795C833.671 656.895 833.562 657.018 833.482 657.157C833.402 657.296 833.353 657.448 833.337 657.605C833.308 657.92 833.414 658.233 833.632 658.477C833.85 658.721 834.162 658.876 834.503 658.91L878.224 662.904H878.349C878.685 662.925 879.016 662.825 879.273 662.624C879.53 662.423 879.691 662.138 879.723 661.829H879.64ZM824.781 682.642C825.07 682.466 825.271 682.191 825.342 681.878C825.412 681.565 825.345 681.239 825.155 680.971L803.545 650.846C803.347 650.587 803.048 650.408 802.711 650.347C802.373 650.286 802.023 650.348 801.734 650.52C801.445 650.696 801.243 650.971 801.173 651.284C801.102 651.597 801.169 651.923 801.359 652.19L822.969 682.315C823.093 682.48 823.258 682.615 823.45 682.709C823.642 682.802 823.856 682.852 824.073 682.853C824.355 682.867 824.634 682.793 824.864 682.642H824.781ZM874.372 692.722C874.367 692.406 874.23 692.104 873.99 691.879C873.749 691.653 873.424 691.522 873.082 691.512L821.679 691.071C821.336 691.071 821.008 691.196 820.766 691.419C820.524 691.643 820.388 691.945 820.388 692.261C820.382 692.42 820.411 692.578 820.474 692.726C820.537 692.873 820.631 693.008 820.752 693.121C820.873 693.234 821.017 693.324 821.176 693.384C821.336 693.444 821.506 693.473 821.679 693.471L873.082 693.912C873.257 693.92 873.433 693.895 873.598 693.839C873.763 693.783 873.914 693.697 874.042 693.586C874.17 693.475 874.273 693.341 874.344 693.193C874.415 693.044 874.453 692.884 874.456 692.722H874.372ZM805.398 763.609C805.502 763.398 814.267 741.126 840.624 735.807C840.964 735.738 841.26 735.548 841.447 735.278C841.634 735.008 841.698 734.68 841.624 734.367C841.539 734.06 841.33 733.795 841.039 733.627C840.748 733.459 840.398 733.401 840.062 733.465C812.268 739.071 803.045 762.592 802.941 762.822C802.834 763.125 802.859 763.455 803.01 763.742C803.162 764.028 803.428 764.249 803.753 764.358H804.169C804.446 764.38 804.724 764.319 804.96 764.184C805.196 764.049 805.379 763.848 805.481 763.609H805.398Z" fill="#0B0F22"/>
<path opacity="0.2" d="M873.54 573.527L868.48 495.9ZM857.529 599.14L825.551 532.381ZM940.057 579.729L863.421 589.866ZM840.957 635.121L799.464 586.026ZM848.244 620.068L905.414 622.718ZM834.711 657.72L878.432 661.714ZM824.156 681.643L802.441 651.518ZM821.658 692.28L873.061 692.722ZM811.248 781.216C811.593 781.191 811.912 781.042 812.139 780.802C812.365 780.561 812.479 780.247 812.456 779.929C809.187 734.655 828.174 660.504 858.633 599.639C878.099 560.739 954.402 484.284 955.214 483.516C955.459 483.289 955.597 482.982 955.597 482.662C955.597 482.341 955.459 482.034 955.214 481.807C955.094 481.696 954.951 481.607 954.794 481.547C954.637 481.487 954.468 481.456 954.298 481.456C954.128 481.456 953.959 481.487 953.802 481.547C953.644 481.607 953.502 481.696 953.382 481.807C952.611 482.575 875.996 559.319 856.364 598.564C825.343 660.907 806.605 733.714 809.936 780.083C809.962 780.389 810.111 780.674 810.354 780.884C810.597 781.094 810.916 781.212 811.248 781.216ZM873.519 574.717C873.863 574.697 874.185 574.553 874.415 574.316C874.645 574.079 874.764 573.768 874.747 573.45L869.771 495.785C869.763 495.627 869.721 495.472 869.648 495.329C869.574 495.186 869.47 495.058 869.342 494.953C869.214 494.847 869.065 494.766 868.902 494.715C868.74 494.663 868.568 494.642 868.397 494.652C868.053 494.672 867.731 494.816 867.501 495.053C867.271 495.291 867.152 495.602 867.169 495.919L872.228 573.546C872.244 573.852 872.387 574.14 872.627 574.351C872.868 574.562 873.187 574.679 873.519 574.679V574.717ZM857.988 600.234C858.299 600.104 858.544 599.866 858.668 599.572C858.793 599.278 858.788 598.951 858.654 598.66L826.654 531.901C826.516 531.61 826.259 531.383 825.939 531.267C825.619 531.152 825.262 531.159 824.947 531.286C824.632 531.414 824.385 531.651 824.261 531.946C824.136 532.242 824.143 532.57 824.281 532.861L856.26 599.62C856.36 599.834 856.525 600.017 856.736 600.147C856.946 600.276 857.193 600.346 857.446 600.35C857.662 600.36 857.876 600.32 858.071 600.234H857.988ZM863.525 591.018L940.12 580.919C940.305 580.915 940.487 580.876 940.654 580.803C940.821 580.73 940.97 580.625 941.09 580.495C941.21 580.366 941.299 580.214 941.351 580.05C941.403 579.886 941.417 579.714 941.392 579.545C941.367 579.376 941.303 579.214 941.206 579.069C941.108 578.925 940.978 578.801 940.824 578.705C940.67 578.61 940.497 578.546 940.314 578.517C940.132 578.489 939.945 578.496 939.766 578.538L863.172 588.637C862.829 588.658 862.51 588.803 862.283 589.04C862.057 589.278 861.942 589.589 861.964 589.905C861.986 590.22 862.143 590.515 862.401 590.724C862.659 590.933 862.996 591.039 863.338 591.018H863.525ZM841.686 636.081C841.958 635.884 842.135 635.596 842.177 635.28C842.22 634.963 842.126 634.644 841.915 634.392L800.401 585.201C800.189 584.946 799.875 584.78 799.53 584.738C799.184 584.697 798.835 584.784 798.559 584.98C798.283 585.176 798.102 585.465 798.057 585.784C798.012 586.102 798.107 586.424 798.319 586.679L839.916 635.947C840.037 636.09 840.192 636.206 840.369 636.286C840.545 636.366 840.74 636.408 840.936 636.408C841.247 636.393 841.542 636.278 841.769 636.081H841.686ZM906.559 622.775C906.57 622.458 906.446 622.149 906.212 621.915C905.978 621.682 905.654 621.542 905.31 621.527L848.244 618.859C847.923 618.879 847.622 619.007 847.397 619.219C847.172 619.431 847.039 619.711 847.024 620.007C847.009 620.303 847.112 620.595 847.313 620.825C847.515 621.056 847.802 621.21 848.119 621.259L905.289 623.927C905.634 623.938 905.969 623.823 906.222 623.607C906.475 623.392 906.626 623.093 906.642 622.775H906.559ZM879.64 661.829C879.66 661.671 879.645 661.511 879.597 661.358C879.549 661.205 879.469 661.063 879.36 660.939C879.251 660.816 879.117 660.714 878.965 660.639C878.812 660.564 878.646 660.518 878.474 660.504L834.753 656.529C834.583 656.514 834.412 656.529 834.249 656.574C834.086 656.62 833.934 656.695 833.802 656.795C833.671 656.895 833.562 657.018 833.482 657.157C833.402 657.296 833.353 657.448 833.337 657.605C833.308 657.92 833.414 658.233 833.632 658.477C833.85 658.721 834.162 658.876 834.503 658.91L878.224 662.904H878.349C878.685 662.925 879.016 662.825 879.273 662.624C879.53 662.423 879.691 662.138 879.723 661.829H879.64ZM824.781 682.642C825.07 682.466 825.271 682.191 825.342 681.878C825.412 681.565 825.345 681.239 825.155 680.971L803.545 650.846C803.347 650.587 803.048 650.408 802.711 650.347C802.373 650.286 802.023 650.348 801.734 650.52C801.445 650.696 801.243 650.971 801.173 651.284C801.102 651.597 801.169 651.923 801.359 652.19L822.969 682.315C823.093 682.48 823.258 682.615 823.45 682.709C823.642 682.802 823.856 682.852 824.073 682.853C824.355 682.867 824.634 682.793 824.864 682.642H824.781ZM874.372 692.722C874.367 692.406 874.23 692.104 873.99 691.879C873.749 691.653 873.424 691.522 873.082 691.512L821.679 691.071C821.336 691.071 821.008 691.196 820.766 691.419C820.524 691.643 820.388 691.945 820.388 692.261C820.382 692.42 820.411 692.578 820.474 692.726C820.537 692.873 820.631 693.008 820.752 693.121C820.873 693.234 821.017 693.324 821.176 693.384C821.336 693.444 821.506 693.473 821.679 693.471L873.082 693.912C873.257 693.92 873.433 693.895 873.598 693.839C873.763 693.783 873.914 693.697 874.042 693.586C874.17 693.475 874.273 693.341 874.344 693.193C874.415 693.044 874.453 692.884 874.456 692.722H874.372ZM805.398 763.609C805.502 763.398 814.267 741.126 840.624 735.807C840.964 735.738 841.26 735.548 841.447 735.278C841.634 735.008 841.698 734.68 841.624 734.367C841.539 734.06 841.33 733.795 841.039 733.627C840.748 733.459 840.398 733.401 840.062 733.465C812.268 739.071 803.045 762.592 802.941 762.822C802.834 763.125 802.859 763.455 803.01 763.742C803.162 764.028 803.428 764.249 803.753 764.358H804.169C804.446 764.38 804.724 764.319 804.96 764.184C805.196 764.049 805.379 763.848 805.481 763.609H805.398ZM811.248 781.216C811.593 781.191 811.912 781.042 812.139 780.802C812.365 780.561 812.479 780.247 812.456 779.929C809.187 734.655 828.174 660.504 858.633 599.639C878.099 560.739 954.402 484.284 955.214 483.516C955.459 483.289 955.597 482.982 955.597 482.662C955.597 482.341 955.459 482.034 955.214 481.807C955.094 481.696 954.951 481.607 954.794 481.547C954.637 481.487 954.468 481.456 954.298 481.456C954.128 481.456 953.959 481.487 953.802 481.547C953.644 481.607 953.502 481.696 953.382 481.807C952.611 482.575 875.996 559.319 856.364 598.564C825.343 660.907 806.605 733.714 809.936 780.083C809.962 780.389 810.111 780.674 810.354 780.884C810.597 781.094 810.916 781.212 811.248 781.216ZM873.519 574.717C873.863 574.697 874.185 574.553 874.415 574.316C874.645 574.079 874.764 573.768 874.747 573.45L869.771 495.785C869.763 495.627 869.721 495.472 869.648 495.329C869.574 495.186 869.47 495.058 869.342 494.953C869.214 494.847 869.065 494.766 868.902 494.715C868.74 494.663 868.568 494.642 868.397 494.652C868.053 494.672 867.731 494.816 867.501 495.053C867.271 495.291 867.152 495.602 867.169 495.919L872.228 573.546C872.244 573.852 872.387 574.14 872.627 574.351C872.868 574.562 873.187 574.679 873.519 574.679V574.717ZM857.988 600.234C858.299 600.104 858.544 599.866 858.668 599.572C858.793 599.278 858.788 598.951 858.654 598.66L826.654 531.901C826.516 531.61 826.259 531.383 825.939 531.267C825.619 531.152 825.262 531.159 824.947 531.286C824.632 531.414 824.385 531.651 824.261 531.946C824.136 532.242 824.143 532.57 824.281 532.861L856.26 599.62C856.36 599.834 856.525 600.017 856.736 600.147C856.946 600.276 857.193 600.346 857.446 600.35C857.662 600.36 857.876 600.32 858.071 600.234H857.988ZM863.525 591.018L940.12 580.919C940.305 580.915 940.487 580.876 940.654 580.803C940.821 580.73 940.97 580.625 941.09 580.495C941.21 580.366 941.299 580.214 941.351 580.05C941.403 579.886 941.417 579.714 941.392 579.545C941.367 579.376 941.303 579.214 941.206 579.069C941.108 578.925 940.978 578.801 940.824 578.705C940.67 578.61 940.497 578.546 940.314 578.517C940.132 578.489 939.945 578.496 939.766 578.538L863.172 588.637C862.829 588.658 862.51 588.803 862.283 589.04C862.057 589.278 861.942 589.589 861.964 589.905C861.986 590.22 862.143 590.515 862.401 590.724C862.659 590.933 862.996 591.039 863.338 591.018H863.525ZM841.686 636.081C841.958 635.884 842.135 635.596 842.177 635.28C842.22 634.963 842.126 634.644 841.915 634.392L800.401 585.201C800.296 585.075 800.165 584.969 800.015 584.889C799.866 584.81 799.701 584.759 799.53 584.738C799.358 584.718 799.185 584.729 799.018 584.77C798.851 584.811 798.695 584.883 798.559 584.98C798.422 585.077 798.307 585.198 798.221 585.336C798.135 585.474 798.08 585.626 798.057 585.784C798.035 585.941 798.047 586.102 798.092 586.255C798.137 586.409 798.214 586.553 798.319 586.679L839.916 635.947C840.037 636.09 840.192 636.206 840.369 636.286C840.545 636.366 840.74 636.408 840.936 636.408C841.247 636.393 841.542 636.278 841.769 636.081H841.686ZM906.559 622.775C906.57 622.458 906.446 622.149 906.212 621.915C905.978 621.682 905.654 621.542 905.31 621.527L848.244 618.859C847.923 618.879 847.622 619.007 847.397 619.219C847.172 619.431 847.039 619.711 847.024 620.007C847.009 620.303 847.112 620.595 847.313 620.825C847.515 621.056 847.802 621.21 848.119 621.259L905.289 623.927C905.634 623.938 905.969 623.823 906.222 623.607C906.475 623.392 906.626 623.093 906.642 622.775H906.559ZM879.64 661.829C879.66 661.671 879.645 661.511 879.597 661.358C879.549 661.205 879.469 661.063 879.36 660.939C879.251 660.816 879.117 660.714 878.965 660.639C878.812 660.564 878.646 660.518 878.474 660.504L834.753 656.529C834.583 656.514 834.412 656.529 834.249 656.574C834.086 656.62 833.934 656.695 833.802 656.795C833.671 656.895 833.562 657.018 833.482 657.157C833.402 657.296 833.353 657.448 833.337 657.605C833.308 657.92 833.414 658.233 833.632 658.477C833.85 658.721 834.162 658.876 834.503 658.91L878.224 662.904H878.349C878.685 662.925 879.016 662.825 879.273 662.624C879.53 662.423 879.691 662.138 879.723 661.829H879.64ZM824.781 682.642C825.07 682.466 825.271 682.191 825.342 681.878C825.412 681.565 825.345 681.239 825.155 680.971L803.545 650.846C803.347 650.587 803.048 650.408 802.711 650.347C802.373 650.286 802.023 650.348 801.734 650.52C801.445 650.696 801.243 650.971 801.173 651.284C801.102 651.597 801.169 651.923 801.359 652.19L822.969 682.315C823.093 682.48 823.258 682.615 823.45 682.709C823.642 682.802 823.856 682.852 824.073 682.853C824.355 682.867 824.634 682.793 824.864 682.642H824.781ZM874.372 692.722C874.367 692.406 874.23 692.104 873.99 691.879C873.749 691.653 873.424 691.522 873.082 691.512L821.679 691.071C821.336 691.071 821.008 691.196 820.766 691.419C820.524 691.643 820.388 691.945 820.388 692.261C820.382 692.42 820.411 692.578 820.474 692.726C820.537 692.873 820.631 693.008 820.752 693.121C820.873 693.234 821.017 693.324 821.176 693.384C821.336 693.444 821.506 693.473 821.679 693.471L873.082 693.912C873.257 693.92 873.433 693.895 873.598 693.839C873.763 693.783 873.914 693.697 874.042 693.586C874.17 693.475 874.273 693.341 874.344 693.193C874.415 693.044 874.453 692.884 874.456 692.722H874.372ZM805.398 763.609C805.502 763.398 814.267 741.126 840.624 735.807C840.964 735.738 841.26 735.548 841.447 735.278C841.634 735.008 841.698 734.68 841.624 734.367C841.539 734.06 841.33 733.795 841.039 733.627C840.748 733.459 840.398 733.401 840.062 733.465C812.268 739.071 803.045 762.592 802.941 762.822C802.834 763.125 802.859 763.455 803.01 763.742C803.162 764.028 803.428 764.249 803.753 764.358H804.169C804.446 764.38 804.724 764.319 804.96 764.184C805.196 764.049 805.379 763.848 805.481 763.609H805.398Z" fill="black"/>
<path opacity="0.2" d="M636.908 327.478L609.154 344.691C607.203 345.929 608.65 347.633 611.333 347.596L731.828 347.217L736.891 344.102L719.193 280.778C718.632 279.127 715.037 279.011 713.458 280.081L685.649 297.289L507.974 171.954C484.414 178.99 462.528 188.432 443.637 200.146C416.487 216.982 399.042 236.37 391.184 256.184L636.908 327.478Z" fill="#252C4E"/>
<path opacity="0.15" d="M715.63 262.056C724.898 261.465 732.872 266.159 735.495 273.733L735.63 274.129L753.496 338.067C754.166 340.508 754.245 343.061 753.729 345.544C753.212 348.028 752.112 350.38 750.507 352.434C747.044 356.813 741.504 359.46 734.903 359.881C734.132 359.931 733.325 359.982 732.494 359.942L612.119 360.331C603.503 360.426 596.071 355.68 593.683 348.504C592.589 345.123 592.708 341.495 594.021 338.16C595.334 334.826 597.772 331.963 600.969 330L628.863 312.695L677.576 282.498L705.218 265.386C708.313 263.434 711.909 262.284 715.63 262.056Z" fill="#252C4E"/>
<path opacity="0.15" d="M716.113 269.615C721.608 269.264 726.273 271.884 727.765 276.141L727.832 276.339L745.62 339.919C746.013 341.291 746.07 342.731 745.786 344.132C745.502 345.533 744.885 346.861 743.979 348.018C742.554 349.796 739.747 352.033 734.424 352.373C733.844 352.41 733.236 352.448 732.606 352.421L612.166 352.797C607.108 352.858 602.769 350.209 601.44 346.221C600.844 344.376 600.919 342.395 601.654 340.581C602.388 338.767 603.741 337.221 605.506 336.179L633.312 318.921L682.025 288.733L709.72 271.583C711.625 270.406 713.835 269.726 716.113 269.615Z" fill="#252C4E"/>
<path opacity="0.4" d="M408.329 229.099L599.531 308.605L636.69 324.06L608.936 341.281C607.027 342.457 608.33 344.196 611.116 344.187L656.957 344.035C657.433 344.554 658.025 344.971 658.692 345.257C660.374 345.919 662.204 346.202 664.035 346.086C665.865 345.969 667.645 345.454 669.229 344.584C672.031 342.845 671.871 340.326 668.869 338.949C667.187 338.287 665.357 338.003 663.527 338.12C661.696 338.237 659.917 338.751 658.333 339.621C658.096 339.771 657.896 339.919 657.705 340.066L620.02 340.194L647.31 323.273L604.559 305.501L611.32 301.308L658.727 322.258L639.327 334.282C638.6 334.733 639.098 335.401 640.163 335.4L712.649 335.168L722.963 339.847L695.934 339.886C695.482 339.442 694.947 339.079 694.354 338.815C692.672 338.153 690.842 337.869 689.011 337.986C687.181 338.103 685.401 338.617 683.817 339.487C681.006 341.227 681.167 343.755 684.177 345.123C685.859 345.785 687.689 346.069 689.52 345.952C691.35 345.835 693.129 345.32 694.714 344.45C695.002 344.274 695.273 344.073 695.522 343.851L726.554 343.759C727.03 344.288 727.626 344.713 728.3 345.005C729.98 345.667 731.809 345.951 733.638 345.834C735.467 345.717 737.245 345.203 738.827 344.333C741.638 342.585 741.478 340.066 738.468 338.698C736.166 337.778 733.595 337.586 731.149 338.153L716.044 331.299L715.809 331.188L693.963 331.258L692.11 324.63C692.696 324.421 693.259 324.159 693.79 323.848C696.602 322.109 696.441 319.589 693.43 318.212C691.748 317.551 689.918 317.267 688.088 317.384C686.257 317.5 684.478 318.015 682.894 318.885C680.083 320.633 680.243 323.153 683.253 324.521C684.062 324.878 684.924 325.121 685.812 325.243L687.499 331.274L653.382 331.386L669.205 321.521L612.769 296.62L619.244 292.664L660.504 311.443C659.909 312.821 660.638 314.267 662.664 315.192C664.346 315.854 666.176 316.138 668.007 316.021C669.837 315.904 671.617 315.39 673.201 314.52C676.012 312.78 675.851 310.252 672.841 308.884C670.538 307.969 667.969 307.778 665.523 308.339L616.517 286.024L622.955 282.038L630.175 285.33L685.691 311.361L701.577 301.484L706.288 318.244L721.705 325.271C720.887 326.731 721.518 328.336 723.705 329.36C725.387 330.022 727.217 330.306 729.047 330.189C730.878 330.072 732.657 329.558 734.241 328.687C737.044 326.948 736.883 324.429 733.882 323.052C733.13 322.727 732.334 322.495 731.516 322.359L718.958 277.395C718.555 275.928 715.133 275.514 713.223 276.69L685.431 293.871L650.995 276.723L469.619 186.26C460.645 190.359 451.966 194.998 443.637 200.146C429.081 209.162 417.322 218.928 408.329 229.099ZM642.724 278.229L645.939 279.82L685.548 299.564L712.856 282.641L723.727 321.583L713.412 316.886L708.69 299.959C708.89 299.869 709.084 299.77 709.272 299.661C712.083 297.913 711.922 295.393 708.912 294.025C707.232 293.363 705.403 293.079 703.574 293.196C701.745 293.313 699.967 293.827 698.385 294.697C696.475 295.881 695.934 297.383 696.729 298.715L685.423 305.728L635.885 282.494L642.724 278.229ZM607.795 299.72L611.327 301.274L607.786 299.721L607.795 299.72Z" fill="black"/>
<path d="M604.549 308.782L599.747 311.998L636.907 327.454L609.152 344.666C607.243 345.851 608.546 347.581 611.332 347.571L663.72 347.424L664.296 343.466L620.238 343.604L647.528 326.683L604.549 308.782Z" fill="#252C4E"/>
<path d="M732.339 343.238L689.746 343.367L689.17 347.325L731.763 347.196L732.339 343.238Z" fill="#252C4E"/>
<path d="M645.951 283.151L651.222 280.141L685.648 297.289L713.43 280.083C715.34 278.899 718.763 279.321 719.165 280.78L732.869 329.863L725.588 330.775L713.1 286.033L685.792 302.956L645.951 283.151Z" fill="#252C4E"/>
<path d="M612.507 299.799L607.546 302.949L658.944 325.668L639.545 337.692C638.818 338.143 639.316 338.811 640.38 338.802L712.867 338.578L731.837 347.217C735.831 347.029 737.503 346.408 736.864 344.104L716.018 334.607L653.554 334.799L669.424 324.965L612.507 299.799Z" fill="#252C4E"/>
<path d="M716.262 334.709L710.008 338.583L640.408 338.809C639.343 338.817 638.846 338.149 639.572 337.698L658.972 325.674L607.574 302.955L612.535 299.805L669.424 324.965L653.545 334.799L716.009 334.607L716.262 334.709Z" fill="#252C4E"/>
<path d="M669.078 342.367C667.398 341.706 665.569 341.422 663.74 341.538C661.911 341.655 660.133 342.169 658.551 343.039C655.739 344.779 655.9 347.307 658.91 348.675C660.591 349.337 662.419 349.621 664.248 349.504C666.077 349.387 667.855 348.873 669.438 348.003C672.249 346.264 672.088 343.735 669.078 342.367Z" fill="#252C4E"/>
<path d="M694.538 342.278C692.856 341.616 691.026 341.332 689.196 341.449C687.365 341.565 685.586 342.08 684.002 342.95C681.19 344.69 681.351 347.209 684.361 348.586C686.043 349.247 687.874 349.531 689.704 349.415C691.535 349.298 693.314 348.783 694.898 347.913C697.709 346.165 697.548 343.646 694.538 342.278Z" fill="#252C4E"/>
<path d="M734.061 326.439C732.379 325.777 730.549 325.493 728.719 325.61C726.888 325.727 725.109 326.241 723.525 327.111C720.713 328.851 720.874 331.379 723.884 332.747C725.566 333.409 727.397 333.693 729.227 333.576C731.058 333.459 732.837 332.945 734.421 332.074C737.224 330.335 737.062 327.807 734.061 326.439Z" fill="#252C4E"/>
<path d="M709.12 297.427C707.44 296.765 705.611 296.481 703.782 296.598C701.953 296.715 700.175 297.229 698.593 298.099C695.782 299.847 695.942 302.367 698.952 303.735C700.633 304.396 702.461 304.68 704.29 304.564C706.12 304.447 707.897 303.933 709.48 303.063C712.31 301.322 712.149 298.802 709.12 297.427Z" fill="#252C4E"/>
<path d="M673.03 312.271C671.348 311.609 669.518 311.325 667.687 311.442C665.857 311.559 664.077 312.073 662.493 312.943C659.682 314.683 659.842 317.202 662.853 318.579C664.535 319.241 666.365 319.525 668.196 319.408C670.026 319.291 671.805 318.777 673.39 317.906C676.201 316.158 676.04 313.639 673.03 312.271Z" fill="#252C4E"/>
<path d="M693.577 321.652C691.895 320.991 690.065 320.707 688.234 320.824C686.404 320.94 684.624 321.455 683.04 322.325C680.229 324.065 680.39 326.584 683.4 327.961C685.082 328.622 686.912 328.906 688.743 328.789C690.573 328.673 692.353 328.158 693.937 327.288C696.765 325.522 696.604 323.002 693.577 321.652Z" fill="#252C4E"/>
<path d="M738.652 342.152C736.971 341.49 735.143 341.206 733.313 341.323C731.484 341.439 729.707 341.954 728.124 342.824C725.313 344.572 725.474 347.091 728.484 348.459C730.164 349.121 731.993 349.405 733.822 349.288C735.651 349.172 737.429 348.657 739.011 347.787C741.823 346.048 741.662 343.528 738.652 342.152Z" fill="#252C4E"/>
<path d="M691.142 324.017L684.9 324.795L688.664 338.258L695.13 338.276L691.142 324.017Z" fill="#252C4E"/>
<path d="M707.223 297.379L713.629 320.288L730.677 328.055L726.368 330.725L706.47 321.673L701.759 304.913L685.88 314.756L630.364 288.716L635.467 285.641L685.595 309.141L705.03 297.106C705.757 296.655 707.069 296.824 707.223 297.379Z" fill="#252C4E"/>
<path d="M616.742 289.401L611.715 292.521L662.858 315.813L667.886 312.7L616.742 289.401Z" fill="#252C4E"/>
<path d="M386.783 223.466L453.967 181.819L651.195 280.143L646.159 283.264L642.933 281.657L636.084 285.897L631.066 289.009L623.179 285.414L616.742 289.4L611.715 292.521L619.46 296.049L613.032 300.044L607.996 303.156L611.546 304.709L599.749 312.023L386.783 223.466Z" fill="#252C4E"/>
<path opacity="0.4" d="M599.749 312.023L636.908 327.479L609.154 344.691C607.254 345.875 608.548 347.606 611.333 347.597L657.184 347.445C657.647 347.972 658.238 348.391 658.91 348.667C660.589 349.333 662.419 349.619 664.248 349.502C666.078 349.385 667.857 348.869 669.438 347.995C672.249 346.255 672.088 343.736 669.078 342.368C667.398 341.706 665.569 341.422 663.74 341.539C661.911 341.655 660.133 342.17 658.551 343.04C658.333 343.178 658.124 343.326 657.924 343.484L620.238 343.613L647.519 326.692L604.786 308.919L611.538 304.735L607.997 303.173L611.53 304.744L658.928 325.694L639.528 337.718C638.801 338.169 639.299 338.837 640.364 338.829L712.867 338.578L723.181 343.266L696.143 343.305C695.693 342.859 695.158 342.496 694.563 342.234C692.882 341.568 691.051 341.282 689.22 341.399C687.389 341.516 685.609 342.032 684.026 342.906C681.215 344.646 681.375 347.165 684.385 348.533C686.066 349.199 687.897 349.485 689.728 349.368C691.56 349.252 693.339 348.735 694.922 347.861C695.211 347.685 695.482 347.484 695.731 347.261L726.763 347.169C727.232 347.704 727.826 348.133 728.5 348.425C730.183 349.083 732.012 349.364 733.842 349.248C735.672 349.131 737.451 348.619 739.036 347.752C741.847 346.004 741.687 343.485 738.676 342.108C736.374 341.191 733.803 341.003 731.358 341.572L716.262 334.709L716.027 334.606L694.18 334.668L692.328 328.04C692.912 327.833 693.471 327.571 693.999 327.259C696.819 325.519 696.658 322.991 693.639 321.623C691.96 320.957 690.13 320.671 688.3 320.788C686.47 320.905 684.692 321.421 683.111 322.295C680.309 324.034 680.47 326.562 683.471 327.931C684.283 328.277 685.148 328.506 686.036 328.61L687.662 334.68L653.544 334.783L669.415 324.966L612.987 300.038L619.459 296.024L660.718 314.794C660.105 316.182 660.844 317.628 662.869 318.544C664.55 319.21 666.381 319.496 668.212 319.379C670.043 319.262 671.823 318.746 673.406 317.872C676.217 316.132 676.056 313.612 673.046 312.244C670.744 311.327 668.175 311.133 665.727 311.691L616.722 289.376L623.16 285.39L630.38 288.682L685.896 314.713L701.795 304.903L706.506 321.662L721.931 328.68C721.115 330.149 721.745 331.745 723.931 332.769C725.612 333.435 727.443 333.721 729.275 333.604C731.106 333.487 732.886 332.971 734.468 332.097C737.271 330.366 737.11 327.838 734.109 326.47C733.359 326.139 732.563 325.906 731.743 325.777L719.195 280.812C718.783 279.345 715.36 278.931 713.45 280.107L685.648 297.281L651.222 280.141L453.964 181.777L386.78 223.424L599.749 312.023ZM642.933 281.657L646.14 283.257L685.766 302.982L713.084 286.059L723.936 325.002L713.622 320.306L708.9 303.387C709.093 303.281 709.306 303.192 709.49 303.079C712.293 301.34 712.132 298.82 709.131 297.452C707.448 296.786 705.616 296.5 703.783 296.617C701.951 296.734 700.169 297.251 698.585 298.125C696.685 299.309 696.153 300.81 696.948 302.142L685.632 309.147L636.085 285.914L642.933 281.657Z" fill="#080D23"/>
<path d="M359 467.188C352.708 468.188 347.542 468.688 343.5 468.688C339.5 468.688 336.167 468.396 333.5 467.812C330.833 467.229 328.333 466.333 326 465.125C320.708 462.375 317.646 458.562 316.812 453.688C316.479 451.146 317.167 449.583 318.875 449C319.375 448.833 319.958 448.75 320.625 448.75C321.333 448.75 322.062 448.917 322.812 449.25C325.521 451.208 330.229 452.688 336.938 453.688C338.479 453.896 339.708 454 340.625 454C341.542 454 342.75 453.958 344.25 453.875C345.75 453.792 347.333 453.625 349 453.375C353.042 452.792 356.292 451.833 358.75 450.5C361.25 449.125 363.521 447.625 365.562 446C367.604 444.375 369.521 442.771 371.312 441.188L376.5 436.562C380 433.438 383.188 431.396 386.062 430.438C388.938 429.479 391.188 429 392.812 429C394.438 429 395.958 429.25 397.375 429.75C398.833 430.208 400.292 430.854 401.75 431.688C405.417 433.771 407.25 435.938 407.25 438.188C407.25 441.188 405.583 444.521 402.25 448.188C398.792 451.938 394.604 454.958 389.688 457.25C374.521 475.417 365.833 485.938 363.625 488.812L372.5 492.062C383.542 496.229 391.833 498.312 397.375 498.312C400.292 498.312 403.792 497.125 407.875 494.75C409.167 494 410.333 493.062 411.375 491.938C413.417 489.729 415.396 488.625 417.312 488.625C419.229 488.625 420.625 489.188 421.5 490.312C422.417 491.438 422.708 492.792 422.375 494.375C422.083 495.958 421.458 497.667 420.5 499.5C419.542 501.292 418.312 503.188 416.812 505.188C415.354 507.146 413.646 509.125 411.688 511.125C409.771 513.083 407.708 514.854 405.5 516.438C400.458 519.938 395.667 521.688 391.125 521.688C388.125 521.688 383.396 520.708 376.938 518.75L353.875 511.938C350.875 511.062 348.042 510.312 345.375 509.688C340.042 514.271 334.271 517.062 328.062 518.062C325.812 518.396 323.438 518.562 320.938 518.562C318.438 518.562 316.479 518.229 315.062 517.562C313.646 516.938 312.562 516.104 311.812 515.062C310.604 513.312 310 510.604 310 506.938C310 504.812 311.667 501.917 315 498.25C320.792 491.958 327.208 487.604 334.25 485.188C336.75 484.312 338.917 483.875 340.75 483.875C342.625 483.875 344.625 484.021 346.75 484.312C354.042 475.438 358.125 469.729 359 467.188ZM386.188 458.688C386.021 458.896 385.979 458.979 386.062 458.938C386.146 458.896 386.333 458.771 386.625 458.562L386.188 458.688Z" fill="#F1F5F9"/>
<path d="M504.688 485.5C504.688 489.708 506.542 491.812 510.25 491.812C513.958 491.812 520.375 488.25 529.5 481.125L535 476.625C538.625 473.625 542.083 472.125 545.375 472.125C546.583 472.125 547.375 472.458 547.75 473.125C548.125 473.75 548.312 474.562 548.312 475.562C548.312 476.521 548.125 477.542 547.75 478.625C547.417 479.667 546.938 480.771 546.312 481.938C544.938 484.562 543.604 486.604 542.312 488.062C541.021 489.521 539.5 491.042 537.75 492.625C536.042 494.167 534 495.917 531.625 497.875C529.25 499.792 526.625 501.771 523.75 503.812C520.875 505.812 517.979 507.646 515.062 509.312C508.479 513.146 503.062 515.062 498.812 515.062C493.729 515.062 489.75 513.271 486.875 509.688C484.167 506.354 482.646 501.896 482.312 496.312C474.812 504.021 466.875 509.958 458.5 514.125C453.375 516.667 449.042 517.938 445.5 517.938C441.958 517.938 438.854 517.521 436.188 516.688C433.521 515.812 431.188 514.521 429.188 512.812C424.854 509.188 422.688 504.146 422.688 497.688C422.688 488.438 426 479.521 432.625 470.938C434.708 468.271 437.042 465.938 439.625 463.938C445.208 460.438 451.125 458.688 457.375 458.688C460.125 458.688 462.083 459.542 463.25 461.25C463.708 461.917 463.938 462.792 463.938 463.875C463.938 464.917 463.625 466.146 463 467.562C462.417 468.938 461.688 470.396 460.812 471.938C459.938 473.438 458.958 475 457.875 476.625C456.833 478.25 455.875 479.833 455 481.375C452.917 485.042 451.875 487.688 451.875 489.312C451.875 490.896 452.333 492.062 453.25 492.812C454.167 493.562 455.292 493.938 456.625 493.938C459.583 493.938 462.104 493.229 464.188 491.812C466.271 490.354 468.333 488.688 470.375 486.812L476.25 481.062L481.938 475.188C485.979 471.062 489.042 468.5 491.125 467.5C493.25 466.458 494.792 466.062 495.75 466.312C496.708 466.562 497.688 467.021 498.688 467.688C499.688 468.312 500.667 469.083 501.625 470C503.875 472.167 505.125 474.125 505.375 475.875C505.458 477 505.354 478.688 505.062 480.938C504.812 483.146 504.688 484.667 504.688 485.5Z" fill="#F1F5F9"/>
<path d="M547.375 519.625C546.625 519.042 545.979 518.292 545.438 517.375C544.896 516.5 544.625 515.333 544.625 513.875C544.625 512.417 544.979 511.208 545.688 510.25C546.438 509.25 547.396 508.271 548.562 507.312L576.75 482.875L564.812 459.562C563.979 458.021 563.312 456.938 562.812 456.312C561.771 455.021 560.479 454.375 558.938 454.375C557.396 454.375 555.854 454.542 554.312 454.875C552.812 455.208 551.229 455.417 549.562 455.5C547.896 455.583 546.771 455.188 546.188 454.312C545.604 453.396 545.312 452.312 545.312 451.062C545.312 448.104 546.271 446 548.188 444.75C550.146 443.5 551.938 442.458 553.562 441.625C555.188 440.792 556.958 440.083 558.875 439.5C562.583 438.375 567.625 437.604 574 437.188C576.583 437.062 579.042 438.188 581.375 440.562C582 441.229 582.479 441.833 582.812 442.375L596.562 465.688L625.562 440.562C632.562 434.604 637.958 431.625 641.75 431.625C644.458 431.625 647.354 432.708 650.438 434.875C653.812 437.25 655.5 439.812 655.5 442.562C655.5 444.312 654.833 445.604 653.5 446.438C653.25 446.562 652.771 446.875 652.062 447.375L636.938 458.625L606.5 482.438C613.083 493.229 616.875 499.25 617.875 500.5C620.083 503.833 623.375 505.5 627.75 505.5C629.75 505.5 631.562 505.188 633.188 504.562C634.812 503.938 636.292 503.625 637.625 503.625C638.958 503.625 640.104 503.958 641.062 504.625C642.021 505.25 642.5 506.083 642.5 507.125C642.5 509.375 640.604 511.979 636.812 514.938C633.188 517.646 626.875 520.646 617.875 523.938C613.125 525.646 609.625 526.562 607.375 526.688C605.125 526.812 603.292 526.542 601.875 525.875C600.458 525.208 599.208 524.312 598.125 523.188C596.292 521.396 594.542 518.729 592.875 515.188L584.938 499.25L562.062 517.125C560.479 518.375 558.917 519.417 557.375 520.25C555.833 521.083 554.396 521.5 553.062 521.5C551.771 521.5 550.688 521.333 549.812 521C548.979 520.708 548.167 520.25 547.375 519.625Z" fill="#F1F5F9"/>
<path d="M664.125 519.625C663.375 519.042 662.729 518.292 662.188 517.375C661.646 516.5 661.375 515.333 661.375 513.875C661.375 512.417 661.729 511.208 662.438 510.25C663.188 509.25 664.146 508.271 665.312 507.312L693.5 482.875L681.562 459.562C680.729 458.021 680.062 456.938 679.562 456.312C678.521 455.021 677.229 454.375 675.688 454.375C674.146 454.375 672.604 454.542 671.062 454.875C669.562 455.208 667.979 455.417 666.312 455.5C664.646 455.583 663.521 455.188 662.938 454.312C662.354 453.396 662.062 452.312 662.062 451.062C662.062 448.104 663.021 446 664.938 444.75C666.896 443.5 668.688 442.458 670.312 441.625C671.938 440.792 673.708 440.083 675.625 439.5C679.333 438.375 684.375 437.604 690.75 437.188C693.333 437.062 695.792 438.188 698.125 440.562C698.75 441.229 699.229 441.833 699.562 442.375L713.312 465.688L742.312 440.562C749.312 434.604 754.708 431.625 758.5 431.625C761.208 431.625 764.104 432.708 767.188 434.875C770.562 437.25 772.25 439.812 772.25 442.562C772.25 444.312 771.583 445.604 770.25 446.438C770 446.562 769.521 446.875 768.812 447.375L753.688 458.625L723.25 482.438C729.833 493.229 733.625 499.25 734.625 500.5C736.833 503.833 740.125 505.5 744.5 505.5C746.5 505.5 748.312 505.188 749.938 504.562C751.562 503.938 753.042 503.625 754.375 503.625C755.708 503.625 756.854 503.958 757.812 504.625C758.771 505.25 759.25 506.083 759.25 507.125C759.25 509.375 757.354 511.979 753.562 514.938C749.938 517.646 743.625 520.646 734.625 523.938C729.875 525.646 726.375 526.562 724.125 526.688C721.875 526.812 720.042 526.542 718.625 525.875C717.208 525.208 715.958 524.312 714.875 523.188C713.042 521.396 711.292 518.729 709.625 515.188L701.688 499.25L678.812 517.125C677.229 518.375 675.667 519.417 674.125 520.25C672.583 521.083 671.146 521.5 669.812 521.5C668.521 521.5 667.438 521.333 666.562 521C665.729 520.708 664.917 520.25 664.125 519.625Z" fill="#F1F5F9"/>
</g>
</svg>
