<svg width="924" height="802" viewBox="0 0 924 802" fill="none" xmlns="http://www.w3.org/2000/svg">
<g style="mix-blend-mode:multiply" opacity="0.47">
<g style="mix-blend-mode:multiply" opacity="0.47">
<path d="M718.43 226.414L890.096 180.445C899.762 177.856 908.003 171.537 913.006 162.877C918.009 154.216 919.365 143.925 916.775 134.265C914.185 124.606 907.861 116.371 899.195 111.371C890.529 106.371 880.23 105.017 870.565 107.605L600.076 180.03C595.29 181.312 590.299 181.639 585.386 180.992C580.474 180.346 575.737 178.739 571.446 176.263C567.155 173.787 563.394 170.491 560.377 166.563C557.361 162.634 555.149 158.151 553.866 153.368C551.277 143.709 552.633 133.419 557.636 124.759C562.639 116.1 570.878 109.781 580.543 107.192L703.666 74.2138C708.453 72.9328 712.94 70.7218 716.871 67.7078C720.802 64.6938 724.101 60.9348 726.579 56.6468C729.057 52.3588 730.665 47.6248 731.312 42.7158C731.959 37.8058 731.632 32.8178 730.35 28.0338C727.76 18.3748 721.436 10.1398 712.77 5.13984C704.104 0.139839 693.805 -1.21416 684.14 1.37384L58.6663 168.851C53.8803 170.132 49.3938 172.343 45.4628 175.357C41.5318 178.371 38.2334 182.129 35.7559 186.417C33.2784 190.705 31.6703 195.439 31.0236 200.348C30.3768 205.257 30.7039 210.246 31.9863 215.028C33.2679 219.812 35.4799 224.297 38.4961 228.226C41.5123 232.156 45.2735 235.453 49.565 237.929C53.8565 240.406 58.5941 242.013 63.5073 242.66C68.4205 243.306 73.413 242.979 78.2 241.697L175.588 215.62C185.254 213.032 195.552 214.387 204.218 219.387C212.884 224.387 219.208 232.623 221.798 242.282C223.08 247.065 223.408 252.053 222.761 256.962C222.114 261.871 220.506 266.605 218.028 270.893C215.551 275.181 212.253 278.939 208.322 281.953C204.391 284.968 199.904 287.178 195.118 288.46L28.418 333.097C18.7524 335.685 10.5114 342.004 5.508 350.665C0.504597 359.325 -0.851503 369.617 1.738 379.276C3.0203 384.059 5.2327 388.542 8.249 392.471C11.2653 396.399 15.0263 399.695 19.3173 402.171C23.6083 404.647 28.3453 406.254 33.2578 406.9C38.1702 407.547 43.162 407.22 47.948 405.938L151.981 378.08C161.647 375.492 171.946 376.847 180.612 381.848C189.278 386.848 195.601 395.083 198.191 404.742C199.474 409.525 199.801 414.513 199.154 419.422C198.507 424.332 196.899 429.065 194.422 433.353C191.944 437.641 188.646 441.4 184.715 444.414C180.784 447.428 176.297 449.639 171.511 450.92L164.13 452.897C159.342 454.179 154.854 456.391 150.922 459.407C146.99 462.423 143.691 466.184 141.214 470.475C138.737 474.765 137.13 479.501 136.485 484.413C135.841 489.324 136.171 494.314 137.456 499.098C138.738 503.881 140.951 508.365 143.967 512.293C146.983 516.222 150.744 519.518 155.035 521.994C159.326 524.47 164.063 526.077 168.976 526.724C173.888 527.37 178.88 527.043 183.666 525.762L190.666 523.888C195.452 522.607 200.444 522.28 205.356 522.926C210.269 523.572 215.005 525.179 219.296 527.655C223.587 530.131 227.348 533.427 230.364 537.356C233.38 541.284 235.593 545.768 236.875 550.55C238.157 555.333 238.485 560.321 237.838 565.231C237.192 570.14 235.584 574.874 233.106 579.162C230.629 583.45 227.331 587.209 223.4 590.223C219.469 593.237 214.982 595.448 210.196 596.73L106.546 624.483C96.881 627.071 88.64 633.391 83.637 642.051C78.634 650.711 77.278 661.003 79.868 670.662C82.458 680.321 88.782 688.557 97.448 693.556C106.114 698.556 116.412 699.911 126.078 697.323L315.473 646.608C320.259 645.327 325.251 645 330.163 645.646C335.076 646.292 339.813 647.899 344.104 650.375C348.395 652.851 352.156 656.147 355.172 660.075C358.188 664.004 360.401 668.488 361.683 673.27C362.966 678.054 363.293 683.042 362.646 687.952C361.999 692.862 360.391 697.596 357.913 701.884C355.435 706.172 352.136 709.931 348.205 712.945C344.273 715.96 339.786 718.17 335 719.451L304.646 727.578C294.981 730.166 286.74 736.486 281.737 745.146C276.734 753.806 275.378 764.098 277.968 773.757C279.25 778.54 281.463 783.023 284.479 786.952C287.495 790.88 291.256 794.176 295.547 796.652C299.838 799.128 304.575 800.734 309.488 801.38C314.4 802.027 319.392 801.699 324.178 800.418L806.428 671.285C816.094 668.697 824.334 662.377 829.338 653.717C834.341 645.057 835.696 634.765 833.106 625.106C831.824 620.323 829.612 615.839 826.595 611.911C823.579 607.982 819.818 604.686 815.527 602.21C811.236 599.735 806.499 598.128 801.587 597.481C796.674 596.835 791.682 597.162 786.896 598.443L772.71 602.243C763.045 604.831 752.747 603.477 744.081 598.479C735.415 593.48 729.091 585.247 726.5 575.589C725.218 570.806 724.891 565.817 725.538 560.908C726.185 555.999 727.794 551.265 730.272 546.977C732.75 542.689 736.048 538.93 739.98 535.916C743.911 532.903 748.398 530.692 753.185 529.411L846.47 504.428C851.256 503.146 855.742 500.935 859.673 497.921C863.604 494.907 866.903 491.148 869.38 486.86C871.858 482.572 873.466 477.838 874.112 472.929C874.759 468.02 874.432 463.031 873.15 458.248C871.867 453.466 869.655 448.982 866.639 445.053C863.622 441.125 859.861 437.829 855.57 435.353C851.279 432.877 846.542 431.27 841.63 430.624C836.717 429.978 831.726 430.305 826.94 431.586L694.666 467.001C689.88 468.282 684.889 468.609 679.976 467.963C675.064 467.317 670.327 465.71 666.036 463.234C661.745 460.758 657.984 457.462 654.967 453.534C651.951 449.605 649.739 445.122 648.456 440.339C645.869 430.68 647.227 420.39 652.231 411.732C657.234 403.074 665.474 396.756 675.138 394.168L768.796 369.089C773.582 367.808 778.069 365.597 782 362.583C785.931 359.568 789.229 355.81 791.706 351.522C794.184 347.233 795.792 342.5 796.438 337.59C797.085 332.681 796.757 327.693 795.475 322.91C794.194 318.126 791.983 313.64 788.967 309.71C785.952 305.78 782.191 302.482 777.9 300.005C773.609 297.527 768.871 295.919 763.958 295.272C759.044 294.625 754.052 294.951 749.265 296.233L737.963 299.259C728.297 301.847 717.999 300.493 709.333 295.493C700.667 290.493 694.343 282.258 691.753 272.599C690.47 267.816 690.142 262.827 690.788 257.917C691.434 253.008 693.042 248.273 695.519 243.985C697.996 239.696 701.295 235.937 705.226 232.922C709.157 229.907 713.643 227.696 718.43 226.414Z" fill="#76D1FF"/>
</g>
<g style="mix-blend-mode:multiply" opacity="0.47">
<path d="M876.18 262.25L866.252 264.908C846.124 270.298 834.18 290.973 839.573 311.087L839.575 311.094C844.968 331.208 865.657 343.145 885.784 337.755L895.712 335.097C915.84 329.707 927.785 309.032 922.391 288.918L922.39 288.911C916.997 268.797 896.308 256.86 876.18 262.25Z" fill="#76D1FF"/>
</g>
</g>
<g style="mix-blend-mode:multiply" opacity="0.33">
<g style="mix-blend-mode:multiply" opacity="0.33">
<path d="M114.758 571.403L127.618 553.034C127.793 552.784 128.061 552.613 128.362 552.56C128.663 552.507 128.973 552.576 129.224 552.751L142.349 561.928C142.6 562.103 142.771 562.371 142.824 562.671C142.877 562.972 142.808 563.282 142.633 563.532L129.773 581.901C128.507 583.71 126.573 584.942 124.398 585.326C122.222 585.711 119.983 585.215 118.173 583.95L116.808 582.995C114.998 581.73 113.765 579.798 113.381 577.624C112.996 575.45 113.492 573.212 114.758 571.403Z" fill="#4E4E4E"/>
<path d="M114.758 571.403L127.618 553.034C127.793 552.784 128.061 552.613 128.362 552.56C128.663 552.507 128.973 552.576 129.224 552.751L142.349 561.928C142.6 562.103 142.771 562.371 142.824 562.671C142.877 562.972 142.808 563.282 142.633 563.532L129.773 581.901C128.507 583.71 126.573 584.942 124.398 585.326C122.222 585.711 119.983 585.215 118.173 583.95L116.808 582.995C114.998 581.73 113.765 579.798 113.381 577.624C112.996 575.45 113.492 573.212 114.758 571.403Z" stroke="#46505C" stroke-width="6.66667" stroke-linecap="round" stroke-linejoin="round"/>
</g>
<g style="mix-blend-mode:multiply" opacity="0.33">
<path d="M114.758 571.403L127.618 553.034C127.793 552.784 128.061 552.613 128.362 552.56C128.663 552.507 128.973 552.576 129.224 552.751L142.349 561.928C142.6 562.103 142.771 562.371 142.824 562.671C142.877 562.972 142.808 563.282 142.633 563.532L129.773 581.901C128.507 583.71 126.573 584.942 124.398 585.326C122.222 585.711 119.983 585.215 118.173 583.95L116.808 582.995C114.998 581.73 113.765 579.798 113.381 577.624C112.996 575.45 113.492 573.212 114.758 571.403Z" fill="#4E4E4E"/>
<path d="M114.758 571.403L127.618 553.034C127.793 552.784 128.061 552.613 128.362 552.56C128.663 552.507 128.973 552.576 129.224 552.751L142.349 561.928C142.6 562.103 142.771 562.371 142.824 562.671C142.877 562.972 142.808 563.282 142.633 563.532L129.773 581.901C128.507 583.71 126.573 584.942 124.398 585.326C122.222 585.711 119.983 585.215 118.173 583.95L116.808 582.995C114.998 581.73 113.765 579.798 113.381 577.624C112.996 575.45 113.492 573.212 114.758 571.403Z" stroke="#46505C" stroke-width="6.66667" stroke-linecap="round" stroke-linejoin="round"/>
</g>
<g style="mix-blend-mode:multiply" opacity="0.33">
<path d="M164.14 571.711C194.125 571.711 218.433 547.419 218.433 517.454C218.433 487.488 194.125 463.196 164.14 463.196C134.154 463.196 109.846 487.488 109.846 517.454C109.846 547.419 134.154 571.711 164.14 571.711Z" fill="#4E4E4E"/>
<path d="M164.14 571.711C194.125 571.711 218.433 547.419 218.433 517.454C218.433 487.488 194.125 463.196 164.14 463.196C134.154 463.196 109.846 487.488 109.846 517.454C109.846 547.419 134.154 571.711 164.14 571.711Z" stroke="#46505C" stroke-width="6.66667" stroke-linecap="round" stroke-linejoin="round"/>
</g>
<g style="mix-blend-mode:multiply" opacity="0.33">
<path d="M164.14 571.711C194.125 571.711 218.433 547.419 218.433 517.454C218.433 487.488 194.125 463.196 164.14 463.196C134.154 463.196 109.846 487.488 109.846 517.454C109.846 547.419 134.154 571.711 164.14 571.711Z" fill="#4E4E4E"/>
<path d="M164.14 571.711C194.125 571.711 218.433 547.419 218.433 517.454C218.433 487.488 194.125 463.196 164.14 463.196C134.154 463.196 109.846 487.488 109.846 517.454C109.846 547.419 134.154 571.711 164.14 571.711Z" stroke="#46505C" stroke-width="6.66667" stroke-linecap="round" stroke-linejoin="round"/>
</g>
<g style="mix-blend-mode:multiply" opacity="0.33">
<path d="M164.14 559.684C187.478 559.684 206.398 540.777 206.398 517.454C206.398 494.131 187.478 475.224 164.14 475.224C140.801 475.224 121.881 494.131 121.881 517.454C121.881 540.777 140.801 559.684 164.14 559.684Z" fill="#4E4E4E"/>
<path d="M164.14 559.684C187.478 559.684 206.398 540.777 206.398 517.454C206.398 494.131 187.478 475.224 164.14 475.224C140.801 475.224 121.881 494.131 121.881 517.454C121.881 540.777 140.801 559.684 164.14 559.684Z" stroke="#46505C" stroke-width="6.66667" stroke-linecap="round" stroke-linejoin="round"/>
</g>
<g style="mix-blend-mode:multiply" opacity="0.33">
<path d="M164.14 559.684C187.478 559.684 206.398 540.777 206.398 517.454C206.398 494.131 187.478 475.224 164.14 475.224C140.801 475.224 121.881 494.131 121.881 517.454C121.881 540.777 140.801 559.684 164.14 559.684Z" fill="#4E4E4E"/>
<path d="M164.14 559.684C187.478 559.684 206.398 540.777 206.398 517.454C206.398 494.131 187.478 475.224 164.14 475.224C140.801 475.224 121.881 494.131 121.881 517.454C121.881 540.777 140.801 559.684 164.14 559.684Z" stroke="#46505C" stroke-width="6.66667" stroke-linecap="round" stroke-linejoin="round"/>
</g>
<g style="mix-blend-mode:multiply" opacity="0.33">
<path d="M136.515 508.687C137.08 507.414 137.692 506.167 138.315 504.946C141.148 499.396 144.537 493.643 149.945 490.244C154.537 487.356 160.958 486.225 165.935 488.78C170.252 490.995 172.853 495.55 176.792 498.385C179.446 500.01 182.204 501.46 185.048 502.724C187.92 504.016 190.192 506.35 191.403 509.255C192.737 513.325 190.538 517.669 190.517 521.953C190.509 524.316 191.166 526.634 192.412 528.643C193.199 529.583 193.704 530.726 193.87 531.94C193.75 532.717 193.421 533.447 192.918 534.052C192.414 534.656 191.755 535.112 191.012 535.371C186.635 537.438 181.523 536.691 176.71 536.172C171.897 535.652 166.567 535.542 162.762 538.533C161.204 539.969 159.761 541.523 158.447 543.184C157.892 544.016 157.159 544.715 156.302 545.23C155.445 545.746 154.484 546.067 153.489 546.168C152.493 546.269 151.488 546.149 150.544 545.817C149.6 545.484 148.742 544.948 148.03 544.245C144.58 541.357 141.588 537.965 139.153 534.183C136.595 530.984 134.788 527.252 133.865 523.262C133 518.307 134.442 513.349 136.515 508.687Z" fill="#4E4E4E"/>
<path d="M136.515 508.687C137.08 507.414 137.692 506.167 138.315 504.946C141.148 499.396 144.537 493.643 149.945 490.244C154.537 487.356 160.958 486.225 165.935 488.78C170.252 490.995 172.853 495.55 176.792 498.385C179.446 500.01 182.204 501.46 185.048 502.724C187.92 504.016 190.192 506.35 191.403 509.255C192.737 513.325 190.538 517.669 190.517 521.953C190.509 524.316 191.166 526.634 192.412 528.643C193.199 529.583 193.704 530.726 193.87 531.94C193.75 532.717 193.421 533.447 192.918 534.052C192.414 534.656 191.755 535.112 191.012 535.371C186.635 537.438 181.523 536.691 176.71 536.172C171.897 535.652 166.567 535.542 162.762 538.533C161.204 539.969 159.761 541.523 158.447 543.184C157.892 544.016 157.159 544.715 156.302 545.23C155.445 545.746 154.484 546.067 153.489 546.168C152.493 546.269 151.488 546.149 150.544 545.817C149.6 545.484 148.742 544.948 148.03 544.245C144.58 541.357 141.588 537.965 139.153 534.183C136.595 530.984 134.788 527.252 133.865 523.262C133 518.307 134.442 513.349 136.515 508.687Z" stroke="#46505C" stroke-width="6.66667" stroke-linecap="round" stroke-linejoin="round"/>
</g>
<g style="mix-blend-mode:multiply" opacity="0.33">
<path d="M172.686 549.425C174.135 549.425 175.309 548.252 175.309 546.804C175.309 545.356 174.135 544.182 172.686 544.182C171.237 544.182 170.063 545.356 170.063 546.804C170.063 548.252 171.237 549.425 172.686 549.425Z" fill="#4E4E4E"/>
<path d="M172.686 549.425C174.135 549.425 175.309 548.252 175.309 546.804C175.309 545.356 174.135 544.182 172.686 544.182C171.237 544.182 170.063 545.356 170.063 546.804C170.063 548.252 171.237 549.425 172.686 549.425Z" stroke="#46505C" stroke-width="6.66667" stroke-linecap="round" stroke-linejoin="round"/>
</g>
<g style="mix-blend-mode:multiply" opacity="0.33">
<path d="M165.858 549.585C166.861 549.585 167.675 548.772 167.675 547.77C167.675 546.767 166.861 545.954 165.858 545.954C164.855 545.954 164.042 546.767 164.042 547.77C164.042 548.772 164.855 549.585 165.858 549.585Z" fill="#4E4E4E"/>
<path d="M165.858 549.585C166.861 549.585 167.675 548.772 167.675 547.77C167.675 546.767 166.861 545.954 165.858 545.954C164.855 545.954 164.042 546.767 164.042 547.77C164.042 548.772 164.855 549.585 165.858 549.585Z" stroke="#46505C" stroke-width="6.66667" stroke-linecap="round" stroke-linejoin="round"/>
</g>
<g style="mix-blend-mode:multiply" opacity="0.33">
<path d="M178.885 546.01C179.794 546.01 180.532 545.274 180.532 544.365C180.532 543.456 179.794 542.719 178.885 542.719C177.976 542.719 177.238 543.456 177.238 544.365C177.238 545.274 177.976 546.01 178.885 546.01Z" fill="#4E4E4E"/>
<path d="M178.885 546.01C179.794 546.01 180.532 545.274 180.532 544.365C180.532 543.456 179.794 542.719 178.885 542.719C177.976 542.719 177.238 543.456 177.238 544.365C177.238 545.274 177.976 546.01 178.885 546.01Z" stroke="#46505C" stroke-width="6.66667" stroke-linecap="round" stroke-linejoin="round"/>
</g>
<g style="mix-blend-mode:multiply" opacity="0.33">
<path d="M160.112 549.628C160.763 549.628 161.292 549.101 161.292 548.449C161.292 547.798 160.763 547.271 160.112 547.271C159.46 547.271 158.932 547.798 158.932 548.449C158.932 549.101 159.46 549.628 160.112 549.628Z" fill="#4E4E4E"/>
<path d="M160.112 549.628C160.763 549.628 161.292 549.101 161.292 548.449C161.292 547.798 160.763 547.271 160.112 547.271C159.46 547.271 158.932 547.798 158.932 548.449C158.932 549.101 159.46 549.628 160.112 549.628Z" stroke="#46505C" stroke-width="6.66667" stroke-linecap="round" stroke-linejoin="round"/>
</g>
<g style="mix-blend-mode:multiply" opacity="0.33">
<path d="M184.086 543.346C184.484 543.346 184.806 543.023 184.806 542.626C184.806 542.228 184.484 541.906 184.086 541.906C183.689 541.906 183.366 542.228 183.366 542.626C183.366 543.023 183.689 543.346 184.086 543.346Z" fill="#4E4E4E"/>
<path d="M184.086 543.346C184.484 543.346 184.806 543.023 184.806 542.626C184.806 542.228 184.484 541.906 184.086 541.906C183.689 541.906 183.366 542.228 183.366 542.626C183.366 543.023 183.689 543.346 184.086 543.346Z" stroke="#46505C" stroke-width="6.66667" stroke-linecap="round" stroke-linejoin="round"/>
</g>
<g style="mix-blend-mode:multiply" opacity="0.33">
<path d="M131.348 509.165C132.282 509.165 133.038 508.409 133.038 507.476C133.038 506.543 132.282 505.787 131.348 505.787C130.415 505.787 129.658 506.543 129.658 507.476C129.658 508.409 130.415 509.165 131.348 509.165Z" fill="#4E4E4E"/>
<path d="M131.348 509.165C132.282 509.165 133.038 508.409 133.038 507.476C133.038 506.543 132.282 505.787 131.348 505.787C130.415 505.787 129.658 506.543 129.658 507.476C129.658 508.409 130.415 509.165 131.348 509.165Z" stroke="#46505C" stroke-width="6.66667" stroke-linecap="round" stroke-linejoin="round"/>
</g>
<g style="mix-blend-mode:multiply" opacity="0.33">
<path d="M177.356 489.414C178.234 489.414 178.946 488.703 178.946 487.825C178.946 486.948 178.234 486.236 177.356 486.236C176.478 486.236 175.766 486.948 175.766 487.825C175.766 488.703 176.478 489.414 177.356 489.414Z" fill="#4E4E4E"/>
<path d="M177.356 489.414C178.234 489.414 178.946 488.703 178.946 487.825C178.946 486.948 178.234 486.236 177.356 486.236C176.478 486.236 175.766 486.948 175.766 487.825C175.766 488.703 176.478 489.414 177.356 489.414Z" stroke="#46505C" stroke-width="6.66667" stroke-linecap="round" stroke-linejoin="round"/>
</g>
<g style="mix-blend-mode:multiply" opacity="0.33">
<path d="M187.691 497.092C188.486 497.092 189.131 496.448 189.131 495.653C189.131 494.858 188.486 494.214 187.691 494.214C186.896 494.214 186.251 494.858 186.251 495.653C186.251 496.448 186.896 497.092 187.691 497.092Z" fill="#4E4E4E"/>
<path d="M187.691 497.092C188.486 497.092 189.131 496.448 189.131 495.653C189.131 494.858 188.486 494.214 187.691 494.214C186.896 494.214 186.251 494.858 186.251 495.653C186.251 496.448 186.896 497.092 187.691 497.092Z" stroke="#46505C" stroke-width="6.66667" stroke-linecap="round" stroke-linejoin="round"/>
</g>
<g style="mix-blend-mode:multiply" opacity="0.33">
<path d="M188.873 500.361C189.221 500.361 189.503 500.079 189.503 499.731C189.503 499.383 189.221 499.101 188.873 499.101C188.525 499.101 188.243 499.383 188.243 499.731C188.243 500.079 188.525 500.361 188.873 500.361Z" fill="#4E4E4E"/>
<path d="M188.873 500.361C189.221 500.361 189.503 500.079 189.503 499.731C189.503 499.383 189.221 499.101 188.873 499.101C188.525 499.101 188.243 499.383 188.243 499.731C188.243 500.079 188.525 500.361 188.873 500.361Z" stroke="#46505C" stroke-width="6.66667" stroke-linecap="round" stroke-linejoin="round"/>
</g>
</g>
<path d="M102.96 558.025L115.828 539.652C116.004 539.401 116.271 539.231 116.572 539.177C116.874 539.124 117.184 539.193 117.434 539.368L130.564 548.552C130.815 548.727 130.986 548.995 131.039 549.296C131.092 549.597 131.023 549.907 130.848 550.157L117.979 568.531C116.712 570.34 114.777 571.572 112.601 571.956C110.424 572.34 108.184 571.845 106.374 570.578L105.008 569.623C103.198 568.356 101.965 566.423 101.58 564.248C101.196 562.073 101.692 559.834 102.96 558.025Z" fill="white" stroke="#E6F3FF" stroke-width="3.33333" stroke-miterlimit="10"/>
<path opacity="0.18" d="M117.434 539.372C117.183 539.198 116.873 539.129 116.572 539.183C116.271 539.236 116.004 539.407 115.829 539.657L110.034 547.928C112.256 550.044 114.634 551.989 117.149 553.748C119.663 555.505 122.305 557.072 125.052 558.436L130.847 550.162C130.934 550.038 130.996 549.898 131.029 549.751C131.062 549.603 131.065 549.45 131.039 549.301C131.012 549.152 130.957 549.01 130.875 548.882C130.794 548.755 130.688 548.644 130.564 548.558L117.434 539.372Z" fill="#4E4E4E" stroke="#46505C" stroke-width="6.66667" stroke-linecap="round" stroke-linejoin="round"/>
<path d="M102.96 558.025L115.828 539.652C116.004 539.401 116.271 539.231 116.572 539.177C116.874 539.124 117.184 539.193 117.434 539.368L130.564 548.552C130.815 548.727 130.986 548.995 131.039 549.296C131.092 549.597 131.023 549.907 130.848 550.157L117.979 568.531C116.712 570.34 114.777 571.572 112.601 571.956C110.424 572.34 108.184 571.845 106.374 570.578L105.008 569.623C103.198 568.356 101.965 566.423 101.58 564.248C101.196 562.073 101.692 559.834 102.96 558.025Z" stroke="#46505C" stroke-width="6.66667" stroke-linecap="round" stroke-linejoin="round"/>
<path d="M152.104 558.095C182.089 558.095 206.397 533.803 206.397 503.837C206.397 473.872 182.089 449.58 152.104 449.58C122.118 449.58 97.811 473.872 97.811 503.837C97.811 533.803 122.118 558.095 152.104 558.095Z" fill="white" stroke="#E6F3FF" stroke-width="3.33333" stroke-miterlimit="10"/>
<path d="M152.104 558.095C182.089 558.095 206.397 533.803 206.397 503.837C206.397 473.872 182.089 449.58 152.104 449.58C122.118 449.58 97.811 473.872 97.811 503.837C97.811 533.803 122.118 558.095 152.104 558.095Z" stroke="#46505C" stroke-width="6.66667" stroke-linecap="round" stroke-linejoin="round"/>
<path d="M152.103 546.067C175.442 546.067 194.361 527.16 194.361 503.837C194.361 480.514 175.442 461.606 152.103 461.606C128.764 461.606 109.845 480.514 109.845 503.837C109.845 527.16 128.764 546.067 152.103 546.067Z" fill="#845B5B"/>
<path d="M152.103 546.067C175.442 546.067 194.361 527.16 194.361 503.837C194.361 480.514 175.442 461.606 152.103 461.606C128.764 461.606 109.845 480.514 109.845 503.837C109.845 527.16 128.764 546.067 152.103 546.067Z" stroke="#46505C" stroke-width="3.33333" stroke-linecap="round" stroke-linejoin="round"/>
<g style="mix-blend-mode:multiply" opacity="0.33">
<path d="M124.478 495.07C125.043 493.799 125.655 492.55 126.278 491.329C129.112 485.781 132.502 480.029 137.908 476.628C142.502 473.739 148.922 472.61 153.898 475.163C158.215 477.379 160.817 481.936 164.755 484.769C167.41 486.391 170.169 487.838 173.013 489.099C175.883 490.391 178.155 492.723 179.368 495.625C180.702 499.697 178.503 504.041 178.48 508.323C178.473 510.687 179.129 513.005 180.375 515.014C181.162 515.953 181.668 517.096 181.835 518.31C181.716 519.087 181.386 519.818 180.883 520.423C180.379 521.028 179.72 521.484 178.977 521.743C174.598 523.808 169.487 523.063 164.673 522.542C159.86 522.021 154.532 521.914 150.725 524.904C149.168 526.339 147.725 527.894 146.41 529.554C145.855 530.386 145.122 531.085 144.265 531.601C143.408 532.116 142.448 532.437 141.452 532.538C140.457 532.64 139.451 532.52 138.508 532.188C137.564 531.856 136.705 531.319 135.993 530.617C132.544 527.728 129.551 524.335 127.117 520.553C124.56 517.357 122.755 513.628 121.833 509.641C120.955 504.691 122.407 499.732 124.478 495.07Z" fill="#845B5B"/>
</g>
<g style="mix-blend-mode:multiply" opacity="0.33">
<path d="M160.65 535.807C162.099 535.807 163.273 534.633 163.273 533.185C163.273 531.737 162.099 530.562 160.65 530.562C159.201 530.562 158.026 531.737 158.026 533.185C158.026 534.633 159.201 535.807 160.65 535.807Z" fill="#845B5B"/>
</g>
<g style="mix-blend-mode:multiply" opacity="0.33">
<path d="M153.822 535.968C154.825 535.968 155.639 535.155 155.639 534.152C155.639 533.15 154.825 532.337 153.822 532.337C152.819 532.337 152.005 533.15 152.005 534.152C152.005 535.155 152.819 535.968 153.822 535.968Z" fill="#845B5B"/>
</g>
<g style="mix-blend-mode:multiply" opacity="0.33">
<path d="M166.849 532.393C167.758 532.393 168.495 531.656 168.495 530.747C168.495 529.838 167.758 529.102 166.849 529.102C165.939 529.102 165.202 529.838 165.202 530.747C165.202 531.656 165.939 532.393 166.849 532.393Z" fill="#845B5B"/>
</g>
<g style="mix-blend-mode:multiply" opacity="0.33">
<path d="M148.075 536.014C148.727 536.014 149.255 535.486 149.255 534.834C149.255 534.183 148.727 533.655 148.075 533.655C147.423 533.655 146.895 534.183 146.895 534.834C146.895 535.486 147.423 536.014 148.075 536.014Z" fill="#845B5B"/>
</g>
<g style="mix-blend-mode:multiply" opacity="0.33">
<path d="M172.05 529.728C172.448 529.728 172.77 529.406 172.77 529.008C172.77 528.61 172.448 528.288 172.05 528.288C171.652 528.288 171.33 528.61 171.33 529.008C171.33 529.406 171.652 529.728 172.05 529.728Z" fill="#845B5B"/>
</g>
<g style="mix-blend-mode:multiply" opacity="0.33">
<path d="M119.312 495.548C120.245 495.548 121.002 494.792 121.002 493.859C121.002 492.926 120.245 492.17 119.312 492.17C118.378 492.17 117.622 492.926 117.622 493.859C117.622 494.792 118.378 495.548 119.312 495.548Z" fill="#845B5B"/>
</g>
<g style="mix-blend-mode:multiply" opacity="0.33">
<path d="M165.32 475.796C166.198 475.796 166.91 475.085 166.91 474.207C166.91 473.33 166.198 472.618 165.32 472.618C164.442 472.618 163.73 473.33 163.73 474.207C163.73 475.085 164.442 475.796 165.32 475.796Z" fill="#845B5B"/>
</g>
<g style="mix-blend-mode:multiply" opacity="0.33">
<path d="M175.655 483.474C176.45 483.474 177.095 482.83 177.095 482.035C177.095 481.24 176.45 480.596 175.655 480.596C174.86 480.596 174.215 481.24 174.215 482.035C174.215 482.83 174.86 483.474 175.655 483.474Z" fill="#845B5B"/>
</g>
<g style="mix-blend-mode:multiply" opacity="0.33">
<path d="M176.837 486.742C177.185 486.742 177.467 486.46 177.467 486.112C177.467 485.764 177.185 485.482 176.837 485.482C176.489 485.482 176.207 485.764 176.207 486.112C176.207 486.46 176.489 486.742 176.837 486.742Z" fill="#845B5B"/>
</g>
<path d="M155.807 510.655C157.648 510.655 159.14 509.164 159.14 507.324C159.14 505.485 157.648 503.993 155.807 503.993C153.966 503.993 152.474 505.485 152.474 507.324C152.474 509.164 153.966 510.655 155.807 510.655Z" fill="#845B5B"/>
<path d="M144.95 500.361C148.172 500.361 150.783 497.751 150.783 494.532C150.783 491.312 148.172 488.702 144.95 488.702C141.728 488.702 139.117 491.312 139.117 494.532C139.117 497.751 141.728 500.361 144.95 500.361Z" fill="#845B5B"/>
<g style="mix-blend-mode:multiply" opacity="0.33">
<g style="mix-blend-mode:multiply" opacity="0.33">
<path d="M675.584 329.117H288.917C276.03 329.117 265.583 339.557 265.583 352.435V381.546C265.583 394.424 276.03 404.863 288.917 404.863H675.584C688.47 404.863 698.917 394.424 698.917 381.546V352.435C698.917 339.557 688.47 329.117 675.584 329.117Z" fill="#4E4E4E"/>
<path d="M675.584 329.117H288.917C276.03 329.117 265.583 339.557 265.583 352.435V381.546C265.583 394.424 276.03 404.863 288.917 404.863H675.584C688.47 404.863 698.917 394.424 698.917 381.546V352.435C698.917 339.557 688.47 329.117 675.584 329.117Z" stroke="black" stroke-width="1.66667" stroke-linecap="round" stroke-linejoin="round"/>
</g>
<g style="mix-blend-mode:multiply" opacity="0.33">
<path d="M675.584 329.117H288.917C276.03 329.117 265.583 339.557 265.583 352.435V381.546C265.583 394.424 276.03 404.863 288.917 404.863H675.584C688.47 404.863 698.917 394.424 698.917 381.546V352.435C698.917 339.557 688.47 329.117 675.584 329.117Z" fill="#4E4E4E"/>
</g>
<g style="mix-blend-mode:multiply" opacity="0.17">
<path d="M288.916 329.117H675.583C681.771 329.117 687.706 331.574 692.082 335.947C696.458 340.32 698.916 346.251 698.916 352.435V386.476C698.916 390.252 697.415 393.874 694.743 396.544C692.071 399.214 688.447 400.715 684.668 400.715H279.833C276.054 400.715 272.43 399.214 269.758 396.544C267.086 393.874 265.584 390.252 265.584 386.476V352.435C265.584 346.251 268.043 340.32 272.419 335.947C276.794 331.574 282.729 329.117 288.918 329.117H288.916Z" fill="#4E4E4E"/>
</g>
<g style="mix-blend-mode:multiply" opacity="0.33">
<path d="M675.584 329.117H288.917C276.03 329.117 265.583 339.557 265.583 352.435V381.546C265.583 394.424 276.03 404.863 288.917 404.863H675.584C688.47 404.863 698.917 394.424 698.917 381.546V352.435C698.917 339.557 688.47 329.117 675.584 329.117Z" fill="#4E4E4E"/>
<path d="M675.584 329.117H288.917C276.03 329.117 265.583 339.557 265.583 352.435V381.546C265.583 394.424 276.03 404.863 288.917 404.863H675.584C688.47 404.863 698.917 394.424 698.917 381.546V352.435C698.917 339.557 688.47 329.117 675.584 329.117Z" stroke="#46505C" stroke-width="6.66667" stroke-linecap="round" stroke-linejoin="round"/>
</g>
<g style="mix-blend-mode:multiply" opacity="0.33">
<path d="M668.917 395.847V337.651H295.584V395.847H668.917Z" fill="#4E4E4E"/>
</g>
<g style="mix-blend-mode:multiply" opacity="0.33">
<path d="M668.917 395.847V337.651H295.584V395.847H668.917Z" fill="#4E4E4E"/>
<path d="M668.917 395.847V337.651H295.584V395.847H668.917Z" stroke="#46505C" stroke-width="1.66667" stroke-linecap="round" stroke-linejoin="round"/>
</g>
<g style="mix-blend-mode:multiply" opacity="0.33">
<path d="M675.585 404.863H288.919C276.032 404.863 265.585 415.303 265.585 428.181V668.021C265.585 680.899 276.032 691.339 288.919 691.339H675.585C688.472 691.339 698.919 680.899 698.919 668.021V428.181C698.919 415.303 688.472 404.863 675.585 404.863Z" fill="#4E4E4E"/>
</g>
<g style="mix-blend-mode:multiply" opacity="0.33">
<path d="M692.252 668.021V428.18C692.252 418.982 684.79 411.525 675.586 411.525H288.919C279.714 411.525 272.252 418.982 272.252 428.18V668.021C272.252 677.22 279.714 684.677 288.919 684.677H675.586C684.79 684.677 692.252 677.22 692.252 668.021Z" fill="#4E4E4E"/>
<path d="M692.252 668.021V428.18C692.252 418.982 684.79 411.525 675.586 411.525H288.919C279.714 411.525 272.252 418.982 272.252 428.18V668.021C272.252 677.22 279.714 684.677 288.919 684.677H675.586C684.79 684.677 692.252 677.22 692.252 668.021Z" stroke="#E6F3FF" stroke-width="3.33333" stroke-miterlimit="10"/>
</g>
<g style="mix-blend-mode:multiply" opacity="0.33">
<path d="M455.501 678.311H509.001C510.769 678.311 512.465 679.013 513.715 680.262C514.965 681.512 515.668 683.206 515.668 684.973V691.336H448.834V684.973C448.834 683.206 449.537 681.512 450.787 680.262C452.037 679.013 453.733 678.311 455.501 678.311Z" fill="#4E4E4E"/>
</g>
<g style="mix-blend-mode:multiply" opacity="0.33">
<path d="M675.585 404.863H288.919C276.032 404.863 265.585 415.303 265.585 428.181V668.021C265.585 680.899 276.032 691.339 288.919 691.339H675.585C688.472 691.339 698.919 680.899 698.919 668.021V428.181C698.919 415.303 688.472 404.863 675.585 404.863Z" fill="#4E4E4E"/>
<path d="M675.585 404.863H288.919C276.032 404.863 265.585 415.303 265.585 428.181V668.021C265.585 680.899 276.032 691.339 288.919 691.339H675.585C688.472 691.339 698.919 680.899 698.919 668.021V428.181C698.919 415.303 688.472 404.863 675.585 404.863Z" stroke="#46505C" stroke-width="6.66667" stroke-linecap="round" stroke-linejoin="round"/>
</g>
<g style="mix-blend-mode:multiply" opacity="0.33">
<path d="M668.917 427.216H295.584C292.822 427.216 290.584 429.453 290.584 432.212V575.451C290.584 578.21 292.822 580.447 295.584 580.447H668.917C671.678 580.447 673.917 578.21 673.917 575.451V432.212C673.917 429.453 671.678 427.216 668.917 427.216Z" fill="#4E4E4E"/>
</g>
<g style="mix-blend-mode:multiply" opacity="0.33">
<path d="M364.058 542.973H344.059C343.138 542.973 342.392 543.719 342.392 544.639V564.625C342.392 565.545 343.138 566.291 344.059 566.291H364.058C364.979 566.291 365.725 565.545 365.725 564.625V544.639C365.725 543.719 364.979 542.973 364.058 542.973Z" fill="#4E4E4E"/>
<path d="M364.058 542.973H344.059C343.138 542.973 342.392 543.719 342.392 544.639V564.625C342.392 565.545 343.138 566.291 344.059 566.291H364.058C364.979 566.291 365.725 565.545 365.725 564.625V544.639C365.725 543.719 364.979 542.973 364.058 542.973Z" stroke="#626C84" stroke-width="1.66667" stroke-linecap="round" stroke-linejoin="round"/>
</g>
<g style="mix-blend-mode:multiply" opacity="0.33">
<path d="M327.993 542.973H307.993C307.073 542.973 306.327 543.719 306.327 544.639V564.625C306.327 565.545 307.073 566.291 307.993 566.291H327.993C328.914 566.291 329.66 565.545 329.66 564.625V544.639C329.66 543.719 328.914 542.973 327.993 542.973Z" fill="#4E4E4E"/>
<path d="M327.993 542.973H307.993C307.073 542.973 306.327 543.719 306.327 544.639V564.625C306.327 565.545 307.073 566.291 307.993 566.291H327.993C328.914 566.291 329.66 565.545 329.66 564.625V544.639C329.66 543.719 328.914 542.973 327.993 542.973Z" stroke="#626C84" stroke-width="1.66667" stroke-linecap="round" stroke-linejoin="round"/>
</g>
<g style="mix-blend-mode:multiply" opacity="0.33">
<path d="M544.379 542.973H380.122C379.202 542.973 378.456 543.719 378.456 544.639V564.625C378.456 565.545 379.202 566.291 380.122 566.291H544.379C545.299 566.291 546.046 565.545 546.046 564.625V544.639C546.046 543.719 545.299 542.973 544.379 542.973Z" fill="#4E4E4E"/>
<path d="M544.379 542.973H380.122C379.202 542.973 378.456 543.719 378.456 544.639V564.625C378.456 565.545 379.202 566.291 380.122 566.291H544.379C545.299 566.291 546.046 565.545 546.046 564.625V544.639C546.046 543.719 545.299 542.973 544.379 542.973Z" stroke="#626C84" stroke-width="1.66667" stroke-linecap="round" stroke-linejoin="round"/>
</g>
<g style="mix-blend-mode:multiply" opacity="0.33">
<path d="M580.444 542.973H560.444C559.523 542.973 558.777 543.719 558.777 544.639V564.625C558.777 565.545 559.523 566.291 560.444 566.291H580.444C581.364 566.291 582.111 565.545 582.111 564.625V544.639C582.111 543.719 581.364 542.973 580.444 542.973Z" fill="#4E4E4E"/>
<path d="M580.444 542.973H560.444C559.523 542.973 558.777 543.719 558.777 544.639V564.625C558.777 565.545 559.523 566.291 560.444 566.291H580.444C581.364 566.291 582.111 565.545 582.111 564.625V544.639C582.111 543.719 581.364 542.973 580.444 542.973Z" stroke="#626C84" stroke-width="1.66667" stroke-linecap="round" stroke-linejoin="round"/>
</g>
<g style="mix-blend-mode:multiply" opacity="0.33">
<path d="M633.176 556.088H619.842C618.922 556.088 618.176 556.834 618.176 557.754V564.624C618.176 565.544 618.922 566.29 619.842 566.29H633.176C634.096 566.29 634.842 565.544 634.842 564.624V557.754C634.842 556.834 634.096 556.088 633.176 556.088Z" fill="#4E4E4E"/>
<path d="M633.176 556.088H619.842C618.922 556.088 618.176 556.834 618.176 557.754V564.624C618.176 565.544 618.922 566.29 619.842 566.29H633.176C634.096 566.29 634.842 565.544 634.842 564.624V557.754C634.842 556.834 634.096 556.088 633.176 556.088Z" stroke="#626C84" stroke-width="1.66667" stroke-linecap="round" stroke-linejoin="round"/>
</g>
<g style="mix-blend-mode:multiply" opacity="0.33">
<path d="M633.176 542.973H619.842C618.922 542.973 618.176 543.719 618.176 544.639V551.509C618.176 552.429 618.922 553.175 619.842 553.175H633.176C634.096 553.175 634.842 552.429 634.842 551.509V544.639C634.842 543.719 634.096 542.973 633.176 542.973Z" fill="#4E4E4E"/>
<path d="M633.176 542.973H619.842C618.922 542.973 618.176 543.719 618.176 544.639V551.509C618.176 552.429 618.922 553.175 619.842 553.175H633.176C634.096 553.175 634.842 552.429 634.842 551.509V544.639C634.842 543.719 634.096 542.973 633.176 542.973Z" stroke="#626C84" stroke-width="1.66667" stroke-linecap="round" stroke-linejoin="round"/>
</g>
<g style="mix-blend-mode:multiply" opacity="0.33">
<path d="M656.509 556.088H643.176C642.255 556.088 641.509 556.834 641.509 557.754V564.624C641.509 565.544 642.255 566.29 643.176 566.29H656.509C657.43 566.29 658.176 565.544 658.176 564.624V557.754C658.176 556.834 657.43 556.088 656.509 556.088Z" fill="#4E4E4E"/>
<path d="M656.509 556.088H643.176C642.255 556.088 641.509 556.834 641.509 557.754V564.624C641.509 565.544 642.255 566.29 643.176 566.29H656.509C657.43 566.29 658.176 565.544 658.176 564.624V557.754C658.176 556.834 657.43 556.088 656.509 556.088Z" stroke="#626C84" stroke-width="1.66667" stroke-linecap="round" stroke-linejoin="round"/>
</g>
<g style="mix-blend-mode:multiply" opacity="0.33">
<path d="M609.843 556.088H596.509C595.589 556.088 594.843 556.834 594.843 557.754V564.624C594.843 565.544 595.589 566.29 596.509 566.29H609.843C610.763 566.29 611.509 565.544 611.509 564.624V557.754C611.509 556.834 610.763 556.088 609.843 556.088Z" fill="#4E4E4E"/>
<path d="M609.843 556.088H596.509C595.589 556.088 594.843 556.834 594.843 557.754V564.624C594.843 565.544 595.589 566.29 596.509 566.29H609.843C610.763 566.29 611.509 565.544 611.509 564.624V557.754C611.509 556.834 610.763 556.088 609.843 556.088Z" stroke="#626C84" stroke-width="1.66667" stroke-linecap="round" stroke-linejoin="round"/>
</g>
<g style="mix-blend-mode:multiply" opacity="0.33">
<path d="M360.725 509.793H307.993C307.073 509.793 306.327 510.539 306.327 511.459V531.445C306.327 532.365 307.073 533.111 307.993 533.111H360.725C361.645 533.111 362.392 532.365 362.392 531.445V511.459C362.392 510.539 361.645 509.793 360.725 509.793Z" fill="#4E4E4E"/>
<path d="M360.725 509.793H307.993C307.073 509.793 306.327 510.539 306.327 511.459V531.445C306.327 532.365 307.073 533.111 307.993 533.111H360.725C361.645 533.111 362.392 532.365 362.392 531.445V511.459C362.392 510.539 361.645 509.793 360.725 509.793Z" stroke="#626C84" stroke-width="1.66667" stroke-linecap="round" stroke-linejoin="round"/>
</g>
<g style="mix-blend-mode:multiply" opacity="0.33">
<path d="M397.09 509.793H377.09C376.169 509.793 375.423 510.539 375.423 511.459V531.445C375.423 532.365 376.169 533.111 377.09 533.111H397.09C398.01 533.111 398.757 532.365 398.757 531.445V511.459C398.757 510.539 398.01 509.793 397.09 509.793Z" fill="#4E4E4E"/>
<path d="M397.09 509.793H377.09C376.169 509.793 375.423 510.539 375.423 511.459V531.445C375.423 532.365 376.169 533.111 377.09 533.111H397.09C398.01 533.111 398.757 532.365 398.757 531.445V511.459C398.757 510.539 398.01 509.793 397.09 509.793Z" stroke="#626C84" stroke-width="1.66667" stroke-linecap="round" stroke-linejoin="round"/>
</g>
<g style="mix-blend-mode:multiply" opacity="0.33">
<path d="M433.155 509.793H413.155C412.235 509.793 411.489 510.539 411.489 511.459V531.445C411.489 532.365 412.235 533.111 413.155 533.111H433.155C434.076 533.111 434.822 532.365 434.822 531.445V511.459C434.822 510.539 434.076 509.793 433.155 509.793Z" fill="#4E4E4E"/>
<path d="M433.155 509.793H413.155C412.235 509.793 411.489 510.539 411.489 511.459V531.445C411.489 532.365 412.235 533.111 413.155 533.111H433.155C434.076 533.111 434.822 532.365 434.822 531.445V511.459C434.822 510.539 434.076 509.793 433.155 509.793Z" stroke="#626C84" stroke-width="1.66667" stroke-linecap="round" stroke-linejoin="round"/>
</g>
<g style="mix-blend-mode:multiply" opacity="0.33">
<path d="M469.219 509.793H449.219C448.299 509.793 447.552 510.539 447.552 511.459V531.445C447.552 532.365 448.299 533.111 449.219 533.111H469.219C470.139 533.111 470.886 532.365 470.886 531.445V511.459C470.886 510.539 470.139 509.793 469.219 509.793Z" fill="#4E4E4E"/>
<path d="M469.219 509.793H449.219C448.299 509.793 447.552 510.539 447.552 511.459V531.445C447.552 532.365 448.299 533.111 449.219 533.111H469.219C470.139 533.111 470.886 532.365 470.886 531.445V511.459C470.886 510.539 470.139 509.793 469.219 509.793Z" stroke="#626C84" stroke-width="1.66667" stroke-linecap="round" stroke-linejoin="round"/>
</g>
<g style="mix-blend-mode:multiply" opacity="0.33">
<path d="M505.283 509.793H485.283C484.363 509.793 483.617 510.539 483.617 511.459V531.445C483.617 532.365 484.363 533.111 485.283 533.111H505.283C506.204 533.111 506.95 532.365 506.95 531.445V511.459C506.95 510.539 506.204 509.793 505.283 509.793Z" fill="#4E4E4E"/>
<path d="M505.283 509.793H485.283C484.363 509.793 483.617 510.539 483.617 511.459V531.445C483.617 532.365 484.363 533.111 485.283 533.111H505.283C506.204 533.111 506.95 532.365 506.95 531.445V511.459C506.95 510.539 506.204 509.793 505.283 509.793Z" stroke="#626C84" stroke-width="1.66667" stroke-linecap="round" stroke-linejoin="round"/>
</g>
<g style="mix-blend-mode:multiply" opacity="0.33">
<path d="M541.347 509.793H521.347C520.427 509.793 519.68 510.539 519.68 511.459V531.445C519.68 532.365 520.427 533.111 521.347 533.111H541.347C542.268 533.111 543.014 532.365 543.014 531.445V511.459C543.014 510.539 542.268 509.793 541.347 509.793Z" fill="#4E4E4E"/>
<path d="M541.347 509.793H521.347C520.427 509.793 519.68 510.539 519.68 511.459V531.445C519.68 532.365 520.427 533.111 521.347 533.111H541.347C542.268 533.111 543.014 532.365 543.014 531.445V511.459C543.014 510.539 542.268 509.793 541.347 509.793Z" stroke="#626C84" stroke-width="1.66667" stroke-linecap="round" stroke-linejoin="round"/>
</g>
<g style="mix-blend-mode:multiply" opacity="0.33">
<path d="M577.412 509.793H557.412C556.492 509.793 555.746 510.539 555.746 511.459V531.445C555.746 532.365 556.492 533.111 557.412 533.111H577.412C578.333 533.111 579.079 532.365 579.079 531.445V511.459C579.079 510.539 578.333 509.793 577.412 509.793Z" fill="#4E4E4E"/>
<path d="M577.412 509.793H557.412C556.492 509.793 555.746 510.539 555.746 511.459V531.445C555.746 532.365 556.492 533.111 557.412 533.111H577.412C578.333 533.111 579.079 532.365 579.079 531.445V511.459C579.079 510.539 578.333 509.793 577.412 509.793Z" stroke="#626C84" stroke-width="1.66667" stroke-linecap="round" stroke-linejoin="round"/>
</g>
<g style="mix-blend-mode:multiply" opacity="0.33">
<path d="M656.509 509.793H596.509C595.589 509.793 594.843 510.539 594.843 511.459V531.445C594.843 532.365 595.589 533.111 596.509 533.111H656.509C657.43 533.111 658.176 532.365 658.176 531.445V511.459C658.176 510.539 657.43 509.793 656.509 509.793Z" fill="#4E4E4E"/>
<path d="M656.509 509.793H596.509C595.589 509.793 594.843 510.539 594.843 511.459V531.445C594.843 532.365 595.589 533.111 596.509 533.111H656.509C657.43 533.111 658.176 532.365 658.176 531.445V511.459C658.176 510.539 657.43 509.793 656.509 509.793Z" stroke="#626C84" stroke-width="1.66667" stroke-linecap="round" stroke-linejoin="round"/>
</g>
<g style="mix-blend-mode:multiply" opacity="0.33">
<path d="M384.058 475.684H364.058C363.138 475.684 362.392 476.43 362.392 477.35V497.336C362.392 498.256 363.138 499.002 364.058 499.002H384.058C384.979 499.002 385.725 498.256 385.725 497.336V477.35C385.725 476.43 384.979 475.684 384.058 475.684Z" fill="#4E4E4E"/>
<path d="M384.058 475.684H364.058C363.138 475.684 362.392 476.43 362.392 477.35V497.336C362.392 498.256 363.138 499.002 364.058 499.002H384.058C384.979 499.002 385.725 498.256 385.725 497.336V477.35C385.725 476.43 384.979 475.684 384.058 475.684Z" stroke="#626C84" stroke-width="1.66667" stroke-linecap="round" stroke-linejoin="round"/>
</g>
<g style="mix-blend-mode:multiply" opacity="0.33">
<path d="M347.993 475.684H307.993C307.073 475.684 306.327 476.43 306.327 477.35V497.336C306.327 498.256 307.073 499.002 307.993 499.002H347.993C348.914 499.002 349.66 498.256 349.66 497.336V477.35C349.66 476.43 348.914 475.684 347.993 475.684Z" fill="#4E4E4E"/>
<path d="M347.993 475.684H307.993C307.073 475.684 306.327 476.43 306.327 477.35V497.336C306.327 498.256 307.073 499.002 307.993 499.002H347.993C348.914 499.002 349.66 498.256 349.66 497.336V477.35C349.66 476.43 348.914 475.684 347.993 475.684Z" stroke="#626C84" stroke-width="1.66667" stroke-linecap="round" stroke-linejoin="round"/>
</g>
<g style="mix-blend-mode:multiply" opacity="0.33">
<path d="M420.122 475.684H400.122C399.202 475.684 398.456 476.43 398.456 477.35V497.336C398.456 498.256 399.202 499.002 400.122 499.002H420.122C421.043 499.002 421.789 498.256 421.789 497.336V477.35C421.789 476.43 421.043 475.684 420.122 475.684Z" fill="#4E4E4E"/>
<path d="M420.122 475.684H400.122C399.202 475.684 398.456 476.43 398.456 477.35V497.336C398.456 498.256 399.202 499.002 400.122 499.002H420.122C421.043 499.002 421.789 498.256 421.789 497.336V477.35C421.789 476.43 421.043 475.684 420.122 475.684Z" stroke="#626C84" stroke-width="1.66667" stroke-linecap="round" stroke-linejoin="round"/>
</g>
<g style="mix-blend-mode:multiply" opacity="0.33">
<path d="M456.187 475.684H436.187C435.266 475.684 434.52 476.43 434.52 477.35V497.336C434.52 498.256 435.266 499.002 436.187 499.002H456.187C457.107 499.002 457.853 498.256 457.853 497.336V477.35C457.853 476.43 457.107 475.684 456.187 475.684Z" fill="#4E4E4E"/>
<path d="M456.187 475.684H436.187C435.266 475.684 434.52 476.43 434.52 477.35V497.336C434.52 498.256 435.266 499.002 436.187 499.002H456.187C457.107 499.002 457.853 498.256 457.853 497.336V477.35C457.853 476.43 457.107 475.684 456.187 475.684Z" stroke="#626C84" stroke-width="1.66667" stroke-linecap="round" stroke-linejoin="round"/>
</g>
<g style="mix-blend-mode:multiply" opacity="0.33">
<path d="M492.25 475.684H472.25C471.33 475.684 470.584 476.43 470.584 477.35V497.336C470.584 498.256 471.33 499.002 472.25 499.002H492.25C493.171 499.002 493.917 498.256 493.917 497.336V477.35C493.917 476.43 493.171 475.684 492.25 475.684Z" fill="#4E4E4E"/>
<path d="M492.25 475.684H472.25C471.33 475.684 470.584 476.43 470.584 477.35V497.336C470.584 498.256 471.33 499.002 472.25 499.002H492.25C493.171 499.002 493.917 498.256 493.917 497.336V477.35C493.917 476.43 493.171 475.684 492.25 475.684Z" stroke="#626C84" stroke-width="1.66667" stroke-linecap="round" stroke-linejoin="round"/>
</g>
<g style="mix-blend-mode:multiply" opacity="0.33">
<path d="M528.316 475.684H508.316C507.395 475.684 506.649 476.43 506.649 477.35V497.336C506.649 498.256 507.395 499.002 508.316 499.002H528.316C529.236 499.002 529.982 498.256 529.982 497.336V477.35C529.982 476.43 529.236 475.684 528.316 475.684Z" fill="#4E4E4E"/>
<path d="M528.316 475.684H508.316C507.395 475.684 506.649 476.43 506.649 477.35V497.336C506.649 498.256 507.395 499.002 508.316 499.002H528.316C529.236 499.002 529.982 498.256 529.982 497.336V477.35C529.982 476.43 529.236 475.684 528.316 475.684Z" stroke="#626C84" stroke-width="1.66667" stroke-linecap="round" stroke-linejoin="round"/>
</g>
<g style="mix-blend-mode:multiply" opacity="0.33">
<path d="M564.38 475.684H544.38C543.46 475.684 542.713 476.43 542.713 477.35V497.336C542.713 498.256 543.46 499.002 544.38 499.002H564.38C565.301 499.002 566.047 498.256 566.047 497.336V477.35C566.047 476.43 565.301 475.684 564.38 475.684Z" fill="#4E4E4E"/>
<path d="M564.38 475.684H544.38C543.46 475.684 542.713 476.43 542.713 477.35V497.336C542.713 498.256 543.46 499.002 544.38 499.002H564.38C565.301 499.002 566.047 498.256 566.047 497.336V477.35C566.047 476.43 565.301 475.684 564.38 475.684Z" stroke="#626C84" stroke-width="1.66667" stroke-linecap="round" stroke-linejoin="round"/>
</g>
<g style="mix-blend-mode:multiply" opacity="0.33">
<path d="M600.444 475.684H580.444C579.523 475.684 578.777 476.43 578.777 477.35V497.336C578.777 498.256 579.523 499.002 580.444 499.002H600.444C601.364 499.002 602.111 498.256 602.111 497.336V477.35C602.111 476.43 601.364 475.684 600.444 475.684Z" fill="#4E4E4E"/>
<path d="M600.444 475.684H580.444C579.523 475.684 578.777 476.43 578.777 477.35V497.336C578.777 498.256 579.523 499.002 580.444 499.002H600.444C601.364 499.002 602.111 498.256 602.111 497.336V477.35C602.111 476.43 601.364 475.684 600.444 475.684Z" stroke="#626C84" stroke-width="1.66667" stroke-linecap="round" stroke-linejoin="round"/>
</g>
<g style="mix-blend-mode:multiply" opacity="0.33">
<path d="M656.509 475.684H616.509C615.589 475.684 614.843 476.43 614.843 477.35V497.336C614.843 498.256 615.589 499.002 616.509 499.002H656.509C657.43 499.002 658.176 498.256 658.176 497.336V477.35C658.176 476.43 657.43 475.684 656.509 475.684Z" fill="#4E4E4E"/>
<path d="M656.509 475.684H616.509C615.589 475.684 614.843 476.43 614.843 477.35V497.336C614.843 498.256 615.589 499.002 616.509 499.002H656.509C657.43 499.002 658.176 498.256 658.176 497.336V477.35C658.176 476.43 657.43 475.684 656.509 475.684Z" stroke="#626C84" stroke-width="1.66667" stroke-linecap="round" stroke-linejoin="round"/>
</g>
<g style="mix-blend-mode:multiply" opacity="0.33">
<path d="M364.495 443.039H344.495C343.575 443.039 342.829 443.784 342.829 444.704V464.691C342.829 465.611 343.575 466.356 344.495 466.356H364.495C365.416 466.356 366.162 465.611 366.162 464.691V444.704C366.162 443.784 365.416 443.039 364.495 443.039Z" fill="#4E4E4E"/>
<path d="M364.495 443.039H344.495C343.575 443.039 342.829 443.784 342.829 444.704V464.691C342.829 465.611 343.575 466.356 344.495 466.356H364.495C365.416 466.356 366.162 465.611 366.162 464.691V444.704C366.162 443.784 365.416 443.039 364.495 443.039Z" stroke="#626C84" stroke-width="1.66667" stroke-linecap="round" stroke-linejoin="round"/>
</g>
<g style="mix-blend-mode:multiply" opacity="0.33">
<path d="M327.993 443.039H307.993C307.073 443.039 306.327 443.784 306.327 444.704V464.691C306.327 465.611 307.073 466.356 307.993 466.356H327.993C328.914 466.356 329.66 465.611 329.66 464.691V444.704C329.66 443.784 328.914 443.039 327.993 443.039Z" fill="#4E4E4E"/>
<path d="M327.993 443.039H307.993C307.073 443.039 306.327 443.784 306.327 444.704V464.691C306.327 465.611 307.073 466.356 307.993 466.356H327.993C328.914 466.356 329.66 465.611 329.66 464.691V444.704C329.66 443.784 328.914 443.039 327.993 443.039Z" stroke="#626C84" stroke-width="1.66667" stroke-linecap="round" stroke-linejoin="round"/>
</g>
<g style="mix-blend-mode:multiply" opacity="0.33">
<path d="M400.997 443.039H380.997C380.077 443.039 379.33 443.784 379.33 444.704V464.691C379.33 465.611 380.077 466.356 380.997 466.356H400.997C401.918 466.356 402.664 465.611 402.664 464.691V444.704C402.664 443.784 401.918 443.039 400.997 443.039Z" fill="#4E4E4E"/>
<path d="M400.997 443.039H380.997C380.077 443.039 379.33 443.784 379.33 444.704V464.691C379.33 465.611 380.077 466.356 380.997 466.356H400.997C401.918 466.356 402.664 465.611 402.664 464.691V444.704C402.664 443.784 401.918 443.039 400.997 443.039Z" stroke="#626C84" stroke-width="1.66667" stroke-linecap="round" stroke-linejoin="round"/>
</g>
<g style="mix-blend-mode:multiply" opacity="0.33">
<path d="M437.498 443.039H417.498C416.578 443.039 415.832 443.784 415.832 444.704V464.691C415.832 465.611 416.578 466.356 417.498 466.356H437.498C438.419 466.356 439.165 465.611 439.165 464.691V444.704C439.165 443.784 438.419 443.039 437.498 443.039Z" fill="#4E4E4E"/>
<path d="M437.498 443.039H417.498C416.578 443.039 415.832 443.784 415.832 444.704V464.691C415.832 465.611 416.578 466.356 417.498 466.356H437.498C438.419 466.356 439.165 465.611 439.165 464.691V444.704C439.165 443.784 438.419 443.039 437.498 443.039Z" stroke="#626C84" stroke-width="1.66667" stroke-linecap="round" stroke-linejoin="round"/>
</g>
<g style="mix-blend-mode:multiply" opacity="0.33">
<path d="M474 443.039H454C453.08 443.039 452.333 443.784 452.333 444.704V464.691C452.333 465.611 453.08 466.356 454 466.356H474C474.921 466.356 475.667 465.611 475.667 464.691V444.704C475.667 443.784 474.921 443.039 474 443.039Z" fill="#4E4E4E"/>
<path d="M474 443.039H454C453.08 443.039 452.333 443.784 452.333 444.704V464.691C452.333 465.611 453.08 466.356 454 466.356H474C474.921 466.356 475.667 465.611 475.667 464.691V444.704C475.667 443.784 474.921 443.039 474 443.039Z" stroke="#626C84" stroke-width="1.66667" stroke-linecap="round" stroke-linejoin="round"/>
</g>
<g style="mix-blend-mode:multiply" opacity="0.33">
<path d="M510.502 443.039H490.502C489.582 443.039 488.836 443.784 488.836 444.704V464.691C488.836 465.611 489.582 466.356 490.502 466.356H510.502C511.423 466.356 512.169 465.611 512.169 464.691V444.704C512.169 443.784 511.423 443.039 510.502 443.039Z" fill="#4E4E4E"/>
<path d="M510.502 443.039H490.502C489.582 443.039 488.836 443.784 488.836 444.704V464.691C488.836 465.611 489.582 466.356 490.502 466.356H510.502C511.423 466.356 512.169 465.611 512.169 464.691V444.704C512.169 443.784 511.423 443.039 510.502 443.039Z" stroke="#626C84" stroke-width="1.66667" stroke-linecap="round" stroke-linejoin="round"/>
</g>
<g style="mix-blend-mode:multiply" opacity="0.33">
<path d="M547.004 443.039H527.004C526.083 443.039 525.337 443.784 525.337 444.704V464.691C525.337 465.611 526.083 466.356 527.004 466.356H547.004C547.924 466.356 548.671 465.611 548.671 464.691V444.704C548.671 443.784 547.924 443.039 547.004 443.039Z" fill="#4E4E4E"/>
<path d="M547.004 443.039H527.004C526.083 443.039 525.337 443.784 525.337 444.704V464.691C525.337 465.611 526.083 466.356 527.004 466.356H547.004C547.924 466.356 548.671 465.611 548.671 464.691V444.704C548.671 443.784 547.924 443.039 547.004 443.039Z" stroke="#626C84" stroke-width="1.66667" stroke-linecap="round" stroke-linejoin="round"/>
</g>
<g style="mix-blend-mode:multiply" opacity="0.33">
<path d="M583.505 443.039H563.505C562.585 443.039 561.839 443.784 561.839 444.704V464.691C561.839 465.611 562.585 466.356 563.505 466.356H583.505C584.426 466.356 585.172 465.611 585.172 464.691V444.704C585.172 443.784 584.426 443.039 583.505 443.039Z" fill="#4E4E4E"/>
<path d="M583.505 443.039H563.505C562.585 443.039 561.839 443.784 561.839 444.704V464.691C561.839 465.611 562.585 466.356 563.505 466.356H583.505C584.426 466.356 585.172 465.611 585.172 464.691V444.704C585.172 443.784 584.426 443.039 583.505 443.039Z" stroke="#626C84" stroke-width="1.66667" stroke-linecap="round" stroke-linejoin="round"/>
</g>
<g style="mix-blend-mode:multiply" opacity="0.33">
<path d="M620.007 443.039H600.007C599.086 443.039 598.34 443.784 598.34 444.704V464.691C598.34 465.611 599.086 466.356 600.007 466.356H620.007C620.927 466.356 621.674 465.611 621.674 464.691V444.704C621.674 443.784 620.927 443.039 620.007 443.039Z" fill="#4E4E4E"/>
<path d="M620.007 443.039H600.007C599.086 443.039 598.34 443.784 598.34 444.704V464.691C598.34 465.611 599.086 466.356 600.007 466.356H620.007C620.927 466.356 621.674 465.611 621.674 464.691V444.704C621.674 443.784 620.927 443.039 620.007 443.039Z" stroke="#626C84" stroke-width="1.66667" stroke-linecap="round" stroke-linejoin="round"/>
</g>
<g style="mix-blend-mode:multiply" opacity="0.33">
<path d="M656.509 443.039H636.509C635.589 443.039 634.842 443.784 634.842 444.704V464.691C634.842 465.611 635.589 466.356 636.509 466.356H656.509C657.43 466.356 658.176 465.611 658.176 464.691V444.704C658.176 443.784 657.43 443.039 656.509 443.039Z" fill="#4E4E4E"/>
<path d="M656.509 443.039H636.509C635.589 443.039 634.842 443.784 634.842 444.704V464.691C634.842 465.611 635.589 466.356 636.509 466.356H656.509C657.43 466.356 658.176 465.611 658.176 464.691V444.704C658.176 443.784 657.43 443.039 656.509 443.039Z" stroke="#626C84" stroke-width="1.66667" stroke-linecap="round" stroke-linejoin="round"/>
</g>
<g style="mix-blend-mode:multiply" opacity="0.33">
<path d="M364.058 542.973H344.059C343.138 542.973 342.392 543.719 342.392 544.639V564.625C342.392 565.545 343.138 566.291 344.059 566.291H364.058C364.979 566.291 365.725 565.545 365.725 564.625V544.639C365.725 543.719 364.979 542.973 364.058 542.973Z" fill="#4E4E4E"/>
</g>
<g style="mix-blend-mode:multiply" opacity="0.33">
<path d="M327.993 542.973H307.993C307.073 542.973 306.327 543.719 306.327 544.639V564.625C306.327 565.545 307.073 566.291 307.993 566.291H327.993C328.914 566.291 329.66 565.545 329.66 564.625V544.639C329.66 543.719 328.914 542.973 327.993 542.973Z" fill="#4E4E4E"/>
</g>
<g style="mix-blend-mode:multiply" opacity="0.33">
<path d="M544.379 542.973H380.122C379.202 542.973 378.456 543.719 378.456 544.639V564.625C378.456 565.545 379.202 566.291 380.122 566.291H544.379C545.299 566.291 546.046 565.545 546.046 564.625V544.639C546.046 543.719 545.299 542.973 544.379 542.973Z" fill="#4E4E4E"/>
</g>
<g style="mix-blend-mode:multiply" opacity="0.33">
<path d="M580.444 542.973H560.444C559.523 542.973 558.777 543.719 558.777 544.639V564.625C558.777 565.545 559.523 566.291 560.444 566.291H580.444C581.364 566.291 582.111 565.545 582.111 564.625V544.639C582.111 543.719 581.364 542.973 580.444 542.973Z" fill="#4E4E4E"/>
</g>
<g style="mix-blend-mode:multiply" opacity="0.33">
<path d="M633.176 556.088H619.842C618.922 556.088 618.176 556.834 618.176 557.754V564.624C618.176 565.544 618.922 566.29 619.842 566.29H633.176C634.096 566.29 634.842 565.544 634.842 564.624V557.754C634.842 556.834 634.096 556.088 633.176 556.088Z" fill="#4E4E4E"/>
</g>
<g style="mix-blend-mode:multiply" opacity="0.33">
<path d="M633.176 542.973H619.842C618.922 542.973 618.176 543.719 618.176 544.639V551.509C618.176 552.429 618.922 553.175 619.842 553.175H633.176C634.096 553.175 634.842 552.429 634.842 551.509V544.639C634.842 543.719 634.096 542.973 633.176 542.973Z" fill="#4E4E4E"/>
</g>
<g style="mix-blend-mode:multiply" opacity="0.33">
<path d="M656.509 556.088H643.176C642.255 556.088 641.509 556.834 641.509 557.754V564.624C641.509 565.544 642.255 566.29 643.176 566.29H656.509C657.43 566.29 658.176 565.544 658.176 564.624V557.754C658.176 556.834 657.43 556.088 656.509 556.088Z" fill="#4E4E4E"/>
</g>
<g style="mix-blend-mode:multiply" opacity="0.33">
<path d="M609.843 556.088H596.509C595.589 556.088 594.843 556.834 594.843 557.754V564.624C594.843 565.544 595.589 566.29 596.509 566.29H609.843C610.763 566.29 611.509 565.544 611.509 564.624V557.754C611.509 556.834 610.763 556.088 609.843 556.088Z" fill="#4E4E4E"/>
</g>
<g style="mix-blend-mode:multiply" opacity="0.33">
<path d="M360.725 509.793H307.993C307.073 509.793 306.327 510.539 306.327 511.459V531.445C306.327 532.365 307.073 533.111 307.993 533.111H360.725C361.645 533.111 362.392 532.365 362.392 531.445V511.459C362.392 510.539 361.645 509.793 360.725 509.793Z" fill="#4E4E4E"/>
</g>
<g style="mix-blend-mode:multiply" opacity="0.33">
<path d="M397.09 509.793H377.09C376.169 509.793 375.423 510.539 375.423 511.459V531.445C375.423 532.365 376.169 533.111 377.09 533.111H397.09C398.01 533.111 398.757 532.365 398.757 531.445V511.459C398.757 510.539 398.01 509.793 397.09 509.793Z" fill="#4E4E4E"/>
</g>
<g style="mix-blend-mode:multiply" opacity="0.33">
<path d="M433.155 509.793H413.155C412.235 509.793 411.489 510.539 411.489 511.459V531.445C411.489 532.365 412.235 533.111 413.155 533.111H433.155C434.076 533.111 434.822 532.365 434.822 531.445V511.459C434.822 510.539 434.076 509.793 433.155 509.793Z" fill="#4E4E4E"/>
</g>
<g style="mix-blend-mode:multiply" opacity="0.33">
<path d="M469.219 509.793H449.219C448.299 509.793 447.552 510.539 447.552 511.459V531.445C447.552 532.365 448.299 533.111 449.219 533.111H469.219C470.139 533.111 470.886 532.365 470.886 531.445V511.459C470.886 510.539 470.139 509.793 469.219 509.793Z" fill="#4E4E4E"/>
</g>
<g style="mix-blend-mode:multiply" opacity="0.33">
<path d="M505.283 509.793H485.283C484.363 509.793 483.617 510.539 483.617 511.459V531.445C483.617 532.365 484.363 533.111 485.283 533.111H505.283C506.204 533.111 506.95 532.365 506.95 531.445V511.459C506.95 510.539 506.204 509.793 505.283 509.793Z" fill="#4E4E4E"/>
</g>
<g style="mix-blend-mode:multiply" opacity="0.33">
<path d="M541.347 509.793H521.347C520.427 509.793 519.68 510.539 519.68 511.459V531.445C519.68 532.365 520.427 533.111 521.347 533.111H541.347C542.268 533.111 543.014 532.365 543.014 531.445V511.459C543.014 510.539 542.268 509.793 541.347 509.793Z" fill="#4E4E4E"/>
</g>
<g style="mix-blend-mode:multiply" opacity="0.33">
<path d="M577.412 509.793H557.412C556.492 509.793 555.746 510.539 555.746 511.459V531.445C555.746 532.365 556.492 533.111 557.412 533.111H577.412C578.333 533.111 579.079 532.365 579.079 531.445V511.459C579.079 510.539 578.333 509.793 577.412 509.793Z" fill="#4E4E4E"/>
</g>
<g style="mix-blend-mode:multiply" opacity="0.33">
<path d="M656.509 509.793H596.509C595.589 509.793 594.843 510.539 594.843 511.459V531.445C594.843 532.365 595.589 533.111 596.509 533.111H656.509C657.43 533.111 658.176 532.365 658.176 531.445V511.459C658.176 510.539 657.43 509.793 656.509 509.793Z" fill="#4E4E4E"/>
</g>
<g style="mix-blend-mode:multiply" opacity="0.33">
<path d="M384.058 475.684H364.058C363.138 475.684 362.392 476.43 362.392 477.35V497.336C362.392 498.256 363.138 499.002 364.058 499.002H384.058C384.979 499.002 385.725 498.256 385.725 497.336V477.35C385.725 476.43 384.979 475.684 384.058 475.684Z" fill="#4E4E4E"/>
</g>
<g style="mix-blend-mode:multiply" opacity="0.33">
<path d="M347.993 475.684H307.993C307.073 475.684 306.327 476.43 306.327 477.35V497.336C306.327 498.256 307.073 499.002 307.993 499.002H347.993C348.914 499.002 349.66 498.256 349.66 497.336V477.35C349.66 476.43 348.914 475.684 347.993 475.684Z" fill="#4E4E4E"/>
</g>
<g style="mix-blend-mode:multiply" opacity="0.33">
<path d="M420.122 475.684H400.122C399.202 475.684 398.456 476.43 398.456 477.35V497.336C398.456 498.256 399.202 499.002 400.122 499.002H420.122C421.043 499.002 421.789 498.256 421.789 497.336V477.35C421.789 476.43 421.043 475.684 420.122 475.684Z" fill="#4E4E4E"/>
</g>
<g style="mix-blend-mode:multiply" opacity="0.33">
<path d="M456.187 475.684H436.187C435.266 475.684 434.52 476.43 434.52 477.35V497.336C434.52 498.256 435.266 499.002 436.187 499.002H456.187C457.107 499.002 457.853 498.256 457.853 497.336V477.35C457.853 476.43 457.107 475.684 456.187 475.684Z" fill="#4E4E4E"/>
</g>
<g style="mix-blend-mode:multiply" opacity="0.33">
<path d="M492.25 475.684H472.25C471.33 475.684 470.584 476.43 470.584 477.35V497.336C470.584 498.256 471.33 499.002 472.25 499.002H492.25C493.171 499.002 493.917 498.256 493.917 497.336V477.35C493.917 476.43 493.171 475.684 492.25 475.684Z" fill="#4E4E4E"/>
</g>
<g style="mix-blend-mode:multiply" opacity="0.33">
<path d="M528.316 475.684H508.316C507.395 475.684 506.649 476.43 506.649 477.35V497.336C506.649 498.256 507.395 499.002 508.316 499.002H528.316C529.236 499.002 529.982 498.256 529.982 497.336V477.35C529.982 476.43 529.236 475.684 528.316 475.684Z" fill="#4E4E4E"/>
</g>
<g style="mix-blend-mode:multiply" opacity="0.33">
<path d="M564.38 475.684H544.38C543.46 475.684 542.713 476.43 542.713 477.35V497.336C542.713 498.256 543.46 499.002 544.38 499.002H564.38C565.301 499.002 566.047 498.256 566.047 497.336V477.35C566.047 476.43 565.301 475.684 564.38 475.684Z" fill="#4E4E4E"/>
</g>
<g style="mix-blend-mode:multiply" opacity="0.33">
<path d="M600.444 475.684H580.444C579.523 475.684 578.777 476.43 578.777 477.35V497.336C578.777 498.256 579.523 499.002 580.444 499.002H600.444C601.364 499.002 602.111 498.256 602.111 497.336V477.35C602.111 476.43 601.364 475.684 600.444 475.684Z" fill="#4E4E4E"/>
</g>
<g style="mix-blend-mode:multiply" opacity="0.33">
<path d="M656.509 475.684H616.509C615.589 475.684 614.843 476.43 614.843 477.35V497.336C614.843 498.256 615.589 499.002 616.509 499.002H656.509C657.43 499.002 658.176 498.256 658.176 497.336V477.35C658.176 476.43 657.43 475.684 656.509 475.684Z" fill="#4E4E4E"/>
</g>
<g style="mix-blend-mode:multiply" opacity="0.33">
<path d="M364.495 443.039H344.495C343.575 443.039 342.829 443.784 342.829 444.704V464.691C342.829 465.611 343.575 466.356 344.495 466.356H364.495C365.416 466.356 366.162 465.611 366.162 464.691V444.704C366.162 443.784 365.416 443.039 364.495 443.039Z" fill="#4E4E4E"/>
</g>
<g style="mix-blend-mode:multiply" opacity="0.33">
<path d="M327.993 443.039H307.993C307.073 443.039 306.327 443.784 306.327 444.704V464.691C306.327 465.611 307.073 466.356 307.993 466.356H327.993C328.914 466.356 329.66 465.611 329.66 464.691V444.704C329.66 443.784 328.914 443.039 327.993 443.039Z" fill="#4E4E4E"/>
</g>
<g style="mix-blend-mode:multiply" opacity="0.33">
<path d="M400.997 443.039H380.997C380.077 443.039 379.33 443.784 379.33 444.704V464.691C379.33 465.611 380.077 466.356 380.997 466.356H400.997C401.918 466.356 402.664 465.611 402.664 464.691V444.704C402.664 443.784 401.918 443.039 400.997 443.039Z" fill="#4E4E4E"/>
</g>
<g style="mix-blend-mode:multiply" opacity="0.33">
<path d="M437.498 443.039H417.498C416.578 443.039 415.832 443.784 415.832 444.704V464.691C415.832 465.611 416.578 466.356 417.498 466.356H437.498C438.419 466.356 439.165 465.611 439.165 464.691V444.704C439.165 443.784 438.419 443.039 437.498 443.039Z" fill="#4E4E4E"/>
</g>
<g style="mix-blend-mode:multiply" opacity="0.33">
<path d="M474 443.039H454C453.08 443.039 452.333 443.784 452.333 444.704V464.691C452.333 465.611 453.08 466.356 454 466.356H474C474.921 466.356 475.667 465.611 475.667 464.691V444.704C475.667 443.784 474.921 443.039 474 443.039Z" fill="#4E4E4E"/>
</g>
<g style="mix-blend-mode:multiply" opacity="0.33">
<path d="M510.502 443.039H490.502C489.582 443.039 488.836 443.784 488.836 444.704V464.691C488.836 465.611 489.582 466.356 490.502 466.356H510.502C511.423 466.356 512.169 465.611 512.169 464.691V444.704C512.169 443.784 511.423 443.039 510.502 443.039Z" fill="#4E4E4E"/>
</g>
<g style="mix-blend-mode:multiply" opacity="0.33">
<path d="M547.004 443.039H527.004C526.083 443.039 525.337 443.784 525.337 444.704V464.691C525.337 465.611 526.083 466.356 527.004 466.356H547.004C547.924 466.356 548.671 465.611 548.671 464.691V444.704C548.671 443.784 547.924 443.039 547.004 443.039Z" fill="#4E4E4E"/>
</g>
<g style="mix-blend-mode:multiply" opacity="0.33">
<path d="M583.505 443.039H563.505C562.585 443.039 561.839 443.784 561.839 444.704V464.691C561.839 465.611 562.585 466.356 563.505 466.356H583.505C584.426 466.356 585.172 465.611 585.172 464.691V444.704C585.172 443.784 584.426 443.039 583.505 443.039Z" fill="#4E4E4E"/>
</g>
<g style="mix-blend-mode:multiply" opacity="0.33">
<path d="M620.007 443.039H600.007C599.086 443.039 598.34 443.784 598.34 444.704V464.691C598.34 465.611 599.086 466.356 600.007 466.356H620.007C620.927 466.356 621.674 465.611 621.674 464.691V444.704C621.674 443.784 620.927 443.039 620.007 443.039Z" fill="#4E4E4E"/>
</g>
<g style="mix-blend-mode:multiply" opacity="0.33">
<path d="M656.509 443.039H636.509C635.589 443.039 634.842 443.784 634.842 444.704V464.691C634.842 465.611 635.589 466.356 636.509 466.356H656.509C657.43 466.356 658.176 465.611 658.176 464.691V444.704C658.176 443.784 657.43 443.039 656.509 443.039Z" fill="#4E4E4E"/>
</g>
<g style="mix-blend-mode:multiply" opacity="0.33">
<path d="M340.583 389.9H623.917V412.296C623.917 414.062 623.214 415.757 621.964 417.006C620.714 418.256 619.018 418.958 617.25 418.958H347.25C345.482 418.958 343.786 418.256 342.536 417.006C341.286 415.757 340.583 414.062 340.583 412.296V389.9Z" fill="#4E4E4E"/>
</g>
<g style="mix-blend-mode:multiply" opacity="0.25">
<path d="M617.25 412.294H347.25C345.482 412.294 343.786 411.592 342.536 410.342C341.286 409.093 340.583 407.398 340.583 405.631V412.294C340.583 414.06 341.286 415.755 342.536 417.004C343.786 418.254 345.482 418.956 347.25 418.956H617.25C619.018 418.956 620.714 418.254 621.964 417.004C623.214 415.755 623.917 414.06 623.917 412.294V405.631C623.917 407.398 623.214 409.093 621.964 410.342C620.714 411.592 619.018 412.294 617.25 412.294Z" fill="#4E4E4E"/>
</g>
<g style="mix-blend-mode:multiply" opacity="0.33">
<path d="M340.583 389.9H623.917V412.296C623.917 414.062 623.214 415.757 621.964 417.006C620.714 418.256 619.018 418.958 617.25 418.958H347.25C345.482 418.958 343.786 418.256 342.536 417.006C341.286 415.757 340.583 414.062 340.583 412.296V389.9Z" fill="#4E4E4E"/>
<path d="M340.583 389.9H623.917V412.296C623.917 414.062 623.214 415.757 621.964 417.006C620.714 418.256 619.018 418.958 617.25 418.958H347.25C345.482 418.958 343.786 418.256 342.536 417.006C341.286 415.757 340.583 414.062 340.583 412.296V389.9Z" stroke="#46505C" stroke-width="3.33333" stroke-linecap="round" stroke-linejoin="round"/>
</g>
<g style="mix-blend-mode:multiply" opacity="0.33">
<path d="M540.585 588.774H423.919C422.078 588.774 420.585 590.266 420.585 592.106V670.387C420.585 672.226 422.078 673.718 423.919 673.718H540.585C542.426 673.718 543.919 672.226 543.919 670.387V592.106C543.919 590.266 542.426 588.774 540.585 588.774Z" fill="#4E4E4E"/>
</g>
<g style="mix-blend-mode:multiply" opacity="0.33">
<path d="M540.585 588.774H423.919C422.078 588.774 420.585 590.266 420.585 592.106V670.387C420.585 672.226 422.078 673.718 423.919 673.718H540.585C542.426 673.718 543.919 672.226 543.919 670.387V592.106C543.919 590.266 542.426 588.774 540.585 588.774Z" fill="#4E4E4E"/>
<path d="M540.585 588.774H423.919C422.078 588.774 420.585 590.266 420.585 592.106V670.387C420.585 672.226 422.078 673.718 423.919 673.718H540.585C542.426 673.718 543.919 672.226 543.919 670.387V592.106C543.919 590.266 542.426 588.774 540.585 588.774Z" stroke="#626C84" stroke-width="1.66667" stroke-linecap="round" stroke-linejoin="round"/>
</g>
</g>
<path d="M662.334 116.024H275.667C262.78 116.024 252.333 126.464 252.333 139.342V365.858C252.333 378.736 262.78 389.176 275.667 389.176H662.334C675.22 389.176 685.667 378.736 685.667 365.858V139.342C685.667 126.464 675.22 116.024 662.334 116.024Z" stroke="black" stroke-width="1.66667" stroke-linecap="round" stroke-linejoin="round"/>
<path d="M662.334 116.024H275.667C262.78 116.024 252.333 126.464 252.333 139.342V365.858C252.333 378.736 262.78 389.176 275.667 389.176H662.334C675.22 389.176 685.667 378.736 685.667 365.858V139.342C685.667 126.464 675.22 116.024 662.334 116.024Z" fill="#626C84"/>
<path d="M662.334 116.024H275.667C262.78 116.024 252.333 126.464 252.333 139.342V365.858C252.333 378.736 262.78 389.176 275.667 389.176H662.334C675.22 389.176 685.667 378.736 685.667 365.858V139.342C685.667 126.464 675.22 116.024 662.334 116.024Z" fill="#626C84"/>
<g style="mix-blend-mode:multiply" opacity="0.17">
<path d="M662.334 116.024H275.667C262.78 116.024 252.333 126.464 252.333 139.342V350.895C252.333 363.773 262.78 374.213 275.667 374.213H662.334C675.22 374.213 685.667 363.773 685.667 350.895V139.342C685.667 126.464 675.22 116.024 662.334 116.024Z" fill="#626C84"/>
</g>
<path opacity="0.1" d="M275.667 122.681H662.334C668.522 122.681 674.457 125.137 678.833 129.51C683.209 133.883 685.667 139.814 685.667 145.999V365.852V139.336C685.667 133.152 683.209 127.221 678.833 122.848C674.457 118.475 668.522 116.019 662.334 116.019H275.667C269.478 116.019 263.544 118.475 259.168 122.848C254.792 127.221 252.333 133.152 252.333 139.336V145.999C252.333 139.814 254.792 133.883 259.168 129.51C263.544 125.137 269.478 122.681 275.667 122.681Z" fill="white"/>
<g opacity="0.1">
<path opacity="0.1" d="M384.378 389.176H411.16L609.748 116.024H582.967L384.378 389.176Z" fill="white"/>
<path opacity="0.1" d="M426.61 389.176H434.85L633.44 116.024H625.198L426.61 389.176Z" fill="white"/>
</g>
<path d="M662.334 116.024H275.667C262.78 116.024 252.333 126.464 252.333 139.342V365.858C252.333 378.736 262.78 389.176 275.667 389.176H662.334C675.22 389.176 685.667 378.736 685.667 365.858V139.342C685.667 126.464 675.22 116.024 662.334 116.024Z" stroke="#46505C" stroke-width="6.66667" stroke-linecap="round" stroke-linejoin="round"/>
<path d="M655.667 356.664V146.804H282.334V356.664H655.667Z" fill="#0EA5E9"/>
<g opacity="0.06">
<path opacity="0.06" d="M409.682 356.664H436.464L589.037 146.804H562.255L409.682 356.664Z" fill="white"/>
<path opacity="0.06" d="M451.914 356.664H460.155L612.729 146.804H604.489L451.914 356.664Z" fill="white"/>
</g>
<path d="M655.667 356.664V146.804H282.334V356.664H655.667Z" stroke="#46505C" stroke-width="1.66667" stroke-linecap="round" stroke-linejoin="round"/>
<path d="M662.334 389.177H275.667C262.78 389.177 252.333 399.617 252.333 412.495V652.335C252.333 665.213 262.78 675.653 275.667 675.653H662.334C675.22 675.653 685.667 665.213 685.667 652.335V412.495C685.667 399.617 675.22 389.177 662.334 389.177Z" fill="#E6F3FF"/>
<path d="M679 652.336V412.495C679 403.297 671.538 395.84 662.333 395.84H275.667C266.462 395.84 259 403.297 259 412.495V652.336C259 661.535 266.462 668.992 275.667 668.992H662.333C671.538 668.992 679 661.535 679 652.336Z" fill="white" stroke="#E6F3FF" stroke-width="3.33333" stroke-miterlimit="10"/>
<path d="M442.249 662.628H495.749C497.517 662.628 499.212 663.33 500.463 664.579C501.713 665.829 502.415 667.523 502.415 669.29V675.653H435.582V669.29C435.582 667.523 436.284 665.829 437.535 664.579C438.785 663.33 440.481 662.628 442.249 662.628Z" fill="#E6F3FF"/>
<path d="M662.334 389.177H275.667C262.78 389.177 252.333 399.617 252.333 412.495V652.335C252.333 665.213 262.78 675.653 275.667 675.653H662.334C675.22 675.653 685.667 665.213 685.667 652.335V412.495C685.667 399.617 675.22 389.177 662.334 389.177Z" stroke="#46505C" stroke-width="6.66667" stroke-linecap="round" stroke-linejoin="round"/>
<path d="M655.667 411.526H282.333C279.572 411.526 277.333 413.763 277.333 416.523V559.761C277.333 562.521 279.572 564.758 282.333 564.758H655.667C658.428 564.758 660.667 562.521 660.667 559.761V416.523C660.667 413.763 658.428 411.526 655.667 411.526Z" fill="#E6F3FF"/>
<path d="M350.807 527.282H330.807C329.886 527.282 329.14 528.028 329.14 528.948V548.934C329.14 549.854 329.886 550.6 330.807 550.6H350.807C351.727 550.6 352.473 549.854 352.473 548.934V528.948C352.473 528.028 351.727 527.282 350.807 527.282Z" stroke="#626C84" stroke-width="1.66667" stroke-linecap="round" stroke-linejoin="round"/>
<path d="M314.743 527.282H294.743C293.822 527.282 293.076 528.028 293.076 528.948V548.934C293.076 549.854 293.822 550.6 294.743 550.6H314.743C315.663 550.6 316.41 549.854 316.41 548.934V528.948C316.41 528.028 315.663 527.282 314.743 527.282Z" stroke="#626C84" stroke-width="1.66667" stroke-linecap="round" stroke-linejoin="round"/>
<path d="M531.129 527.282H366.872C365.952 527.282 365.206 528.028 365.206 528.948V548.934C365.206 549.854 365.952 550.6 366.872 550.6H531.129C532.049 550.6 532.796 549.854 532.796 548.934V528.948C532.796 528.028 532.049 527.282 531.129 527.282Z" stroke="#626C84" stroke-width="1.66667" stroke-linecap="round" stroke-linejoin="round"/>
<path d="M567.193 527.282H547.193C546.273 527.282 545.526 528.028 545.526 528.948V548.934C545.526 549.854 546.273 550.6 547.193 550.6H567.193C568.113 550.6 568.86 549.854 568.86 548.934V528.948C568.86 528.028 568.113 527.282 567.193 527.282Z" stroke="#626C84" stroke-width="1.66667" stroke-linecap="round" stroke-linejoin="round"/>
<path d="M619.924 540.399H606.59C605.67 540.399 604.924 541.145 604.924 542.065V548.935C604.924 549.855 605.67 550.601 606.59 550.601H619.924C620.844 550.601 621.591 549.855 621.591 548.935V542.065C621.591 541.145 620.844 540.399 619.924 540.399Z" stroke="#626C84" stroke-width="1.66667" stroke-linecap="round" stroke-linejoin="round"/>
<path d="M619.924 527.282H606.59C605.67 527.282 604.924 528.028 604.924 528.948V535.818C604.924 536.738 605.67 537.484 606.59 537.484H619.924C620.844 537.484 621.591 536.738 621.591 535.818V528.948C621.591 528.028 620.844 527.282 619.924 527.282Z" stroke="#626C84" stroke-width="1.66667" stroke-linecap="round" stroke-linejoin="round"/>
<path d="M643.257 540.399H629.924C629.003 540.399 628.257 541.145 628.257 542.065V548.935C628.257 549.855 629.003 550.601 629.924 550.601H643.257C644.177 550.601 644.924 549.855 644.924 548.935V542.065C644.924 541.145 644.177 540.399 643.257 540.399Z" stroke="#626C84" stroke-width="1.66667" stroke-linecap="round" stroke-linejoin="round"/>
<path d="M596.59 540.399H583.257C582.337 540.399 581.59 541.145 581.59 542.065V548.935C581.59 549.855 582.337 550.601 583.257 550.601H596.59C597.511 550.601 598.257 549.855 598.257 548.935V542.065C598.257 541.145 597.511 540.399 596.59 540.399Z" stroke="#626C84" stroke-width="1.66667" stroke-linecap="round" stroke-linejoin="round"/>
<path d="M347.475 494.106H294.743C293.822 494.106 293.076 494.852 293.076 495.772V515.759C293.076 516.679 293.822 517.424 294.743 517.424H347.475C348.395 517.424 349.141 516.679 349.141 515.759V495.772C349.141 494.852 348.395 494.106 347.475 494.106Z" stroke="#626C84" stroke-width="1.66667" stroke-linecap="round" stroke-linejoin="round"/>
<path d="M383.84 494.106H363.84C362.919 494.106 362.173 494.852 362.173 495.772V515.759C362.173 516.679 362.919 517.424 363.84 517.424H383.84C384.76 517.424 385.506 516.679 385.506 515.759V495.772C385.506 494.852 384.76 494.106 383.84 494.106Z" stroke="#626C84" stroke-width="1.66667" stroke-linecap="round" stroke-linejoin="round"/>
<path d="M419.903 494.106H399.903C398.983 494.106 398.236 494.852 398.236 495.772V515.759C398.236 516.679 398.983 517.424 399.903 517.424H419.903C420.823 517.424 421.57 516.679 421.57 515.759V495.772C421.57 494.852 420.823 494.106 419.903 494.106Z" stroke="#626C84" stroke-width="1.66667" stroke-linecap="round" stroke-linejoin="round"/>
<path d="M455.968 494.106H435.968C435.048 494.106 434.302 494.852 434.302 495.772V515.759C434.302 516.679 435.048 517.424 435.968 517.424H455.968C456.889 517.424 457.635 516.679 457.635 515.759V495.772C457.635 494.852 456.889 494.106 455.968 494.106Z" stroke="#626C84" stroke-width="1.66667" stroke-linecap="round" stroke-linejoin="round"/>
<path d="M492.031 494.106H472.031C471.111 494.106 470.365 494.852 470.365 495.772V515.759C470.365 516.679 471.111 517.424 472.031 517.424H492.031C492.952 517.424 493.698 516.679 493.698 515.759V495.772C493.698 494.852 492.952 494.106 492.031 494.106Z" stroke="#626C84" stroke-width="1.66667" stroke-linecap="round" stroke-linejoin="round"/>
<path d="M528.096 494.106H508.096C507.176 494.106 506.43 494.852 506.43 495.772V515.759C506.43 516.679 507.176 517.424 508.096 517.424H528.096C529.017 517.424 529.763 516.679 529.763 515.759V495.772C529.763 494.852 529.017 494.106 528.096 494.106Z" stroke="#626C84" stroke-width="1.66667" stroke-linecap="round" stroke-linejoin="round"/>
<path d="M564.16 494.106H544.16C543.24 494.106 542.494 494.852 542.494 495.772V515.759C542.494 516.679 543.24 517.424 544.16 517.424H564.16C565.081 517.424 565.827 516.679 565.827 515.759V495.772C565.827 494.852 565.081 494.106 564.16 494.106Z" stroke="#626C84" stroke-width="1.66667" stroke-linecap="round" stroke-linejoin="round"/>
<path d="M643.257 494.106H583.257C582.337 494.106 581.59 494.852 581.59 495.772V515.759C581.59 516.679 582.337 517.424 583.257 517.424H643.257C644.177 517.424 644.924 516.679 644.924 515.759V495.772C644.924 494.852 644.177 494.106 643.257 494.106Z" stroke="#626C84" stroke-width="1.66667" stroke-linecap="round" stroke-linejoin="round"/>
<path d="M370.807 459.995H350.807C349.886 459.995 349.14 460.741 349.14 461.661V481.647C349.14 482.567 349.886 483.313 350.807 483.313H370.807C371.727 483.313 372.473 482.567 372.473 481.647V461.661C372.473 460.741 371.727 459.995 370.807 459.995Z" stroke="#626C84" stroke-width="1.66667" stroke-linecap="round" stroke-linejoin="round"/>
<path d="M334.743 459.995H294.743C293.822 459.995 293.076 460.741 293.076 461.661V481.647C293.076 482.567 293.822 483.313 294.743 483.313H334.743C335.663 483.313 336.41 482.567 336.41 481.647V461.661C336.41 460.741 335.663 459.995 334.743 459.995Z" stroke="#626C84" stroke-width="1.66667" stroke-linecap="round" stroke-linejoin="round"/>
<path d="M406.872 459.995H386.872C385.952 459.995 385.206 460.741 385.206 461.661V481.647C385.206 482.567 385.952 483.313 386.872 483.313H406.872C407.793 483.313 408.539 482.567 408.539 481.647V461.661C408.539 460.741 407.793 459.995 406.872 459.995Z" stroke="#626C84" stroke-width="1.66667" stroke-linecap="round" stroke-linejoin="round"/>
<path d="M442.934 459.995H422.934C422.014 459.995 421.268 460.741 421.268 461.661V481.647C421.268 482.567 422.014 483.313 422.934 483.313H442.934C443.855 483.313 444.601 482.567 444.601 481.647V461.661C444.601 460.741 443.855 459.995 442.934 459.995Z" stroke="#626C84" stroke-width="1.66667" stroke-linecap="round" stroke-linejoin="round"/>
<path d="M479 459.995H459C458.079 459.995 457.333 460.741 457.333 461.661V481.647C457.333 482.567 458.079 483.313 459 483.313H479C479.92 483.313 480.666 482.567 480.666 481.647V461.661C480.666 460.741 479.92 459.995 479 459.995Z" stroke="#626C84" stroke-width="1.66667" stroke-linecap="round" stroke-linejoin="round"/>
<path d="M515.065 459.995H495.065C494.145 459.995 493.398 460.741 493.398 461.661V481.647C493.398 482.567 494.145 483.313 495.065 483.313H515.065C515.986 483.313 516.732 482.567 516.732 481.647V461.661C516.732 460.741 515.986 459.995 515.065 459.995Z" stroke="#626C84" stroke-width="1.66667" stroke-linecap="round" stroke-linejoin="round"/>
<path d="M551.128 459.995H531.128C530.208 459.995 529.461 460.741 529.461 461.661V481.647C529.461 482.567 530.208 483.313 531.128 483.313H551.128C552.049 483.313 552.795 482.567 552.795 481.647V461.661C552.795 460.741 552.049 459.995 551.128 459.995Z" stroke="#626C84" stroke-width="1.66667" stroke-linecap="round" stroke-linejoin="round"/>
<path d="M587.193 459.995H567.193C566.273 459.995 565.526 460.741 565.526 461.661V481.647C565.526 482.567 566.273 483.313 567.193 483.313H587.193C588.113 483.313 588.86 482.567 588.86 481.647V461.661C588.86 460.741 588.113 459.995 587.193 459.995Z" stroke="#626C84" stroke-width="1.66667" stroke-linecap="round" stroke-linejoin="round"/>
<path d="M643.257 459.995H603.257C602.337 459.995 601.59 460.741 601.59 461.661V481.647C601.59 482.567 602.337 483.313 603.257 483.313H643.257C644.177 483.313 644.924 482.567 644.924 481.647V461.661C644.924 460.741 644.177 459.995 643.257 459.995Z" stroke="#626C84" stroke-width="1.66667" stroke-linecap="round" stroke-linejoin="round"/>
<path d="M351.245 427.35H331.245C330.325 427.35 329.579 428.095 329.579 429.015V449.002C329.579 449.922 330.325 450.667 331.245 450.667H351.245C352.166 450.667 352.912 449.922 352.912 449.002V429.015C352.912 428.095 352.166 427.35 351.245 427.35Z" stroke="#626C84" stroke-width="1.66667" stroke-linecap="round" stroke-linejoin="round"/>
<path d="M314.743 427.35H294.743C293.822 427.35 293.076 428.095 293.076 429.015V449.002C293.076 449.922 293.822 450.667 294.743 450.667H314.743C315.663 450.667 316.41 449.922 316.41 449.002V429.015C316.41 428.095 315.663 427.35 314.743 427.35Z" stroke="#626C84" stroke-width="1.66667" stroke-linecap="round" stroke-linejoin="round"/>
<path d="M387.747 427.35H367.747C366.826 427.35 366.08 428.095 366.08 429.015V449.002C366.08 449.922 366.826 450.667 367.747 450.667H387.747C388.667 450.667 389.413 449.922 389.413 449.002V429.015C389.413 428.095 388.667 427.35 387.747 427.35Z" stroke="#626C84" stroke-width="1.66667" stroke-linecap="round" stroke-linejoin="round"/>
<path d="M424.248 427.35H404.248C403.328 427.35 402.582 428.095 402.582 429.015V449.002C402.582 449.922 403.328 450.667 404.248 450.667H424.248C425.169 450.667 425.915 449.922 425.915 449.002V429.015C425.915 428.095 425.169 427.35 424.248 427.35Z" stroke="#626C84" stroke-width="1.66667" stroke-linecap="round" stroke-linejoin="round"/>
<path d="M460.75 427.35H440.75C439.829 427.35 439.083 428.095 439.083 429.015V449.002C439.083 449.922 439.829 450.667 440.75 450.667H460.75C461.67 450.667 462.416 449.922 462.416 449.002V429.015C462.416 428.095 461.67 427.35 460.75 427.35Z" stroke="#626C84" stroke-width="1.66667" stroke-linecap="round" stroke-linejoin="round"/>
<path d="M497.25 427.35H477.25C476.33 427.35 475.583 428.095 475.583 429.015V449.002C475.583 449.922 476.33 450.667 477.25 450.667H497.25C498.171 450.667 498.917 449.922 498.917 449.002V429.015C498.917 428.095 498.171 427.35 497.25 427.35Z" stroke="#626C84" stroke-width="1.66667" stroke-linecap="round" stroke-linejoin="round"/>
<path d="M533.752 427.35H513.752C512.831 427.35 512.085 428.095 512.085 429.015V449.002C512.085 449.922 512.831 450.667 513.752 450.667H533.752C534.672 450.667 535.418 449.922 535.418 449.002V429.015C535.418 428.095 534.672 427.35 533.752 427.35Z" stroke="#626C84" stroke-width="1.66667" stroke-linecap="round" stroke-linejoin="round"/>
<path d="M570.253 427.35H550.253C549.333 427.35 548.586 428.095 548.586 429.015V449.002C548.586 449.922 549.333 450.667 550.253 450.667H570.253C571.174 450.667 571.92 449.922 571.92 449.002V429.015C571.92 428.095 571.174 427.35 570.253 427.35Z" stroke="#626C84" stroke-width="1.66667" stroke-linecap="round" stroke-linejoin="round"/>
<path d="M606.755 427.35H586.755C585.834 427.35 585.088 428.095 585.088 429.015V449.002C585.088 449.922 585.834 450.667 586.755 450.667H606.755C607.675 450.667 608.421 449.922 608.421 449.002V429.015C608.421 428.095 607.675 427.35 606.755 427.35Z" stroke="#626C84" stroke-width="1.66667" stroke-linecap="round" stroke-linejoin="round"/>
<path d="M643.257 427.35H623.257C622.337 427.35 621.59 428.095 621.59 429.015V449.002C621.59 449.922 622.337 450.667 623.257 450.667H643.257C644.177 450.667 644.924 449.922 644.924 449.002V429.015C644.924 428.095 644.177 427.35 643.257 427.35Z" stroke="#626C84" stroke-width="1.66667" stroke-linecap="round" stroke-linejoin="round"/>
<path d="M350.807 527.282H330.807C329.886 527.282 329.14 528.028 329.14 528.948V548.934C329.14 549.854 329.886 550.6 330.807 550.6H350.807C351.727 550.6 352.473 549.854 352.473 548.934V528.948C352.473 528.028 351.727 527.282 350.807 527.282Z" fill="#626C84"/>
<path d="M314.743 527.282H294.743C293.822 527.282 293.076 528.028 293.076 528.948V548.934C293.076 549.854 293.822 550.6 294.743 550.6H314.743C315.663 550.6 316.41 549.854 316.41 548.934V528.948C316.41 528.028 315.663 527.282 314.743 527.282Z" fill="#626C84"/>
<path d="M531.129 527.282H366.872C365.952 527.282 365.206 528.028 365.206 528.948V548.934C365.206 549.854 365.952 550.6 366.872 550.6H531.129C532.049 550.6 532.796 549.854 532.796 548.934V528.948C532.796 528.028 532.049 527.282 531.129 527.282Z" fill="#626C84"/>
<path d="M567.193 527.282H547.193C546.273 527.282 545.526 528.028 545.526 528.948V548.934C545.526 549.854 546.273 550.6 547.193 550.6H567.193C568.113 550.6 568.86 549.854 568.86 548.934V528.948C568.86 528.028 568.113 527.282 567.193 527.282Z" fill="#626C84"/>
<path d="M619.924 540.399H606.59C605.67 540.399 604.924 541.145 604.924 542.065V548.935C604.924 549.855 605.67 550.601 606.59 550.601H619.924C620.844 550.601 621.591 549.855 621.591 548.935V542.065C621.591 541.145 620.844 540.399 619.924 540.399Z" fill="#626C84"/>
<path d="M619.924 527.282H606.59C605.67 527.282 604.924 528.028 604.924 528.948V535.818C604.924 536.738 605.67 537.484 606.59 537.484H619.924C620.844 537.484 621.591 536.738 621.591 535.818V528.948C621.591 528.028 620.844 527.282 619.924 527.282Z" fill="#626C84"/>
<path d="M643.257 540.399H629.924C629.003 540.399 628.257 541.145 628.257 542.065V548.935C628.257 549.855 629.003 550.601 629.924 550.601H643.257C644.177 550.601 644.924 549.855 644.924 548.935V542.065C644.924 541.145 644.177 540.399 643.257 540.399Z" fill="#626C84"/>
<path d="M596.59 540.399H583.257C582.337 540.399 581.59 541.145 581.59 542.065V548.935C581.59 549.855 582.337 550.601 583.257 550.601H596.59C597.511 550.601 598.257 549.855 598.257 548.935V542.065C598.257 541.145 597.511 540.399 596.59 540.399Z" fill="#626C84"/>
<path d="M347.475 494.106H294.743C293.822 494.106 293.076 494.852 293.076 495.772V515.759C293.076 516.679 293.822 517.424 294.743 517.424H347.475C348.395 517.424 349.141 516.679 349.141 515.759V495.772C349.141 494.852 348.395 494.106 347.475 494.106Z" fill="#626C84"/>
<path d="M383.84 494.106H363.84C362.919 494.106 362.173 494.852 362.173 495.772V515.759C362.173 516.679 362.919 517.424 363.84 517.424H383.84C384.76 517.424 385.506 516.679 385.506 515.759V495.772C385.506 494.852 384.76 494.106 383.84 494.106Z" fill="#626C84"/>
<path d="M419.903 494.106H399.903C398.983 494.106 398.236 494.852 398.236 495.772V515.759C398.236 516.679 398.983 517.424 399.903 517.424H419.903C420.823 517.424 421.57 516.679 421.57 515.759V495.772C421.57 494.852 420.823 494.106 419.903 494.106Z" fill="#626C84"/>
<path d="M455.968 494.106H435.968C435.048 494.106 434.302 494.852 434.302 495.772V515.759C434.302 516.679 435.048 517.424 435.968 517.424H455.968C456.889 517.424 457.635 516.679 457.635 515.759V495.772C457.635 494.852 456.889 494.106 455.968 494.106Z" fill="#626C84"/>
<path d="M492.031 494.106H472.031C471.111 494.106 470.365 494.852 470.365 495.772V515.759C470.365 516.679 471.111 517.424 472.031 517.424H492.031C492.952 517.424 493.698 516.679 493.698 515.759V495.772C493.698 494.852 492.952 494.106 492.031 494.106Z" fill="#626C84"/>
<path d="M528.096 494.106H508.096C507.176 494.106 506.43 494.852 506.43 495.772V515.759C506.43 516.679 507.176 517.424 508.096 517.424H528.096C529.017 517.424 529.763 516.679 529.763 515.759V495.772C529.763 494.852 529.017 494.106 528.096 494.106Z" fill="#626C84"/>
<path d="M564.16 494.106H544.16C543.24 494.106 542.494 494.852 542.494 495.772V515.759C542.494 516.679 543.24 517.424 544.16 517.424H564.16C565.081 517.424 565.827 516.679 565.827 515.759V495.772C565.827 494.852 565.081 494.106 564.16 494.106Z" fill="#626C84"/>
<path d="M643.257 494.106H583.257C582.337 494.106 581.59 494.852 581.59 495.772V515.759C581.59 516.679 582.337 517.424 583.257 517.424H643.257C644.177 517.424 644.924 516.679 644.924 515.759V495.772C644.924 494.852 644.177 494.106 643.257 494.106Z" fill="#626C84"/>
<path d="M370.807 459.995H350.807C349.886 459.995 349.14 460.741 349.14 461.661V481.647C349.14 482.567 349.886 483.313 350.807 483.313H370.807C371.727 483.313 372.473 482.567 372.473 481.647V461.661C372.473 460.741 371.727 459.995 370.807 459.995Z" fill="#626C84"/>
<path d="M334.743 459.995H294.743C293.822 459.995 293.076 460.741 293.076 461.661V481.647C293.076 482.567 293.822 483.313 294.743 483.313H334.743C335.663 483.313 336.41 482.567 336.41 481.647V461.661C336.41 460.741 335.663 459.995 334.743 459.995Z" fill="#626C84"/>
<path d="M406.872 459.995H386.872C385.952 459.995 385.206 460.741 385.206 461.661V481.647C385.206 482.567 385.952 483.313 386.872 483.313H406.872C407.793 483.313 408.539 482.567 408.539 481.647V461.661C408.539 460.741 407.793 459.995 406.872 459.995Z" fill="#626C84"/>
<path d="M442.934 459.995H422.934C422.014 459.995 421.268 460.741 421.268 461.661V481.647C421.268 482.567 422.014 483.313 422.934 483.313H442.934C443.855 483.313 444.601 482.567 444.601 481.647V461.661C444.601 460.741 443.855 459.995 442.934 459.995Z" fill="#626C84"/>
<path d="M479 459.995H459C458.079 459.995 457.333 460.741 457.333 461.661V481.647C457.333 482.567 458.079 483.313 459 483.313H479C479.92 483.313 480.666 482.567 480.666 481.647V461.661C480.666 460.741 479.92 459.995 479 459.995Z" fill="#626C84"/>
<path d="M515.065 459.995H495.065C494.145 459.995 493.398 460.741 493.398 461.661V481.647C493.398 482.567 494.145 483.313 495.065 483.313H515.065C515.986 483.313 516.732 482.567 516.732 481.647V461.661C516.732 460.741 515.986 459.995 515.065 459.995Z" fill="#626C84"/>
<path d="M551.128 459.995H531.128C530.208 459.995 529.461 460.741 529.461 461.661V481.647C529.461 482.567 530.208 483.313 531.128 483.313H551.128C552.049 483.313 552.795 482.567 552.795 481.647V461.661C552.795 460.741 552.049 459.995 551.128 459.995Z" fill="#626C84"/>
<path d="M587.193 459.995H567.193C566.273 459.995 565.526 460.741 565.526 461.661V481.647C565.526 482.567 566.273 483.313 567.193 483.313H587.193C588.113 483.313 588.86 482.567 588.86 481.647V461.661C588.86 460.741 588.113 459.995 587.193 459.995Z" fill="#626C84"/>
<path d="M643.257 459.995H603.257C602.337 459.995 601.59 460.741 601.59 461.661V481.647C601.59 482.567 602.337 483.313 603.257 483.313H643.257C644.177 483.313 644.924 482.567 644.924 481.647V461.661C644.924 460.741 644.177 459.995 643.257 459.995Z" fill="#626C84"/>
<path d="M351.245 427.35H331.245C330.325 427.35 329.579 428.095 329.579 429.015V449.002C329.579 449.922 330.325 450.667 331.245 450.667H351.245C352.166 450.667 352.912 449.922 352.912 449.002V429.015C352.912 428.095 352.166 427.35 351.245 427.35Z" fill="#626C84"/>
<path d="M314.743 427.35H294.743C293.822 427.35 293.076 428.095 293.076 429.015V449.002C293.076 449.922 293.822 450.667 294.743 450.667H314.743C315.663 450.667 316.41 449.922 316.41 449.002V429.015C316.41 428.095 315.663 427.35 314.743 427.35Z" fill="#626C84"/>
<path d="M387.747 427.35H367.747C366.826 427.35 366.08 428.095 366.08 429.015V449.002C366.08 449.922 366.826 450.667 367.747 450.667H387.747C388.667 450.667 389.413 449.922 389.413 449.002V429.015C389.413 428.095 388.667 427.35 387.747 427.35Z" fill="#626C84"/>
<path d="M424.248 427.35H404.248C403.328 427.35 402.582 428.095 402.582 429.015V449.002C402.582 449.922 403.328 450.667 404.248 450.667H424.248C425.169 450.667 425.915 449.922 425.915 449.002V429.015C425.915 428.095 425.169 427.35 424.248 427.35Z" fill="#626C84"/>
<path d="M460.75 427.35H440.75C439.829 427.35 439.083 428.095 439.083 429.015V449.002C439.083 449.922 439.829 450.667 440.75 450.667H460.75C461.67 450.667 462.416 449.922 462.416 449.002V429.015C462.416 428.095 461.67 427.35 460.75 427.35Z" fill="#626C84"/>
<path d="M497.25 427.35H477.25C476.33 427.35 475.583 428.095 475.583 429.015V449.002C475.583 449.922 476.33 450.667 477.25 450.667H497.25C498.171 450.667 498.917 449.922 498.917 449.002V429.015C498.917 428.095 498.171 427.35 497.25 427.35Z" fill="#626C84"/>
<path d="M533.752 427.35H513.752C512.831 427.35 512.085 428.095 512.085 429.015V449.002C512.085 449.922 512.831 450.667 513.752 450.667H533.752C534.672 450.667 535.418 449.922 535.418 449.002V429.015C535.418 428.095 534.672 427.35 533.752 427.35Z" fill="#626C84"/>
<path d="M570.253 427.35H550.253C549.333 427.35 548.586 428.095 548.586 429.015V449.002C548.586 449.922 549.333 450.667 550.253 450.667H570.253C571.174 450.667 571.92 449.922 571.92 449.002V429.015C571.92 428.095 571.174 427.35 570.253 427.35Z" fill="#626C84"/>
<path d="M606.755 427.35H586.755C585.834 427.35 585.088 428.095 585.088 429.015V449.002C585.088 449.922 585.834 450.667 586.755 450.667H606.755C607.675 450.667 608.421 449.922 608.421 449.002V429.015C608.421 428.095 607.675 427.35 606.755 427.35Z" fill="#626C84"/>
<path d="M643.257 427.35H623.257C622.337 427.35 621.59 428.095 621.59 429.015V449.002C621.59 449.922 622.337 450.667 623.257 450.667H643.257C644.177 450.667 644.924 449.922 644.924 449.002V429.015C644.924 428.095 644.177 427.35 643.257 427.35Z" fill="#626C84"/>
<path d="M327.333 374.214H610.667V396.609C610.667 398.376 609.964 400.07 608.714 401.32C607.464 402.569 605.768 403.271 604 403.271H334C332.232 403.271 330.536 402.569 329.286 401.32C328.036 400.07 327.333 398.376 327.333 396.609V374.214Z" fill="#626C84"/>
<path opacity="0.12" d="M610.667 374.214H327.333V377.545H610.667V374.214Z" fill="white"/>
<g style="mix-blend-mode:multiply" opacity="0.25">
<path d="M604 396.607H334C332.232 396.607 330.536 395.905 329.286 394.655C328.036 393.406 327.333 391.711 327.333 389.944V396.607C327.333 398.373 328.036 400.068 329.286 401.317C330.536 402.567 332.232 403.269 334 403.269H604C605.768 403.269 607.464 402.567 608.714 401.317C609.964 400.068 610.667 398.373 610.667 396.607V389.944C610.667 391.711 609.964 393.406 608.714 394.655C607.464 395.905 605.768 396.607 604 396.607Z" fill="#626C84"/>
</g>
<path d="M327.333 374.214H610.667V396.609C610.667 398.376 609.964 400.07 608.714 401.32C607.464 402.569 605.768 403.271 604 403.271H334C332.232 403.271 330.536 402.569 329.286 401.32C328.036 400.07 327.333 398.376 327.333 396.609V374.214Z" stroke="#46505C" stroke-width="3.33333" stroke-linecap="round" stroke-linejoin="round"/>
<path d="M527.333 573.087H410.666C408.825 573.087 407.333 574.578 407.333 576.418V654.699C407.333 656.539 408.825 658.03 410.666 658.03H527.333C529.174 658.03 530.666 656.539 530.666 654.699V576.418C530.666 574.578 529.174 573.087 527.333 573.087Z" fill="#E6F3FF"/>
<path d="M527.333 573.087H410.666C408.825 573.087 407.333 574.578 407.333 576.418V654.699C407.333 656.539 408.825 658.03 410.666 658.03H527.333C529.174 658.03 530.666 656.539 530.666 654.699V576.418C530.666 574.578 529.174 573.087 527.333 573.087Z" stroke="#626C84" stroke-width="1.66667" stroke-linecap="round" stroke-linejoin="round"/>
<path opacity="0.52" d="M469 137.923C471.761 137.923 474 135.686 474 132.926C474 130.167 471.761 127.93 469 127.93C466.239 127.93 464 130.167 464 132.926C464 135.686 466.239 137.923 469 137.923Z" fill="white"/>
<path d="M469 137.923C471.761 137.923 474 135.686 474 132.926C474 130.167 471.761 127.93 469 127.93C466.239 127.93 464 130.167 464 132.926C464 135.686 466.239 137.923 469 137.923Z" stroke="#46505C" stroke-width="1.66667" stroke-linecap="round" stroke-linejoin="round"/>
<path d="M572.933 168.03H552.933C552.013 168.03 551.267 168.776 551.267 169.696C551.267 170.616 552.013 171.361 552.933 171.361H572.933C573.854 171.361 574.6 170.616 574.6 169.696C574.6 168.776 573.854 168.03 572.933 168.03Z" fill="white"/>
<path d="M616.223 168.03H596.223C595.303 168.03 594.557 168.776 594.557 169.696C594.557 170.616 595.303 171.361 596.223 171.361H616.223C617.144 171.361 617.89 170.616 617.89 169.696C617.89 168.776 617.144 168.03 616.223 168.03Z" fill="white"/>
<path d="M529.646 168.03H509.646C508.725 168.03 507.979 168.776 507.979 169.696C507.979 170.616 508.725 171.361 509.646 171.361H529.646C530.566 171.361 531.312 170.616 531.312 169.696C531.312 168.776 530.566 168.03 529.646 168.03Z" fill="white"/>
<path d="M314.388 178.622C318.841 178.622 322.45 175.015 322.45 170.566C322.45 166.117 318.841 162.51 314.388 162.51C309.936 162.51 306.327 166.117 306.327 170.566C306.327 175.015 309.936 178.622 314.388 178.622Z" fill="white"/>
<g opacity="0.72">
<path opacity="0.72" d="M553.263 258.773H384.54V264.844H553.263V258.773Z" fill="white"/>
<path opacity="0.72" d="M531.927 238.624H405.879V244.783H531.927V238.624Z" fill="white"/>
</g>
<path d="M498.008 305.968H449.99C444.945 305.968 440.855 310.055 440.855 315.097C440.855 320.138 444.945 324.226 449.99 324.226H498.008C503.053 324.226 507.143 320.138 507.143 315.097C507.143 310.055 503.053 305.968 498.008 305.968Z" stroke="white" stroke-width="1.66667" stroke-miterlimit="10"/>
</svg>
