<svg width="320" height="320" viewBox="0 0 320 320" fill="none" xmlns="http://www.w3.org/2000/svg">
<path d="M39.4453 255.25C37.6875 253.883 36.1738 252.125 34.9043 249.977C33.6348 247.926 33 245.191 33 241.773C33 238.355 33.8301 235.523 35.4902 233.277C37.248 230.934 39.4941 228.639 42.2285 226.393L108.293 169.117L80.3145 114.479C78.3613 110.865 76.7988 108.326 75.627 106.861C73.1855 103.834 70.1582 102.32 66.5449 102.32C62.9316 102.32 59.3184 102.711 55.7051 103.492C52.1895 104.273 48.4785 104.762 44.5723 104.957C40.666 105.152 38.0293 104.225 36.6621 102.174C35.2949 100.025 34.6113 97.4863 34.6113 94.5566C34.6113 87.623 36.8574 82.6914 41.3496 79.7617C45.9395 76.832 50.1387 74.3906 53.9473 72.4375C57.7559 70.4844 61.9062 68.8242 66.3984 67.457C75.0898 64.8203 86.9062 63.0137 101.848 62.0371C107.902 61.7441 113.664 64.3809 119.133 69.9473C120.598 71.5098 121.721 72.9258 122.502 74.1953L154.729 128.834L222.697 69.9473C239.104 55.9824 251.75 49 260.637 49C266.984 49 273.771 51.5391 280.998 56.6172C288.908 62.1836 292.863 68.1895 292.863 74.6348C292.863 78.7363 291.301 81.7637 288.176 83.7168C287.59 84.0098 286.467 84.7422 284.807 85.9141L249.357 112.281L178.02 168.092C193.449 193.385 202.336 207.496 204.68 210.426C209.855 218.238 217.57 222.145 227.824 222.145C232.512 222.145 236.76 221.412 240.568 219.947C244.377 218.482 247.844 217.75 250.969 217.75C254.094 217.75 256.779 218.531 259.025 220.094C261.271 221.559 262.395 223.512 262.395 225.953C262.395 231.227 257.951 237.33 249.064 244.264C240.568 250.611 225.773 257.643 204.68 265.357C193.547 269.361 185.344 271.51 180.07 271.803C174.797 272.096 170.5 271.461 167.18 269.898C163.859 268.336 160.93 266.236 158.391 263.6C154.094 259.4 149.992 253.15 146.086 244.85L127.482 207.496L73.8691 249.391C70.1582 252.32 66.4961 254.762 62.8828 256.715C59.2695 258.668 55.9004 259.645 52.7754 259.645C49.748 259.645 47.209 259.254 45.1582 258.473C43.2051 257.789 41.3008 256.715 39.4453 255.25Z" fill="#F59E0B"/>
<rect x="87" y="94.8145" width="22.4719" height="171.206" rx="11.2359" transform="rotate(-28.7675 87 94.8145)" fill="#D97706"/>
</svg>
